<svg width="907" height="849" viewBox="0 0 907 849" fill="none" xmlns="http://www.w3.org/2000/svg">
<g id="Group 2">
<path id="Vector" fill-rule="evenodd" clip-rule="evenodd" d="M1222.42 379.376C1232.35 450.498 1136.81 492.064 1097.72 552.233C1059.24 611.472 1054.05 703.013 991.994 734.098C925.751 767.279 848.636 713.405 775.429 713.669C719.337 713.871 665.674 737.264 609.636 735.478C551.772 733.634 495.917 720.266 440.695 703.002C379.576 683.894 310.289 674.568 265.445 627.871C220.715 581.293 222.584 505.469 194.414 446.549C163.263 381.392 101.565 331.531 89.4287 259.709C77.1901 187.28 105.155 113.989 126.273 43.2876C148.433 -30.8996 149.59 -133.845 217.184 -167.997C297.585 -208.619 392.859 -113.059 479.538 -135.199C543.959 -151.653 567.463 -240.843 626.496 -272.544C692.342 -307.906 779.994 -372.394 839.869 -328.706C912.735 -275.538 868.732 -144.6 912.235 -64.0513C937.688 -16.9254 1010.6 -14.015 1035.47 33.4511C1060.42 81.0773 1022.28 147.53 1047.83 194.807C1088.82 270.648 1210.37 293.053 1222.42 379.376Z" fill="#343C4C" fill-opacity="0.3"/>
<path id="Vector_2" fill-rule="evenodd" clip-rule="evenodd" d="M1233.42 344.376C1243.35 415.498 1147.81 457.064 1108.72 517.233C1070.24 576.472 1065.05 668.013 1002.99 699.099C936.751 732.28 859.636 678.405 786.429 678.669C730.337 678.871 676.674 702.264 620.636 700.478C562.772 698.634 506.917 685.266 451.695 668.002C390.576 648.894 321.289 639.568 276.445 592.871C231.715 546.293 233.584 470.469 205.414 411.549C174.263 346.392 112.565 296.531 100.429 224.708C88.1902 152.28 116.155 78.9886 137.273 8.2876C159.433 -65.8996 160.591 -168.845 228.184 -202.997C308.585 -243.619 403.859 -148.059 490.538 -170.199C554.959 -186.653 578.463 -275.843 637.496 -307.544C703.342 -342.906 790.994 -407.394 850.869 -363.706C923.735 -310.538 879.732 -179.6 923.235 -99.0513C948.688 -51.9254 1021.6 -49.015 1046.47 -1.54892C1071.42 46.0773 1033.28 112.53 1058.83 159.807C1099.82 235.648 1221.37 258.053 1233.42 344.376Z" fill="#343C4C"/>
</g>
</svg>
