<svg width="907" height="849" viewBox="0 0 907 849" fill="none" xmlns="http://www.w3.org/2000/svg">
<path fill-rule="evenodd" clip-rule="evenodd" d="M1222.42 379.376C1232.35 450.498 1136.81 492.064 1097.72 552.233C1059.24 611.472 1054.05 703.013 991.994 734.098C925.751 767.28 848.636 713.405 775.429 713.669C719.337 713.871 665.674 737.264 609.636 735.478C551.772 733.634 495.917 720.266 440.695 703.002C379.576 683.894 310.289 674.567 265.445 627.871C220.715 581.293 222.584 505.469 194.414 446.549C163.263 381.392 101.565 331.531 89.4287 259.709C77.1901 187.28 105.155 113.989 126.273 43.2876C148.433 -30.8996 149.59 -133.845 217.184 -167.997C297.585 -208.619 392.859 -113.059 479.538 -135.199C543.959 -151.653 567.463 -240.843 626.496 -272.544C692.342 -307.906 779.994 -372.394 839.869 -328.706C912.735 -275.538 868.732 -144.6 912.235 -64.0513C937.688 -16.9254 1010.6 -14.015 1035.47 33.4511C1060.42 81.0773 1022.28 147.53 1047.83 194.807C1088.82 270.648 1210.37 293.053 1222.42 379.376Z" fill="#343C4C" fill-opacity="0.3"/>
<path fill-rule="evenodd" clip-rule="evenodd" d="M1233.42 344.376C1243.35 415.498 1147.81 457.064 1108.72 517.233C1070.24 576.472 1065.05 668.013 1002.99 699.098C936.751 732.28 859.636 678.405 786.429 678.669C730.337 678.871 676.674 702.264 620.636 700.478C562.772 698.634 506.917 685.266 451.695 668.002C390.576 648.894 321.289 639.568 276.445 592.871C231.715 546.293 233.584 470.469 205.414 411.549C174.263 346.392 112.565 296.531 100.429 224.709C88.1901 152.28 116.155 78.9886 137.273 8.2876C159.433 -65.8996 160.59 -168.845 228.184 -202.997C308.585 -243.619 403.859 -148.059 490.538 -170.199C554.959 -186.653 578.463 -275.843 637.496 -307.544C703.342 -342.906 790.994 -407.394 850.869 -363.706C923.735 -310.538 879.732 -179.6 923.235 -99.0513C948.688 -51.9254 1021.6 -49.015 1046.47 -1.54893C1071.42 46.0773 1033.28 112.53 1058.83 159.807C1099.82 235.648 1221.37 258.053 1233.42 344.376Z" fill="#343C4C"/>
<g clip-path="url(#clip0)">
<path d="M760.137 266.162H346.822V510.594H760.137V266.162Z" fill="#D5DBDA"/>
<path d="M748.664 270.943H358.294V505.813H748.664V270.943Z" fill="white"/>
<path d="M717.378 281.811H386.917V297.497H717.378V281.811Z" fill="#EFEFEF"/>
<path d="M416.896 431.062H398.922V476.239H416.896V431.062Z" fill="#FFD04D"/>
<path d="M457.399 391.401H439.425V476.239H457.399V391.401Z" fill="#00BFD8"/>
<path d="M497.903 400.174H479.929V476.239H497.903V400.174Z" fill="#FFD04D"/>
<path d="M538.407 357.228H520.433V476.24H538.407V357.228Z" fill="#00BFD8"/>
<g style="mix-blend-mode:multiply" opacity="0.15">
<g style="mix-blend-mode:multiply" opacity="0.26">
<path d="M447.674 391.401H439.425V476.239H447.674V391.401Z" fill="black"/>
</g>
</g>
<g style="mix-blend-mode:multiply" opacity="0.15">
<g style="mix-blend-mode:multiply" opacity="0.26">
<path d="M407.171 431.062H398.922V476.239H407.171V431.062Z" fill="black"/>
</g>
</g>
<g style="mix-blend-mode:multiply" opacity="0.62">
<g style="mix-blend-mode:multiply" opacity="0.26">
<path d="M528.682 357.228H520.433V476.24H528.682V357.228Z" fill="black"/>
</g>
</g>
<g style="mix-blend-mode:multiply" opacity="0.15">
<g style="mix-blend-mode:multiply" opacity="0.26">
<path d="M488.178 400.174H479.929V476.239H488.178V400.174Z" fill="black"/>
</g>
</g>
<path d="M547.918 488.675H387.052V317.181H389.505V486.219H547.918V488.675Z" fill="#D5DBDA"/>
<path d="M403.574 409.904L401.936 408.076L444.017 370.245L482.995 378.723L525.201 331.68L527.027 333.322L483.867 381.427L444.723 372.913L403.574 409.904Z" fill="#D5DBDA"/>
<path d="M530.334 340.272L518.433 328.846L533.797 324.731L530.334 340.272Z" fill="#D5DBDA"/>
<path d="M578.235 420.307H563.151V435.409H578.235V420.307Z" fill="#00BFD8"/>
<path d="M578.235 446.767H563.151V461.869H578.235V446.767Z" fill="#FFD04D"/>
<path d="M630.206 453.288H582.391V461.87H630.206V453.288Z" fill="#EFEFEF"/>
<path d="M630.206 426.827H582.391V435.409H630.206V426.827Z" fill="#EFEFEF"/>
<path d="M666.946 420.307H651.862V435.409H666.946V420.307Z" fill="#00BFD8"/>
<path d="M666.946 446.767H651.862V461.869H666.946V446.767Z" fill="#FFD04D"/>
<path d="M718.917 453.288H671.102V461.87H718.917V453.288Z" fill="#EFEFEF"/>
<path d="M718.917 426.827H671.102V435.409H718.917V426.827Z" fill="#EFEFEF"/>
<path d="M717.379 327.545H576.027V330.769H717.379V327.545Z" fill="#EFEFEF"/>
<path d="M717.378 335.352H564.93V338.576H717.378V335.352Z" fill="#EFEFEF"/>
<path d="M717.378 343.159H564.93V346.383H717.378V343.159Z" fill="#EFEFEF"/>
<path d="M717.378 350.965H564.93V354.189H717.378V350.965Z" fill="#EFEFEF"/>
<path d="M717.378 358.772H564.93V361.996H717.378V358.772Z" fill="#EFEFEF"/>
<path d="M717.378 366.579H564.93V369.803H717.378V366.579Z" fill="#EFEFEF"/>
<path d="M717.378 374.387H564.93V377.611H717.378V374.387Z" fill="#EFEFEF"/>
<path d="M717.378 382.194H564.93V385.418H717.378V382.194Z" fill="#EFEFEF"/>
<path d="M717.379 390H586.683V393.224H717.379V390Z" fill="#EFEFEF"/>
<path d="M769 264.185C769 265.03 768.664 265.841 768.068 266.438C767.471 267.036 766.661 267.372 765.817 267.372H341.141C340.723 267.372 340.309 267.289 339.923 267.129C339.537 266.969 339.186 266.734 338.891 266.438C338.596 266.143 338.361 265.791 338.201 265.405C338.042 265.018 337.959 264.604 337.959 264.185C337.959 263.767 338.041 263.352 338.201 262.965C338.36 262.578 338.595 262.227 338.89 261.931C339.186 261.634 339.536 261.399 339.923 261.239C340.309 261.079 340.723 260.996 341.141 260.996H765.817C766.661 260.996 767.471 261.332 768.068 261.929C768.664 262.527 769 263.337 769 264.183V264.185Z" fill="#66341B"/>
<path d="M769 512.569C769 513.414 768.664 514.224 768.068 514.822C767.471 515.419 766.661 515.755 765.817 515.755H341.141C340.723 515.755 340.309 515.673 339.923 515.512C339.537 515.352 339.186 515.118 338.891 514.822C338.596 514.526 338.361 514.175 338.201 513.788C338.042 513.401 337.959 512.987 337.959 512.569C337.959 512.15 338.042 511.736 338.201 511.349C338.361 510.963 338.596 510.612 338.891 510.316C339.186 510.02 339.537 509.785 339.923 509.625C340.309 509.465 340.723 509.382 341.141 509.382H765.817C766.661 509.382 767.471 509.718 768.068 510.316C768.664 510.913 769 511.724 769 512.569Z" fill="#66341B"/>
<path d="M276.421 793.006L278.726 669.651H270.53L272.834 793.006C272.771 793.276 272.77 793.558 272.83 793.829C272.891 794.1 273.012 794.354 273.184 794.572C273.357 794.79 273.576 794.965 273.826 795.086C274.076 795.207 274.35 795.27 274.628 795.27C274.905 795.27 275.179 795.207 275.429 795.086C275.679 794.965 275.899 794.79 276.071 794.572C276.244 794.354 276.365 794.1 276.425 793.829C276.486 793.558 276.485 793.276 276.421 793.006Z" fill="#723E24"/>
<path d="M201.095 778.576L248.697 664.774L241.077 661.746L197.76 777.251C197.521 777.732 197.474 778.286 197.629 778.8C197.784 779.314 198.128 779.75 198.593 780.019C199.115 780.142 199.664 780.062 200.129 779.794C200.594 779.526 200.94 779.09 201.095 778.576Z" fill="#723E24"/>
<path d="M348.155 778.576L300.552 664.774L308.172 661.746L351.49 777.249C351.648 777.477 351.752 777.738 351.795 778.012C351.838 778.286 351.819 778.566 351.739 778.832C351.658 779.098 351.519 779.342 351.332 779.546C351.144 779.75 350.913 779.909 350.656 780.012C350.398 780.114 350.121 780.157 349.844 780.138C349.568 780.118 349.3 780.036 349.059 779.898C348.819 779.76 348.613 779.569 348.456 779.341C348.299 779.112 348.196 778.85 348.155 778.576Z" fill="#723E24"/>
<g style="mix-blend-mode:multiply" opacity="0.3">
<g style="mix-blend-mode:multiply" opacity="0.3">
<path d="M239.756 665.275L244.603 667.201L199.86 779.926C200.421 779.639 200.859 779.16 201.095 778.575L248.697 664.774L241.077 661.746L239.756 665.275Z" fill="black"/>
</g>
<g style="mix-blend-mode:multiply" opacity="0.3">
<path d="M270.589 672.898H276.696L274.411 795.246C274.482 795.261 274.554 795.271 274.626 795.274C275.158 795.196 275.64 794.918 275.973 794.496C276.307 794.075 276.467 793.541 276.421 793.005L278.726 669.651H270.53L270.589 672.898Z" fill="black"/>
</g>
<g style="mix-blend-mode:multiply" opacity="0.3">
<path d="M351.489 777.251L308.171 661.748L300.55 664.776L301.425 666.869L306.139 664.996L349.209 779.836C349.418 779.977 349.658 780.068 349.909 780.101C350.16 780.134 350.415 780.107 350.654 780.024C351.12 779.755 351.466 779.319 351.621 778.803C351.776 778.288 351.729 777.733 351.489 777.251Z" fill="black"/>
</g>
</g>
<path d="M331.1 675.48C322.787 682.252 310.469 688.484 279.183 689.101C238.027 689.913 216.481 685.239 204.788 663.987C185.261 628.498 209.697 513.847 248.244 539.245C280.467 560.477 286.921 628.252 291.18 637.623C295.439 646.995 351.272 659.047 331.1 675.48Z" fill="#E8F6F7"/>
<path d="M286.316 680.323C245.161 681.134 223.616 676.461 211.922 655.209C198.592 630.986 205.746 569.884 223.89 541.608C200.669 563.157 189.828 636.801 204.789 663.986C216.482 685.235 238.027 689.912 279.184 689.1C310.47 688.483 322.788 682.251 331.101 675.479C333.931 673.173 335.264 670.958 335.455 668.815C327.113 674.722 314.309 679.771 286.316 680.323Z" fill="#D0E0E2"/>
<path d="M303.873 409.058C306.685 400.935 309.281 392.398 313.691 396.71C318.331 401.249 317.96 400.7 316.275 406.998C314.59 413.295 301.507 415.89 303.873 409.058Z" fill="#FFE1BD"/>
<path d="M308.91 397.446C310.308 393.58 312.602 389.163 314.962 387.338C317.321 385.513 313.746 391.911 312.901 394.906C312.056 397.901 307.735 400.698 308.91 397.446Z" fill="#FFE1BD"/>
<path d="M305.115 441.473C308.421 429.053 310.073 412.821 310.073 412.821L303.88 408.647C303.88 408.647 291.273 434.589 284.461 454.282L249.327 445.251L245.045 444.377L256.477 467.247C256.477 467.247 290.316 472.18 292.395 471.015C294.474 469.849 301.749 454.117 305.115 441.473Z" fill="#F4F4F4"/>
<path d="M292.394 471.014C290.315 472.179 256.476 467.246 256.476 467.246L245.044 444.378L249.325 445.252C252.482 446.585 257.596 451.703 261.748 457.141C264.746 461.066 266.398 462.463 270.928 464.164C277.857 466.766 285.219 468.611 287.986 468.809C292.663 469.12 293.12 469.349 294.118 467.976C294.184 468.599 294.053 469.227 293.743 469.772C293.434 470.317 292.962 470.751 292.394 471.014Z" fill="#EAEAEA"/>
<path d="M209.672 513.43C211.883 519.119 212.366 525.335 211.06 531.298C208.431 543.141 211.423 543.936 211.423 543.936C211.423 543.936 227.455 554.124 240.79 558.288C250.346 561.265 258.491 560.761 258.265 550.198L258.257 550.053C258.24 549.412 258.225 548.799 258.21 548.2C257.759 524.459 262.704 523.251 263.923 496.666C265.181 469.394 257.902 454.181 250.689 447.584C243.464 441.001 233.605 440.756 215.059 445.145C201.127 448.431 196.538 452.133 196.651 462.454C196.815 466.722 197.316 470.97 198.15 475.159C200.451 488.147 205.943 503.74 209.672 513.43Z" fill="#F4F4F4"/>
<path d="M243.317 455.021C243.317 455.021 257.769 502.447 254.878 525.166L249.554 534.867L243.733 524.292C243.733 524.292 248.466 478.871 239.406 455.825L243.317 455.021Z" fill="#3A3A3A"/>
<path d="M209.672 513.43C211.883 519.119 212.366 525.335 211.059 531.298C208.431 543.141 211.423 543.936 211.423 543.936C211.423 543.936 227.455 554.124 240.79 558.288L253.249 557.105L258.235 553.181L258.255 550.052C258.238 549.411 258.223 548.798 258.208 548.199C251.936 548.678 245.631 548.514 239.393 547.709C233.077 546.925 226.882 545.371 220.943 543.081C219.373 542.487 218.06 541.362 217.232 539.901C216.404 538.44 216.112 536.735 216.407 535.081C217.426 529.616 218.003 524.078 218.132 518.52C218.095 513.293 215.677 504.458 213.7 498.082C212.216 493.192 211.653 488.069 212.04 482.973C212.401 477.239 212.397 471.487 212.026 465.753L202.148 460.397L196.646 462.449C196.811 466.719 197.314 470.969 198.149 475.159C200.45 488.147 205.943 503.74 209.672 513.43Z" fill="#E2E2E2"/>
<path d="M209.468 563.815C208.326 564.003 205.408 558.874 205.408 558.874L206.631 557.247C207.323 556.328 208.287 555.652 209.386 555.314L209.584 555.253C210.064 555.102 210.579 555.108 211.054 555.272C211.53 555.435 211.94 555.746 212.226 556.16C213.064 557.403 214.357 558.822 215.86 558.767H215.886C215.937 558.789 215.991 558.798 216.045 558.794C217.375 558.821 210.609 563.628 209.468 563.815Z" fill="#F4D5B5"/>
<path d="M254.476 398.797C254.476 398.797 255.713 402.257 253.843 405.008L246.196 394.647L251.529 394.598L254.476 398.797Z" fill="#632F00"/>
<path d="M212.948 412.502C213.286 425.867 224.802 433.613 224.802 433.613L224.032 445.777L231.8 450.818L237.131 454.273L240.19 447.873L240.61 440.031C240.66 439.143 241.002 438.296 241.581 437.622C242.161 436.949 242.946 436.485 243.816 436.303C246.751 435.591 249.396 433.99 251.391 431.719C251.567 431.532 251.729 431.332 251.874 431.12L251.892 431.11C256.94 424.224 258.854 397.852 241.57 390.365C223.726 382.614 212.6 399.118 212.948 412.502Z" fill="#FFE1BD"/>
<path d="M232.323 443.522L231.8 450.818L237.13 454.273L240.19 447.873L240.609 440.031C240.66 439.143 241.001 438.296 241.581 437.622C242.16 436.948 242.946 436.485 243.815 436.303C246.751 435.591 249.396 433.99 251.39 431.719C251.566 431.532 251.728 431.331 251.874 431.12C248.511 432.957 244.816 434.103 241.004 434.488C238.731 434.741 236.618 435.784 235.032 437.434C233.447 439.084 232.488 441.238 232.323 443.522Z" fill="#E8C5A0"/>
<path d="M231.586 416.622C230.91 416.899 230.269 415.853 230.269 415.853C230.269 415.853 226.522 407.428 225.232 406.137C222.928 403.8 217.492 404.016 217.063 411.241C216.726 416.836 223.328 428.767 225.355 432.272C225.51 432.548 225.56 432.871 225.498 433.182C225.437 433.492 225.266 433.771 225.017 433.967C224.798 434.117 224.545 434.212 224.281 434.244H224.187C223.872 434.25 223.566 434.141 223.327 433.937C219.059 430.186 200.263 412.137 215.188 395.165C215.188 395.165 227.042 395.934 228.855 401.653C230.149 406.088 231.186 410.595 231.959 415.15C231.959 415.15 232.292 416.31 231.586 416.622Z" fill="#8C4200"/>
<path d="M254.476 398.797C254.476 398.797 244.102 390.697 228.348 400.565L215.447 397.268C215.447 397.268 214.905 397.092 215.191 395.158C215.477 393.223 216.902 374.234 239.499 378.503C252.492 380.957 260.45 389.972 254.476 398.797Z" fill="#8C4200"/>
<path d="M244.318 450.984L244.242 451.605C244.1 452.782 243.788 453.932 243.318 455.02L239.406 455.821L235.999 453.278L239.906 448.729L240.513 448.883C241.914 449.241 243.203 449.944 244.262 450.929L244.318 450.984Z" fill="#606060"/>
<path d="M224.126 440.108C222.611 441.106 221.333 442.424 220.382 443.97C222.026 444.719 223.628 445.558 225.18 446.484C227.22 447.731 237.025 454.665 237.025 454.665L239.908 448.737C239.908 448.737 229.665 441.662 224.126 440.108Z" fill="#E2E2E2"/>
<path d="M239.906 448.732C239.906 448.732 243.337 449.906 244.391 452.472C244.391 452.472 246.145 449.106 243.904 443.115C242.906 442.164 241.786 441.351 240.574 440.697L239.906 448.732Z" fill="#E2E2E2"/>
<path d="M212.637 555.44C213.349 556.369 214.14 557.235 215 558.029C215.54 558.326 215.633 557.694 215.428 557.247C215.224 556.801 212.72 554.833 212.637 555.44Z" fill="#E5BB98"/>
<path d="M224.277 434.239H224.183C223.869 434.246 223.563 434.136 223.323 433.932C219.055 430.181 200.26 412.133 215.185 395.16C214.761 396.931 214.616 398.756 214.755 400.571C214.755 400.571 205.236 415.976 224.277 434.239Z" fill="#632F00"/>
<path d="M233.522 800.585C267.733 800.585 295.466 798.473 295.466 795.867C295.466 793.262 267.733 791.149 233.522 791.149C199.311 791.149 171.578 793.262 171.578 795.867C171.578 798.473 199.311 800.585 233.522 800.585Z" fill="#D8D8D8"/>
<path d="M202.918 777.864C203.733 780.996 203.423 782.117 203.743 784.159C204.143 786.69 206.466 787.612 207.812 789.69C209.295 791.98 211.623 795.653 202.529 795.838C192.793 796.033 187.025 795.359 188.676 789.849C190.327 784.338 190.652 781.911 190.537 780.116C190.422 778.321 190.542 776.448 191.641 775.369C192.741 774.291 201.483 772.352 202.918 777.864Z" fill="#8C4200"/>
<path d="M204.975 602.689C204.975 602.689 189.605 578.132 211.423 543.933C211.423 543.933 228.426 551.553 242.042 552.473C252.767 553.197 258.208 552.086 258.208 552.086C258.208 552.086 259.111 584.965 259.149 602.687H204.975V602.689Z" fill="#3A3A3A"/>
<path d="M215.332 674.052C219.537 656.301 202.087 653.175 196.578 666.018C188.785 684.181 189.405 763.962 189.822 775.552C189.875 777.069 190.668 776.785 191.515 776.478C193.998 775.581 196.079 775.225 197.066 775.436C199.046 776.052 200.964 776.851 202.797 777.822C204.436 762.036 211.265 691.241 215.332 674.052Z" fill="#3A3A3A"/>
<path d="M231.022 605.084C232.864 583.033 224.46 565.902 211.294 573.188C205.752 576.252 203.723 582.384 202.98 588.156C202.237 593.929 198.157 653.925 196.728 664.766C193.507 689.206 212.083 682.62 214.098 675.848C219.182 658.746 230.019 617.099 231.022 605.084Z" fill="#3A3A3A"/>
<path d="M262.039 672.906C262.728 656.359 248.905 657.317 243.326 670.175C231.276 697.952 243.414 757.093 245.888 784.988C248.589 780.498 253.708 778.977 254.911 779.073C255.502 779.131 256.075 779.312 256.594 779.604C257.112 779.896 257.564 780.292 257.921 780.768C257.525 746.547 261.299 690.599 262.039 672.906Z" fill="#3A3A3A"/>
<path d="M243.946 674.702C246.006 681.458 263.757 689.277 261.902 664.683C261.08 653.775 258.892 593.539 258.466 587.732C258.04 581.926 257.074 573.439 254.27 572.38C240.253 567.083 226.66 584.404 230.349 606.207C232.811 620.783 239.671 660.688 243.946 674.702Z" fill="#3A3A3A"/>
<path d="M257.87 781.266C258.606 782.699 262.126 786.01 267.006 788.194C271.886 790.377 282.22 791.396 276.477 793.318C270.735 795.241 264.039 794.072 260.644 793.531C257.107 793.037 253.537 792.821 249.966 792.886C244.689 792.85 244.649 792.525 245.356 786.568C246.339 778.37 255.497 776.634 257.87 781.266Z" fill="#8C4200"/>
<path d="M208.504 550.545L211.213 554.366C212.643 554.185 214.095 554.446 215.373 555.114C216.651 555.783 217.694 556.826 218.363 558.105C220.655 562.6 212.545 568.228 210.239 566.152C207.933 564.076 202.919 554.482 202.919 554.482L208.504 550.545Z" fill="#FFE1BD"/>
<path d="M188.243 538.423C193.598 544.05 198.611 549.995 203.253 556.224L204.651 555.282L210.003 551.637C210.003 551.637 199.024 528.618 195.905 517.379C194.569 512.665 192.378 508.238 189.443 504.318C189.651 504.117 189.846 503.919 190.054 503.704C198.012 495.221 204.215 484.282 208.933 477.579C211.211 474.355 212.753 470.669 213.449 466.782C213.913 464.149 213.939 461.458 213.525 458.817C212.852 454.615 211.087 450.744 207.026 449.745C205.54 449.381 203.978 449.499 202.563 450.082C200.979 450.731 199.64 451.866 198.741 453.325C192.538 463.373 174.966 490.572 172.203 497.281C171.746 498.382 171.43 499.536 171.262 500.716C171.18 501.105 171.117 501.498 171.074 501.894C170.007 512.898 180.92 531.029 188.243 538.423Z" fill="#F4F4F4"/>
<path d="M188.243 538.423C193.598 544.05 198.611 549.995 203.253 556.224L204.651 555.282C204.651 555.282 196.595 544.045 192.788 539.493C186.955 532.523 182.853 527.085 179.373 520.683C175.893 514.281 174.254 501.94 176.098 498.475C177.927 495.011 188.205 479.709 190.409 476.767C192.614 473.84 210.651 455.822 205.473 450.801C205.067 450.482 204.598 450.252 204.096 450.128C203.595 450.004 203.072 449.989 202.564 450.083C200.979 450.731 199.641 451.867 198.741 453.325C192.538 463.373 174.966 490.572 172.203 497.281C171.746 498.382 171.43 499.536 171.262 500.716C171.18 501.105 171.117 501.498 171.074 501.894C170.007 512.898 180.92 531.029 188.243 538.423Z" fill="#EAEAEA"/>
<path d="M216.987 554.576C216.987 554.576 214.508 563.33 203.493 568.362C193.991 572.703 218.708 575.186 219.259 574.22C219.81 573.255 224.56 557.279 224.56 557.279L216.987 554.576Z" fill="#3A3A3A"/>
<path d="M406.32 786.07L408.638 661.957H400.392L402.71 786.07C402.647 786.342 402.646 786.624 402.707 786.897C402.768 787.169 402.89 787.425 403.064 787.643C403.237 787.862 403.458 788.039 403.709 788.16C403.961 788.281 404.236 788.344 404.515 788.344C404.794 788.344 405.069 788.281 405.321 788.16C405.572 788.039 405.793 787.862 405.966 787.643C406.14 787.425 406.262 787.169 406.323 786.897C406.384 786.624 406.383 786.342 406.32 786.07Z" fill="#723E24"/>
<path d="M330.534 771.552L378.428 657.051L370.764 654.005L327.179 770.218C327.02 770.448 326.914 770.71 326.871 770.986C326.827 771.262 326.846 771.545 326.927 771.812C327.007 772.08 327.147 772.326 327.336 772.532C327.525 772.738 327.758 772.898 328.017 773.001C328.276 773.105 328.556 773.148 328.834 773.128C329.113 773.107 329.383 773.025 329.625 772.885C329.867 772.746 330.075 772.553 330.232 772.323C330.389 772.092 330.492 771.828 330.534 771.552Z" fill="#723E24"/>
<path d="M478.498 771.552L430.602 657.051L438.267 654.005L481.852 770.217C482.011 770.446 482.117 770.709 482.161 770.985C482.205 771.261 482.186 771.544 482.106 771.812C482.025 772.079 481.885 772.326 481.697 772.532C481.508 772.738 481.275 772.898 481.015 773.002C480.756 773.105 480.476 773.148 480.198 773.128C479.919 773.108 479.649 773.025 479.407 772.886C479.165 772.746 478.957 772.554 478.8 772.323C478.642 772.092 478.539 771.828 478.498 771.552Z" fill="#723E24"/>
<g style="mix-blend-mode:multiply" opacity="0.3">
<g style="mix-blend-mode:multiply" opacity="0.3">
<path d="M369.433 657.555L374.31 659.493L329.292 772.91C329.856 772.621 330.297 772.139 330.535 771.551L378.428 657.051L370.764 654.005L369.433 657.555Z" fill="black"/>
</g>
<g style="mix-blend-mode:multiply" opacity="0.3">
<path d="M400.453 665.224H406.598L404.299 788.321C404.37 788.336 404.443 788.345 404.516 788.349C405.05 788.27 405.533 787.99 405.869 787.567C406.204 787.143 406.365 786.608 406.32 786.07L408.638 661.957H400.392L400.453 665.224Z" fill="black"/>
</g>
<g style="mix-blend-mode:multiply" opacity="0.3">
<path d="M481.851 770.218L438.266 654.006L430.601 657.052L431.483 659.157L436.225 657.273L479.56 772.818C479.771 772.96 480.013 773.052 480.265 773.084C480.517 773.117 480.774 773.09 481.014 773.006C481.482 772.735 481.829 772.296 481.985 771.778C482.14 771.26 482.093 770.702 481.851 770.218Z" fill="black"/>
</g>
</g>
<path d="M464.55 619.489C464.55 667.091 437.671 678.49 404.515 678.49C371.359 678.49 344.48 667.093 344.48 619.489C344.48 571.886 371.359 525.882 404.515 525.882C437.671 525.882 464.55 571.887 464.55 619.489Z" fill="#E8F6F7"/>
<path d="M409.336 667.773C376.179 667.773 349.301 656.377 349.301 608.773C349.312 592.771 352.268 576.909 358.022 561.98C349.555 578.419 344.481 598.807 344.481 619.49C344.481 667.092 371.36 678.491 404.516 678.491C430.511 678.491 452.645 671.481 460.994 645.514C450.533 662.759 431.316 667.773 409.336 667.773Z" fill="#D0E0E2"/>
<path d="M375.734 607.018C375.734 607.018 368.02 623.472 366.45 634.468C364.156 650.521 367.545 657.475 388.031 658.115C408.517 658.756 414.489 654.759 424.258 654.759C434.027 654.759 445.381 636.218 432.801 614.202L375.734 607.018Z" fill="#09424C"/>
<path d="M384.533 741.819L384.157 748.046C384.157 748.046 378.103 765.903 377.805 770.407C377.284 778.26 380.747 787.05 384.113 787C387.951 786.944 393.239 782.02 395.596 772.18C397.196 765.516 394.607 752.465 395.527 749.402C396.447 746.339 398.303 740.401 398.303 740.401L384.533 741.819Z" fill="#FFE1BD"/>
<path d="M396.078 768.354C393.425 771.035 388.029 776.676 385.887 776.568C383.664 776.456 379.772 769.617 378.476 766.788C378.163 767.975 377.939 769.183 377.807 770.404C377.286 778.256 380.749 787.046 384.115 786.997C387.953 786.94 393.241 782.016 395.598 772.176C395.873 770.919 396.034 769.64 396.078 768.354Z" fill="#8C4200"/>
<path d="M398.001 744.85C398.001 744.85 422.478 667.476 425.533 657.956C428.589 648.437 431.054 630.336 416.886 627.179C404.649 624.452 399.517 642.72 397.278 653.973C395.04 665.226 383.767 740.327 383.767 740.327C383.767 740.327 382.437 744.55 389.743 745.759C397.049 746.967 398.001 744.85 398.001 744.85Z" fill="#0C5A71"/>
<g style="mix-blend-mode:multiply" opacity="0.1">
<g style="mix-blend-mode:multiply" opacity="0.1">
<path d="M412.584 627.1C407.269 634.375 404.573 647.947 403.068 655.503C400.83 666.753 389.671 743.393 389.671 743.393C389.671 743.393 391.552 744.358 395.623 746.181C394.975 746.134 394.325 746.132 393.678 746.174C385.801 746.739 383.881 741.865 383.881 741.865C383.881 741.865 395.041 665.224 397.279 653.976C399.235 644.147 403.401 628.956 412.584 627.1Z" fill="black"/>
</g>
</g>
<path d="M353.839 738.839L353.025 745.023C353.025 745.023 345.718 762.404 345.097 766.873C344.021 774.668 346.85 783.683 350.211 783.873C354.043 784.09 359.668 779.555 362.717 769.908C364.787 763.374 363.13 750.172 364.267 747.182C365.403 744.191 367.675 738.406 367.675 738.406L353.839 738.839Z" fill="#FFE1BD"/>
<path d="M363.47 766.132C360.634 768.617 354.85 773.86 352.722 773.6C350.513 773.33 347.112 766.231 346.025 763.317C345.627 764.478 345.317 765.666 345.097 766.873C344.021 774.669 346.85 783.683 350.211 783.873C354.043 784.09 359.668 779.555 362.717 769.908C363.082 768.675 363.334 767.411 363.47 766.132Z" fill="#8C4200"/>
<path d="M367.058 742.824C367.058 742.824 396.969 667.388 400.694 658.111C404.418 648.833 408.162 630.954 394.254 626.795C382.242 623.204 375.824 641.064 372.793 652.126C369.762 663.188 353.182 737.299 353.182 737.299C353.182 737.299 351.555 741.417 358.757 743.139C365.96 744.86 367.058 742.824 367.058 742.824Z" fill="#0C5A71"/>
<g style="mix-blend-mode:multiply" opacity="0.1">
<g style="mix-blend-mode:multiply" opacity="0.1">
<path d="M389.972 626.406C384.153 633.282 380.5 646.63 378.462 654.062C375.43 665.123 358.856 740.774 358.856 740.774C358.856 740.774 360.663 741.871 364.594 743.977C363.952 743.885 363.304 743.836 362.654 743.832C354.757 743.832 353.188 738.84 353.188 738.84C353.188 738.84 369.763 663.188 372.795 652.127C375.442 642.462 380.677 627.608 389.972 626.406Z" fill="black"/>
</g>
</g>
<path d="M388.932 450.57C388.932 450.57 391.643 438.914 411.049 442.659C429.572 446.232 428.404 472.103 430.559 479.14C432.465 484.773 434.676 490.297 437.183 495.689C437.266 495.869 437.31 496.064 437.312 496.262C437.314 496.46 437.275 496.657 437.196 496.839C437.118 497.021 437.002 497.184 436.856 497.318C436.71 497.452 436.538 497.554 436.351 497.618C429.505 499.896 400.442 508.431 380.621 496.527C378.854 495.502 377.467 493.929 376.67 492.046C376.297 491.173 376.115 490.229 376.136 489.279C376.27 486.178 378.017 482.404 376.675 473.362C375.332 464.32 376.942 450.3 388.932 450.57Z" fill="#0B0B3A"/>
<path d="M383.229 475.566C382.43 476.754 381.878 478.091 381.608 479.497C381.338 480.903 381.355 482.35 381.658 483.749C381.793 485.104 382.425 486.36 383.431 487.274C384.438 488.189 385.748 488.697 387.107 488.701L387.721 483.615L386.373 474.667L383.229 475.566Z" fill="#FFE1BD"/>
<path d="M426.567 475.566C427.367 476.754 427.919 478.091 428.189 479.497C428.459 480.903 428.442 482.35 428.139 483.749C428.005 485.104 427.373 486.36 426.366 487.275C425.359 488.189 424.049 488.697 422.69 488.701L422.077 483.615L423.424 474.667L426.567 475.566Z" fill="#FFE1BD"/>
<path d="M429.712 574.563C429.388 579.2 429.5 583.856 430.046 588.472C430.611 594.385 432.586 616.046 432.586 616.046C428.603 617.506 424.499 618.611 420.322 619.348C409.922 621.333 392.01 616.003 375.393 610.348C375.393 610.348 381.493 595.346 381.58 583.001C381.602 581.318 381.569 579.581 381.472 577.8C381.078 573.981 380.485 570.185 379.694 566.427C379.521 565.489 379.349 564.518 379.176 563.514C378.552 559.899 377.926 555.929 377.483 551.883C377.011 547.859 376.81 543.807 376.88 539.756C375.375 528.901 378.691 518.219 378.691 518.219C378.691 518.219 392.388 512.49 398.176 511.713C398.176 511.713 408.436 509.358 415.646 511.756C425.076 514.885 430.238 516.708 434.474 519.028C434.926 519.277 437.672 527.326 436.468 534.414C434.7 544.805 432.093 559.058 430.692 567.625C430.132 571.046 429.766 573.561 429.712 574.563Z" fill="#FFD04D"/>
<path opacity="0.39" d="M432.589 618.584C428.485 618.231 424.352 618.489 420.324 619.348C417.436 611.892 418.343 584.815 418.343 584.815C410.26 583.467 397.964 578.611 397.964 578.611C394.73 580.144 384.729 582.334 381.582 583.003C381.604 581.32 381.571 579.583 381.474 577.802C381.08 573.983 380.487 570.187 379.696 566.429C383.479 563.785 390.505 569.623 390.505 569.623L425.984 564.045C427.674 565.072 429.252 566.271 430.694 567.625C430.129 571.045 429.767 573.558 429.713 574.562C429.389 579.199 429.5 583.855 430.047 588.471C430.606 594.385 432.589 618.584 432.589 618.584Z" fill="#CE9006"/>
<path d="M425.034 469.718C425.034 474.93 423.989 487.049 420.723 495.074C418.935 499.637 415.712 503.492 411.541 506.058C411.498 508.141 411.455 510.882 412.91 511.109C413.331 512.037 413.859 512.274 413.578 513.731C412.597 518.911 406.573 524.64 405.096 526.074C403.619 527.509 402.693 526.074 402.693 526.074C400.975 524.087 399.499 521.903 398.295 519.568C397.551 518.165 396.97 516.892 396.602 515.996C396.334 515.327 396.232 514.603 396.303 513.885C396.374 513.168 396.617 512.478 397.011 511.874C398.611 511.68 398.024 508.249 397.895 506.412C394.813 504.211 391.903 500.445 389.736 496.021C385.393 487.141 385.156 475.855 385.156 469.716C385.156 464.421 387.257 459.344 390.997 455.6C394.736 451.857 399.808 449.754 405.096 449.755C410.384 449.755 415.456 451.859 419.195 455.602C422.934 459.346 425.034 464.424 425.034 469.718Z" fill="#FFE1BD"/>
<path d="M411.272 506.156C410.097 506.588 405.301 508.455 404.375 510.472C403.33 512.792 402.737 516.546 401.756 517.604C400.724 518.453 399.554 519.117 398.297 519.568C397.552 518.165 396.971 516.892 396.603 515.996C396.336 515.327 396.233 514.603 396.304 513.885C396.375 513.168 396.618 512.478 397.012 511.875C398.612 511.681 398.026 508.249 397.896 506.412C399.9 507.209 402.042 507.601 404.199 507.566C406.596 507.327 408.965 506.855 411.272 506.156Z" fill="#E8C5A0"/>
<path d="M418.559 558.952C419.939 558.675 421.333 558.473 422.735 558.345C423.745 558.345 420.853 567.415 420.853 567.415C420.23 566.768 419.436 566.31 418.563 566.097C417.318 565.894 417.789 559.05 417.789 559.05L418.559 558.952Z" fill="#FFE1BD"/>
<path d="M434.479 519.025C434.479 519.025 443.496 523.665 442.957 530.679C442.417 537.693 431.865 576.002 430.048 581.042C428.232 586.082 382.245 570.792 382.245 570.792C382.245 570.792 383.683 564.635 384.939 562.947C384.939 562.947 416.373 566.296 420.5 567.915C420.5 567.915 426.877 537.522 428.853 532.128C430.828 526.734 434.479 519.025 434.479 519.025Z" fill="#D69507"/>
<path d="M419.194 566.741C414.419 569.439 378.111 584.542 374.748 583.605C371.386 582.668 367.333 579.689 366.794 570.787C366.324 562.889 370.889 531.76 371.956 524.553C372.12 523.413 372.59 522.339 373.315 521.445C373.534 521.208 373.768 520.985 374.015 520.776C375.444 519.704 377.019 518.843 378.692 518.219C379.145 519.244 379.026 523.452 379.587 530.84C379.652 531.678 379.597 532.521 379.425 533.343C378.52 537.649 377.42 543.259 377.485 546.238C377.486 546.418 377.497 546.598 377.518 546.777C377.83 549.906 380.152 555.841 380.191 558.344C380.266 564.257 380.244 565.088 380.234 565.185C381.538 564.969 386.067 564.16 391.594 563.178C403.007 561.128 418.656 558.311 418.656 558.311C420.012 561.206 419.194 566.741 419.194 566.741Z" fill="#EFAF11"/>
<path d="M381.118 477.545C381.118 477.545 387.426 476.478 391.066 471.744C392.969 469.052 394.457 466.089 395.483 462.955C395.483 462.955 397.688 467.698 405.097 471.07C412.365 474.414 420.11 476.599 428.052 477.545C428.052 477.545 428.542 460.28 422.884 453.267C417.227 446.254 402.542 442.208 392.573 448.275C382.604 454.343 381.118 477.545 381.118 477.545Z" fill="#0B0B3A"/>
<path d="M397.077 511.747C397.077 511.747 398.112 521.053 402.693 526.077C402.693 526.077 401.173 525.575 398.352 528.977C398.265 529.081 398.151 529.159 398.022 529.202C397.894 529.245 397.756 529.251 397.624 529.22C397.492 529.189 397.371 529.122 397.276 529.026C397.18 528.93 397.113 528.809 397.082 528.677C396.206 524.893 393.336 515.63 394.932 512.409C395.202 512.122 395.541 511.91 395.917 511.794C396.293 511.678 396.693 511.662 397.077 511.747Z" fill="#CE9006"/>
<path d="M412.769 511.062C412.02 513.779 411.085 516.441 409.97 519.029C408.661 521.7 406.939 524.148 404.868 526.281C404.868 526.281 408.396 526.936 410.029 529.262C410.089 529.347 410.171 529.414 410.266 529.455C410.361 529.497 410.465 529.512 410.568 529.499C410.671 529.486 410.769 529.446 410.85 529.382C410.932 529.318 410.995 529.233 411.033 529.136C412.093 527.09 412.698 525.236 413.878 521.021C415.223 516.218 415.277 513.58 415.12 511.594C414.835 511.267 414.454 511.039 414.031 510.943C413.609 510.848 413.167 510.889 412.769 511.062Z" fill="#CE9006"/>
<path opacity="0.39" d="M377.658 567.68C373.98 564.539 378.369 558.544 378.057 556.447C377.745 554.351 377.755 553.999 377.486 551.884C377.249 550.19 377.26 548.471 377.519 546.78C377.831 549.909 380.153 555.844 380.192 558.347C380.267 564.26 380.245 565.091 380.235 565.188C381.539 564.972 393.716 562.788 399.245 561.806C400.537 562.488 380.134 569.795 377.658 567.68Z" fill="#CE9006"/>
<path d="M384.131 564.508L380.239 565.193C377.814 564.982 375.379 564.914 372.946 564.988C371.045 565.156 369.171 565.556 367.367 566.18C367.264 566.204 367.156 566.206 367.052 566.186C366.948 566.166 366.849 566.125 366.761 566.064C366.674 566.004 366.6 565.926 366.544 565.836C366.489 565.746 366.452 565.645 366.438 565.539C366.04 564.249 365.881 562.896 365.967 561.549C366.127 560.225 366.469 558.93 366.982 557.7C367.07 557.501 367.198 557.322 367.358 557.175C367.518 557.028 367.707 556.916 367.913 556.846C369.359 556.335 371.08 556.39 373.6 556.605C374.717 556.628 375.813 556.906 376.805 557.418C377.798 557.93 378.66 558.662 379.326 559.559L380.925 561.465C381.445 562.073 382.152 562.491 382.935 562.654L384.86 563.056C384.86 563.056 384.646 563.398 384.464 563.755C384.338 563.999 384.227 564.251 384.131 564.508Z" fill="#FFE1BD"/>
<path d="M305.999 602.384L307.802 567.513H290.754L292.556 602.384H305.999Z" fill="#FAFEFF"/>
<path d="M294.086 600.746L292.503 569.151H306.052L304.469 600.746H294.086Z" fill="#B4EFF9"/>
<path d="M293.023 576.878L294.086 600.746H304.469L305.533 576.878H293.023Z" fill="#75D9EF"/>
<g opacity="0.5">
<path opacity="0.5" d="M295.182 597.337H298.016L296.341 572.443C295.998 569.435 293.189 569.271 293.632 572.7L295.182 597.337Z" fill="white"/>
</g>
<path d="M330.206 607.154H251.215V612.106H330.206V607.154Z" fill="#282C2D"/>
<path d="M323.533 602.232H251.981V606.205H323.533V602.232Z" fill="#D6D6D6"/>
<path d="M327.253 605.259H248.262V607.155H327.253V605.259Z" fill="#525252"/>
<path d="M322.064 603.756H253.451V604.166H322.064V603.756Z" fill="#A5A5AF"/>
<path d="M322.064 604.645H253.451V605.054H322.064V604.645Z" fill="#A5A5AF"/>
<path d="M322.064 602.828H253.451V603.237H322.064V602.828Z" fill="#A5A5AF"/>
<path d="M640.421 603.071H607.8V611.174H640.421V603.071Z" fill="#F1F2F2"/>
<path d="M640.423 603.071H630.128V611.174H640.423V603.071Z" fill="#A7A9AC"/>
<path d="M638.407 603.071H605.786V604.001H638.407V603.071Z" fill="#A7A9AC"/>
<path d="M638.407 610.244H605.786V611.174H638.407V610.244Z" fill="#A7A9AC"/>
<path d="M673.582 603.071H631.013V611.174H673.582V603.071Z" fill="#383838"/>
<path d="M658.363 604.955H635.589V609.291H658.363V604.955Z" fill="#A7A9AC"/>
<path d="M657.136 605.188H636.815V609.056H657.136V605.188Z" fill="#E6E7E8"/>
<path d="M667.642 609.297C669.111 609.297 670.302 608.325 670.302 607.126C670.302 605.927 669.111 604.955 667.642 604.955C666.173 604.955 664.981 605.927 664.981 607.126C664.981 608.325 666.173 609.297 667.642 609.297Z" fill="#A7A9AC"/>
<path d="M628.346 604.546H609.741V605.365H628.346V604.546Z" fill="#A7A9AC"/>
<path d="M628.346 607.701H609.741V608.519H628.346V607.701Z" fill="#A7A9AC"/>
<path d="M628.346 608.881H609.741V609.7H628.346V608.881Z" fill="#A7A9AC"/>
<path d="M627.166 606.358H615.574V607.176H627.166V606.358Z" fill="#A7A9AC"/>
<path d="M614.643 606.358H609.741V607.176H614.643V606.358Z" fill="#A7A9AC"/>
<path d="M634.279 595.159H601.658V603.263H634.279V595.159Z" fill="#F1F2F2"/>
<path d="M634.279 595.159H623.984V603.263H634.279V595.159Z" fill="#A7A9AC"/>
<path d="M632.265 595.159H599.644V596.091H632.265V595.159Z" fill="#A7A9AC"/>
<path d="M632.265 602.332H599.644V603.263H632.265V602.332Z" fill="#A7A9AC"/>
<path d="M667.439 595.159H624.871V603.263H667.439V595.159Z" fill="#58595B"/>
<path d="M652.221 597.044H629.447V601.379H652.221V597.044Z" fill="#A7A9AC"/>
<path d="M650.994 597.277H630.673V601.146H650.994V597.277Z" fill="#E6E7E8"/>
<path d="M661.499 601.387C662.969 601.387 664.16 600.415 664.16 599.216C664.16 598.017 662.969 597.045 661.499 597.045C660.03 597.045 658.839 598.017 658.839 599.216C658.839 600.415 660.03 601.387 661.499 601.387Z" fill="#A7A9AC"/>
<path d="M622.205 596.634H603.6V597.452H622.205V596.634Z" fill="#A7A9AC"/>
<path d="M622.205 599.789H603.6V600.608H622.205V599.789Z" fill="#A7A9AC"/>
<path d="M622.205 600.97H603.6V601.79H622.205V600.97Z" fill="#A7A9AC"/>
<path d="M621.023 598.447H609.431V599.266H621.023V598.447Z" fill="#A7A9AC"/>
<path d="M608.501 598.447H603.6V599.266H608.501V598.447Z" fill="#A7A9AC"/>
<path d="M640.421 587.248H607.8V595.352H640.421V587.248Z" fill="#F1F2F2"/>
<path d="M640.423 587.248H630.128V595.352H640.423V587.248Z" fill="#A7A9AC"/>
<path d="M638.407 587.248H605.786V588.179H638.407V587.248Z" fill="#A7A9AC"/>
<path d="M638.407 594.422H605.786V595.352H638.407V594.422Z" fill="#A7A9AC"/>
<path d="M673.582 587.248H631.013V595.352H673.582V587.248Z" fill="#594A42"/>
<path d="M658.363 589.133H635.589V593.468H658.363V589.133Z" fill="#A7A9AC"/>
<path d="M657.136 589.367H636.815V593.235H657.136V589.367Z" fill="#E6E7E8"/>
<path d="M667.642 593.476C669.111 593.476 670.302 592.504 670.302 591.304C670.302 590.104 669.111 589.132 667.642 589.132C666.173 589.132 664.981 590.104 664.981 591.304C664.981 592.504 666.173 593.476 667.642 593.476Z" fill="#A7A9AC"/>
<path d="M628.346 588.724H609.741V589.543H628.346V588.724Z" fill="#A7A9AC"/>
<path d="M628.346 591.879H609.741V592.698H628.346V591.879Z" fill="#A7A9AC"/>
<path d="M628.346 593.059H609.741V593.878H628.346V593.059Z" fill="#A7A9AC"/>
<path d="M627.166 590.535H615.574V591.354H627.166V590.535Z" fill="#A7A9AC"/>
<path d="M614.643 590.535H609.741V591.354H614.643V590.535Z" fill="#A7A9AC"/>
<path d="M676.399 610.957L678.203 584.132H661.154L662.957 610.957H676.399Z" fill="#FAFEFF"/>
<path d="M664.487 609.319L662.903 585.77H676.453L674.87 609.319H664.487Z" fill="#B4EFF9"/>
<path d="M663.422 593.498L664.486 609.319H674.87L675.934 593.498H663.422Z" fill="#75D9EF"/>
<g opacity="0.5">
<path opacity="0.5" d="M665.582 605.908H668.415L666.741 589.059C666.397 586.051 663.588 585.887 664.031 589.318L665.582 605.908Z" fill="white"/>
</g>
<path d="M332.093 583.708C332.449 586.642 333.591 589.426 335.4 591.762C337.208 594.099 339.615 595.902 342.364 596.98C342.384 596.986 342.406 596.984 342.424 596.975C342.443 596.966 342.458 596.95 342.466 596.931C342.474 596.912 342.475 596.89 342.468 596.871C342.461 596.851 342.447 596.834 342.429 596.824C337.011 594.27 332.995 589.803 332.237 583.707C332.226 583.613 332.082 583.613 332.093 583.707V583.708Z" fill="#81553A"/>
<path d="M341.89 574.704C343.446 578.263 343.926 582.202 343.27 586.032C342.614 589.862 340.851 593.415 338.198 596.253C338.182 596.269 338.172 596.292 338.172 596.316C338.172 596.339 338.182 596.362 338.198 596.379C338.215 596.396 338.238 596.405 338.261 596.405C338.285 596.405 338.308 596.396 338.325 596.379C341.055 593.549 342.867 589.958 343.524 586.079C344.18 582.199 343.65 578.211 342.003 574.639C341.969 574.561 341.857 574.628 341.89 574.705V574.704Z" fill="#81553A"/>
<path d="M357.545 578.066C360.461 581.778 358.824 586.055 356.98 589.839C355.352 593.179 352.036 594.749 348.806 596.158C348.78 596.172 348.76 596.195 348.751 596.223C348.741 596.251 348.743 596.282 348.754 596.309C348.766 596.336 348.787 596.358 348.814 596.371C348.841 596.383 348.872 596.385 348.9 596.376C353.044 594.903 356.152 592.595 357.863 588.5C359.391 584.846 360.361 581.274 357.687 577.93C357.607 577.83 357.47 577.971 357.547 578.069L357.545 578.066Z" fill="#81553A"/>
<path d="M355.856 589.896C357.214 590.109 358.604 589.947 359.876 589.426C361.149 588.905 362.254 588.045 363.073 586.94C363.08 586.922 363.081 586.901 363.075 586.882C363.07 586.863 363.058 586.846 363.042 586.834C363.026 586.822 363.007 586.815 362.987 586.814C362.967 586.814 362.948 586.82 362.931 586.831C362.072 587.846 360.985 588.642 359.758 589.153C358.531 589.664 357.2 589.876 355.876 589.771C355.86 589.771 355.846 589.777 355.835 589.787C355.823 589.797 355.816 589.811 355.814 589.826C355.812 589.841 355.815 589.856 355.824 589.869C355.832 589.882 355.844 589.891 355.859 589.896H355.856Z" fill="#81553A"/>
<path d="M348.306 575.967C347.853 579.97 346.758 586.859 342.712 588.833C342.692 588.845 342.677 588.863 342.67 588.885C342.663 588.907 342.663 588.931 342.672 588.952C342.681 588.973 342.698 588.99 342.718 589C342.739 589.01 342.763 589.012 342.785 589.006C347.054 587.419 348.08 579.776 348.457 575.967C348.466 575.872 348.318 575.872 348.307 575.967H348.306Z" fill="#81553A"/>
<path d="M324.735 581.591C325.031 583.837 326.155 585.89 327.887 587.348C329.62 588.805 331.834 589.561 334.095 589.465C334.111 589.465 334.127 589.459 334.138 589.448C334.15 589.436 334.156 589.421 334.156 589.404C334.156 589.388 334.15 589.372 334.138 589.361C334.127 589.35 334.111 589.343 334.095 589.343C331.882 589.361 329.735 588.586 328.042 587.158C326.35 585.729 325.223 583.742 324.867 581.555C324.852 581.468 324.723 581.506 324.736 581.591H324.735Z" fill="#81553A"/>
<path d="M362.471 592.428H328.653C328.653 592.428 325.911 599.04 325.911 600.674C325.911 602.308 329.647 605.652 333.669 605.652H357.456C361.478 605.652 365.214 602.307 365.214 600.674C365.214 599.04 362.471 592.428 362.471 592.428Z" fill="#FFD04D"/>
<path d="M358.876 607.353H332.248L333.179 605.652H357.945L358.876 607.353Z" fill="#EFAF11"/>
<path d="M336.191 600.674C336.191 599.04 338.932 592.428 338.932 592.428H328.653C328.653 592.428 325.911 599.04 325.911 600.674C325.911 602.308 329.647 605.652 333.669 605.652H343.948C339.923 605.652 336.191 602.307 336.191 600.674Z" fill="#EFAF11"/>
<g style="mix-blend-mode:multiply" opacity="0.55">
<path d="M333.179 605.652L332.249 607.353H342.529L343.459 605.652H333.179Z" fill="#EFAF11"/>
</g>
<path d="M344.297 580.121C345.066 579.519 348.096 578.444 350.12 579.723C351.316 580.441 352.323 581.437 353.055 582.626C353.787 583.815 354.223 585.163 354.327 586.556C352.495 586.979 350.615 587.158 348.737 587.091C342.406 586.594 342.871 581.237 344.297 580.121Z" fill="#709E3E"/>
<path d="M359.708 576.748C360.219 576.309 362.273 575.471 363.708 576.288C364.556 576.744 365.281 577.398 365.824 578.195C366.366 578.991 366.71 579.906 366.825 580.862C365.576 581.212 364.287 581.396 362.99 581.41C358.612 581.269 358.761 577.564 359.708 576.748Z" fill="#709E3E"/>
<path d="M358.319 574.562C357.881 574.359 357.398 574.271 356.916 574.307C356.435 574.343 355.97 574.501 355.566 574.766C355.054 575.188 354.65 575.727 354.388 576.338C354.126 576.948 354.014 577.612 354.061 578.275C354.947 578.351 355.839 578.31 356.715 578.152C359.642 577.491 359.063 574.993 358.319 574.562Z" fill="#709E3E"/>
<path d="M328.245 577.708C327.577 577.394 326.832 577.281 326.1 577.382C325.683 577.461 325.288 577.63 324.943 577.878C324.598 578.126 324.312 578.446 324.104 578.817C323.896 579.188 323.772 579.599 323.741 580.023C323.709 580.447 323.77 580.873 323.921 581.27C324.146 581.667 324.472 581.998 324.866 582.23C325.26 582.461 325.707 582.585 326.163 582.589C327.892 582.806 329.962 581.452 331.684 580.894C330.915 579.485 329.707 578.367 328.245 577.708Z" fill="#709E3E"/>
<path d="M332.736 582.167C332.379 582.35 332.075 582.622 331.854 582.958C331.633 583.293 331.503 583.681 331.477 584.082C331.572 584.569 331.837 585.007 332.225 585.317C332.612 585.627 333.096 585.79 333.592 585.777C334.583 585.824 338.12 584.856 339.628 585.631C337.006 580.655 334.354 581.142 332.736 582.167Z" fill="#709E3E"/>
<path d="M362.559 583.902C362.25 584.023 361.975 584.217 361.758 584.467C361.541 584.718 361.388 585.018 361.312 585.341C361.276 585.736 361.384 586.131 361.615 586.452C361.847 586.774 362.187 587.001 362.573 587.092C363.29 587.28 366.043 586.974 367.015 587.853C367.017 584.081 363.917 583.269 362.559 583.902Z" fill="#709E3E"/>
<path d="M343.746 588.766C344.552 588.533 347.603 588.267 348.865 589.903C351.17 592.887 349.188 595.46 348.933 596.37C347.312 596.13 345.728 595.684 344.219 595.045C339.214 592.679 341.004 589.186 343.746 588.766Z" fill="#709E3E"/>
<path d="M332.7 589.299C331.965 589.052 329.479 589.088 328.45 590.668C327.827 591.624 327.43 592.709 327.289 593.841C327.147 594.973 327.265 596.123 327.633 597.203C329.058 597.005 330.448 596.603 331.76 596.009C336.085 593.794 334.062 589.757 332.7 589.299Z" fill="#709E3E"/>
<path d="M340.761 574.397C341.142 574.455 341.502 574.606 341.81 574.836C342.119 575.066 342.367 575.368 342.532 575.715C342.666 576.156 342.637 576.631 342.449 577.052C342.262 577.474 341.929 577.813 341.512 578.009C340.738 578.397 337.519 578.741 336.62 579.976C336.739 574.496 339.058 574.02 340.761 574.397Z" fill="#709E3E"/>
<g opacity="0.62">
<path opacity="0.62" d="M323.774 579.74C326.452 579.532 329.139 580.001 331.59 581.102C331.631 581.12 331.667 581.06 331.626 581.041C329.176 579.894 326.465 579.425 323.774 579.681C323.737 579.681 323.736 579.743 323.774 579.74Z" fill="#93BC6C"/>
<path opacity="0.62" d="M324.708 579.116C325.694 578.805 326.732 578.698 327.76 578.804C328.788 578.909 329.784 579.224 330.686 579.728C330.694 579.733 330.703 579.734 330.712 579.731C330.72 579.728 330.727 579.723 330.732 579.715C330.736 579.707 330.738 579.698 330.736 579.689C330.734 579.681 330.728 579.673 330.721 579.668C329.827 579.117 328.82 578.776 327.776 578.672C326.732 578.567 325.678 578.701 324.693 579.064C324.687 579.066 324.683 579.071 324.68 579.077C324.678 579.083 324.677 579.089 324.679 579.095C324.68 579.101 324.684 579.107 324.689 579.11C324.695 579.114 324.701 579.116 324.707 579.115L324.708 579.116Z" fill="#93BC6C"/>
<path opacity="0.62" d="M324.261 580.085C325.108 581.955 328.169 581.699 329.782 581.273C329.795 581.269 329.807 581.26 329.813 581.248C329.82 581.236 329.822 581.222 329.818 581.208C329.815 581.195 329.806 581.183 329.793 581.176C329.781 581.169 329.767 581.168 329.753 581.171C328.186 581.559 325.157 581.855 324.316 580.053C324.298 580.016 324.244 580.049 324.26 580.085H324.261Z" fill="#93BC6C"/>
<path opacity="0.62" d="M332.234 582.904C333.468 582.372 334.855 582.317 336.126 582.75C337.398 583.183 338.463 584.074 339.116 585.249C339.12 585.255 339.126 585.26 339.134 585.262C339.141 585.264 339.149 585.263 339.156 585.26C339.163 585.256 339.168 585.249 339.17 585.242C339.172 585.234 339.171 585.226 339.167 585.22C338.53 584.009 337.455 583.089 336.161 582.649C334.867 582.208 333.454 582.281 332.213 582.852C332.206 582.855 332.201 582.861 332.199 582.868C332.196 582.875 332.196 582.882 332.199 582.889C332.202 582.896 332.207 582.901 332.214 582.904C332.221 582.907 332.228 582.908 332.235 582.905L332.234 582.904Z" fill="#93BC6C"/>
<path opacity="0.62" d="M332.568 583.246C334.699 583.508 336.779 584.087 338.74 584.962C338.761 584.972 338.78 584.942 338.758 584.931C336.816 583.981 334.719 583.39 332.567 583.187C332.529 583.187 332.53 583.243 332.567 583.246H332.568Z" fill="#93BC6C"/>
<path opacity="0.62" d="M331.885 583.825C333.877 584.983 336.175 585.505 338.471 585.322C338.526 585.318 338.527 585.228 338.471 585.235C336.191 585.371 333.918 584.869 331.906 583.786C331.901 583.784 331.895 583.784 331.89 583.786C331.885 583.787 331.881 583.791 331.878 583.796C331.875 583.8 331.874 583.806 331.875 583.811C331.876 583.816 331.879 583.821 331.884 583.825H331.885Z" fill="#93BC6C"/>
<path opacity="0.62" d="M336.819 579.736C337.969 577.866 339.599 576.337 341.537 575.309C341.549 575.303 341.557 575.291 341.561 575.279C341.564 575.266 341.562 575.252 341.555 575.241C341.549 575.229 341.538 575.221 341.525 575.217C341.512 575.214 341.498 575.216 341.487 575.223C339.488 576.192 337.838 577.759 336.765 579.706C336.763 579.709 336.762 579.713 336.761 579.717C336.76 579.721 336.761 579.725 336.762 579.729C336.764 579.737 336.769 579.744 336.776 579.748C336.783 579.752 336.791 579.753 336.799 579.751C336.807 579.749 336.814 579.744 336.818 579.737L336.819 579.736Z" fill="#93BC6C"/>
<path opacity="0.62" d="M338.834 578.782C340.414 578.172 341.72 577.011 342.512 575.513C342.516 575.503 342.517 575.493 342.514 575.484C342.511 575.474 342.504 575.466 342.495 575.461C342.487 575.456 342.476 575.454 342.467 575.456C342.457 575.458 342.448 575.464 342.442 575.472C341.62 576.924 340.348 578.068 338.819 578.732C338.788 578.745 338.802 578.796 338.834 578.783V578.782Z" fill="#93BC6C"/>
<path opacity="0.62" d="M336.868 578.405C337.134 577.418 337.705 576.54 338.499 575.897C339.293 575.255 340.27 574.88 341.29 574.826C341.3 574.825 341.31 574.819 341.317 574.811C341.324 574.803 341.328 574.793 341.328 574.782C341.328 574.772 341.324 574.761 341.317 574.753C341.31 574.745 341.3 574.74 341.29 574.739C340.245 574.77 339.24 575.145 338.428 575.805C337.617 576.465 337.045 577.374 336.801 578.391C336.798 578.4 336.799 578.409 336.804 578.416C336.808 578.424 336.815 578.43 336.824 578.432C336.832 578.434 336.841 578.433 336.849 578.429C336.857 578.425 336.862 578.417 336.865 578.409L336.868 578.405Z" fill="#93BC6C"/>
<path opacity="0.62" d="M354.411 578.343C355.273 576.969 356.477 575.842 357.904 575.073C357.915 575.066 357.924 575.055 357.927 575.042C357.93 575.029 357.929 575.016 357.922 575.004C357.915 574.993 357.904 574.984 357.891 574.981C357.878 574.978 357.865 574.979 357.853 574.986C356.366 575.697 355.143 576.861 354.358 578.312C354.356 578.315 354.355 578.319 354.354 578.323C354.354 578.327 354.354 578.331 354.355 578.335C354.357 578.343 354.362 578.35 354.369 578.354C354.376 578.358 354.384 578.359 354.392 578.357C354.4 578.355 354.407 578.35 354.411 578.343Z" fill="#93BC6C"/>
<path opacity="0.62" d="M355.895 577.638C357.071 577.193 358.042 576.331 358.624 575.216C358.628 575.207 358.629 575.196 358.625 575.187C358.622 575.177 358.616 575.169 358.607 575.164C358.599 575.159 358.588 575.157 358.579 575.16C358.569 575.162 358.56 575.167 358.554 575.176C357.941 576.243 357.005 577.088 355.88 577.587C355.849 577.6 355.863 577.651 355.895 577.638H355.895Z" fill="#93BC6C"/>
<path opacity="0.62" d="M354.447 577.358C354.645 576.63 355.068 575.983 355.654 575.509C356.241 575.034 356.961 574.757 357.714 574.715C357.724 574.713 357.734 574.708 357.741 574.7C357.748 574.692 357.752 574.682 357.752 574.671C357.752 574.66 357.748 574.65 357.741 574.642C357.734 574.634 357.724 574.629 357.714 574.627C356.937 574.648 356.19 574.925 355.587 575.416C354.985 575.907 354.561 576.583 354.383 577.34C354.381 577.344 354.381 577.348 354.382 577.353C354.382 577.357 354.383 577.361 354.386 577.365C354.39 577.373 354.397 577.378 354.406 577.381C354.414 577.383 354.423 577.382 354.431 577.378C354.439 577.373 354.444 577.366 354.447 577.358Z" fill="#93BC6C"/>
<path opacity="0.62" d="M327.895 596.73C329.302 594.049 331.233 591.679 333.574 589.76C333.579 589.754 333.582 589.746 333.582 589.738C333.582 589.73 333.579 589.722 333.574 589.715C333.569 589.709 333.562 589.704 333.554 589.702C333.546 589.7 333.538 589.701 333.531 589.704C331.097 591.541 329.146 593.943 327.844 596.702C327.827 596.737 327.878 596.768 327.896 596.733L327.895 596.73Z" fill="#93BC6C"/>
<path opacity="0.62" d="M327.599 596.836C327.347 595.158 327.75 593.447 328.726 592.059C329.701 590.671 331.174 589.714 332.837 589.385C332.847 589.382 332.855 589.376 332.86 589.367C332.865 589.358 332.866 589.347 332.864 589.337C332.861 589.327 332.855 589.319 332.846 589.314C332.837 589.308 332.827 589.307 332.817 589.309C331.123 589.622 329.619 590.588 328.63 591.999C327.641 593.411 327.245 595.155 327.528 596.856C327.534 596.904 327.607 596.884 327.6 596.836H327.599Z" fill="#93BC6C"/>
<path opacity="0.62" d="M328.201 596.669C329.729 596.544 331.16 595.869 332.23 594.77C333.3 593.67 333.936 592.221 334.022 590.688C334.022 590.645 333.962 590.648 333.957 590.688C333.838 592.191 333.197 593.605 332.146 594.684C331.095 595.764 329.699 596.441 328.201 596.597C328.156 596.602 328.155 596.675 328.201 596.67V596.669Z" fill="#93BC6C"/>
<path opacity="0.62" d="M342.651 589.409C343.969 589.999 345.131 590.888 346.048 592.004C346.964 593.121 347.608 594.435 347.931 595.844C347.933 595.852 347.938 595.858 347.945 595.862C347.952 595.867 347.961 595.868 347.969 595.865C347.976 595.863 347.983 595.858 347.987 595.851C347.991 595.844 347.992 595.836 347.99 595.828C347.689 594.402 347.049 593.07 346.125 591.945C345.2 590.819 344.018 589.933 342.68 589.362C342.649 589.348 342.62 589.394 342.652 589.409H342.651Z" fill="#93BC6C"/>
<path opacity="0.62" d="M343.011 589.557C345.927 589.991 349.189 591.014 349.06 594.594C349.06 594.604 349.064 594.614 349.071 594.622C349.079 594.629 349.089 594.633 349.099 594.633C349.11 594.633 349.12 594.629 349.127 594.622C349.135 594.614 349.139 594.604 349.139 594.594C349.421 590.977 345.94 589.903 343.024 589.498C342.985 589.493 342.968 589.551 343.008 589.558L343.011 589.557Z" fill="#93BC6C"/>
<path opacity="0.62" d="M342.857 590.049C342.26 592.788 344.991 594.324 347.168 595.094C347.175 595.096 347.183 595.096 347.19 595.093C347.196 595.09 347.202 595.085 347.204 595.078C347.207 595.071 347.207 595.063 347.205 595.056C347.202 595.049 347.197 595.044 347.191 595.04C345.164 594.099 342.335 592.837 342.92 590.065C342.928 590.025 342.866 590.007 342.857 590.049Z" fill="#93BC6C"/>
<path opacity="0.62" d="M344.104 581.153C344.166 585.131 349.945 586.378 353.041 586.375C353.049 586.375 353.056 586.372 353.061 586.367C353.067 586.362 353.07 586.354 353.07 586.347C353.07 586.339 353.067 586.332 353.061 586.327C353.056 586.322 353.049 586.319 353.041 586.319C349.949 586.208 344.302 585.113 344.136 581.153C344.136 581.149 344.134 581.145 344.131 581.142C344.128 581.139 344.124 581.137 344.12 581.137C344.116 581.137 344.112 581.139 344.109 581.142C344.106 581.145 344.104 581.149 344.104 581.153Z" fill="#93BC6C"/>
<path opacity="0.62" d="M344.87 581.639C347.589 583.572 350.535 585.166 353.641 586.383C353.683 586.399 353.701 586.332 353.66 586.316C350.565 585.092 347.622 583.511 344.891 581.607C344.87 581.591 344.849 581.627 344.87 581.642L344.87 581.639Z" fill="#93BC6C"/>
<path opacity="0.62" d="M344.938 581.011C348.395 581.658 351.515 583.497 353.755 586.21C353.796 586.257 353.861 586.19 353.823 586.143C351.603 583.383 348.445 581.539 344.953 580.962C344.92 580.957 344.904 581.008 344.939 581.014L344.938 581.011Z" fill="#93BC6C"/>
<path opacity="0.62" d="M345.314 580.057C349.707 579.807 353.466 581.463 353.95 586.289C353.951 586.296 353.955 586.303 353.961 586.308C353.967 586.313 353.975 586.316 353.982 586.316C353.99 586.316 353.998 586.313 354.004 586.308C354.01 586.303 354.014 586.296 354.015 586.289C354.006 585.351 353.791 584.427 353.384 583.583C352.978 582.739 352.39 581.995 351.663 581.404C349.827 579.918 347.565 579.841 345.309 580C345.272 580 345.271 580.06 345.309 580.058L345.314 580.057Z" fill="#93BC6C"/>
<path opacity="0.62" d="M359.269 577.662C359.583 580.506 363.813 581.053 366.051 580.864C366.059 580.864 366.066 580.861 366.071 580.856C366.076 580.851 366.079 580.844 366.079 580.836C366.079 580.829 366.076 580.821 366.071 580.816C366.066 580.811 366.059 580.808 366.051 580.808C363.807 580.88 359.717 580.491 359.3 577.659C359.299 577.656 359.297 577.653 359.294 577.65C359.292 577.648 359.288 577.647 359.285 577.647C359.281 577.647 359.278 577.648 359.275 577.65C359.272 577.653 359.27 577.656 359.269 577.659V577.662Z" fill="#93BC6C"/>
<path opacity="0.62" d="M359.852 577.967C361.94 579.188 364.167 580.151 366.486 580.837C366.494 580.839 366.503 580.837 366.511 580.833C366.518 580.828 366.524 580.821 366.526 580.812C366.528 580.804 366.528 580.795 366.524 580.787C366.52 580.779 366.513 580.773 366.505 580.77C364.195 580.075 361.971 579.123 359.874 577.931C359.869 577.929 359.864 577.929 359.859 577.93C359.854 577.932 359.85 577.935 359.847 577.94C359.844 577.944 359.844 577.949 359.845 577.955C359.846 577.96 359.849 577.964 359.853 577.967H359.852Z" fill="#93BC6C"/>
<path opacity="0.62" d="M359.878 577.525C362.403 577.79 364.76 578.914 366.557 580.709C366.567 580.717 366.578 580.721 366.591 580.721C366.603 580.721 366.615 580.716 366.623 580.707C366.632 580.698 366.637 580.687 366.637 580.675C366.638 580.662 366.633 580.65 366.625 580.641C364.839 578.797 362.441 577.67 359.883 577.472C359.848 577.472 359.849 577.523 359.883 577.526L359.878 577.525Z" fill="#93BC6C"/>
<path opacity="0.62" d="M360.096 576.833C363.213 576.436 366.039 577.346 366.703 580.751C366.705 580.758 366.71 580.765 366.717 580.769C366.723 580.773 366.731 580.774 366.738 580.773C366.746 580.772 366.753 580.769 366.758 580.763C366.763 580.758 366.766 580.75 366.767 580.743C366.713 580.075 366.508 579.428 366.167 578.851C365.826 578.273 365.358 577.782 364.8 577.412C363.367 576.61 361.682 576.382 360.088 576.776C360.081 576.777 360.075 576.782 360.071 576.788C360.067 576.794 360.066 576.801 360.067 576.808C360.068 576.815 360.071 576.821 360.076 576.826C360.082 576.831 360.089 576.833 360.096 576.833Z" fill="#93BC6C"/>
<path opacity="0.62" d="M361.366 585.503C361.514 585.756 361.711 585.977 361.945 586.153C362.18 586.329 362.447 586.456 362.731 586.527C363.307 586.676 363.918 586.602 364.505 586.705C365.367 586.869 366.19 587.199 366.927 587.677C366.928 587.677 366.93 587.677 366.931 587.677C366.932 587.676 366.933 587.675 366.934 587.674C366.934 587.673 366.934 587.672 366.934 587.671C366.934 587.67 366.934 587.668 366.933 587.667C366.098 587.102 365.145 586.738 364.146 586.603C363.101 586.476 362.006 586.523 361.402 585.483C361.399 585.479 361.395 585.475 361.389 585.474C361.384 585.473 361.379 585.473 361.374 585.476C361.37 585.479 361.366 585.483 361.365 585.489C361.364 585.494 361.364 585.499 361.367 585.504L361.366 585.503Z" fill="#93BC6C"/>
<path opacity="0.62" d="M361.743 584.984C362.715 584.996 363.672 585.227 364.542 585.66C365.413 586.092 366.175 586.715 366.773 587.483C366.775 587.485 366.778 587.486 366.781 587.486C366.784 587.486 366.788 587.485 366.79 587.483C366.793 587.481 366.794 587.478 366.795 587.475C366.796 587.472 366.796 587.469 366.794 587.466C366.21 586.677 365.448 586.036 364.57 585.597C363.692 585.157 362.724 584.931 361.742 584.937C361.736 584.937 361.73 584.939 361.726 584.944C361.721 584.948 361.719 584.954 361.719 584.961C361.719 584.967 361.721 584.973 361.726 584.977C361.73 584.982 361.736 584.984 361.742 584.984H361.743Z" fill="#93BC6C"/>
<path opacity="0.62" d="M362.33 584.643C362.775 584.487 363.247 584.426 363.717 584.464C364.187 584.503 364.643 584.64 365.057 584.866C365.47 585.093 365.831 585.405 366.116 585.78C366.402 586.156 366.605 586.587 366.712 587.047C366.714 587.054 366.719 587.059 366.725 587.063C366.731 587.066 366.738 587.067 366.745 587.065C366.751 587.063 366.757 587.059 366.761 587.053C366.764 587.047 366.765 587.039 366.763 587.033C366.661 586.563 366.459 586.12 366.171 585.735C365.883 585.35 365.516 585.031 365.095 584.799C364.673 584.568 364.207 584.43 363.728 584.395C363.249 584.359 362.768 584.427 362.317 584.593C362.286 584.604 362.299 584.654 362.331 584.643H362.33Z" fill="#93BC6C"/>
</g>
<path d="M325.224 583.335C324.525 582.733 321.769 581.657 319.928 582.937C318.775 583.762 317.809 584.822 317.094 586.046C316.378 587.271 315.93 588.633 315.777 590.044C317.56 590.377 319.379 590.465 321.186 590.306C326.94 589.807 326.52 584.451 325.224 583.335Z" fill="#93BC6C"/>
<path d="M357.166 577.319C356.579 576.912 354.368 576.304 353.052 577.438C352.256 578.124 351.625 578.982 351.209 579.948C350.793 580.914 350.602 581.963 350.65 583.014C351.964 583.204 353.298 583.204 354.612 583.014C359.011 582.173 358.257 578.075 357.166 577.319Z" fill="#93BC6C"/>
<path d="M343.294 570.974C342.985 571.095 342.71 571.289 342.492 571.54C342.275 571.791 342.122 572.091 342.046 572.414C342.011 572.809 342.118 573.203 342.35 573.525C342.582 573.847 342.921 574.074 343.307 574.165C344.024 574.353 346.777 574.047 347.75 574.926C347.751 571.153 344.652 570.341 343.294 570.974Z" fill="#93BC6C"/>
<path d="M356.176 589.048C356.829 588.683 359.439 587.813 360.932 588.907C363.654 590.904 362.52 593.467 362.51 594.283C361.03 594.427 359.538 594.393 358.066 594.181C353.119 593.277 353.869 589.984 356.176 589.048Z" fill="#93BC6C"/>
<path d="M316.121 589.809C317.275 589.098 318.332 588.239 319.266 587.255C320.747 585.8 322.511 584.664 324.447 583.916C324.496 583.897 324.477 583.822 324.425 583.836C320.895 584.924 319.148 587.999 316.076 589.733C316.071 589.736 316.067 589.74 316.063 589.745C316.06 589.749 316.057 589.755 316.056 589.76C316.054 589.766 316.054 589.772 316.055 589.778C316.055 589.784 316.057 589.789 316.06 589.794C316.063 589.799 316.067 589.804 316.072 589.807C316.077 589.811 316.082 589.813 316.088 589.815C316.093 589.816 316.099 589.817 316.105 589.816C316.111 589.815 316.116 589.813 316.121 589.81V589.809Z" fill="#709E3E"/>
<path d="M316.121 589.425C316.947 588.038 317.858 586.705 318.85 585.432C320.341 583.778 322.103 583.38 324.264 583.455C324.34 583.455 324.358 583.33 324.282 583.318C319.835 582.623 318.084 586.172 316.08 589.398C316.078 589.403 316.078 589.41 316.08 589.415C316.081 589.421 316.085 589.426 316.091 589.429C316.096 589.432 316.102 589.433 316.108 589.432C316.114 589.431 316.119 589.428 316.123 589.423L316.121 589.425Z" fill="#709E3E"/>
<path d="M317.236 590.001C320.572 589.832 326.194 589.136 325.266 584.422C325.261 584.407 325.251 584.395 325.238 584.387C325.225 584.379 325.21 584.376 325.195 584.378C325.18 584.38 325.166 584.387 325.156 584.398C325.145 584.409 325.139 584.424 325.138 584.439C325.155 585.9 324.915 587.424 323.675 588.363C322.019 589.617 319.213 589.775 317.235 589.911C317.178 589.911 317.177 590.005 317.235 590L317.236 590.001Z" fill="#709E3E"/>
<path d="M316.469 589.875C318.19 589.31 320.021 588.97 321.683 588.23C323.32 587.5 324.015 586.078 324.839 584.566C324.845 584.556 324.846 584.543 324.843 584.532C324.84 584.52 324.833 584.511 324.823 584.505C324.813 584.499 324.8 584.497 324.789 584.5C324.777 584.503 324.768 584.51 324.762 584.521C323.654 586.357 322.779 587.689 320.683 588.47C319.297 588.987 317.847 589.318 316.45 589.788C316.398 589.806 316.42 589.889 316.473 589.871L316.469 589.875Z" fill="#709E3E"/>
<path d="M343.068 572.016C344.702 572.435 346.191 573.291 347.375 574.494C347.381 574.499 347.388 574.502 347.396 574.502C347.404 574.502 347.411 574.499 347.417 574.494C347.422 574.488 347.425 574.481 347.425 574.473C347.425 574.465 347.422 574.458 347.417 574.452C346.267 573.19 344.75 572.323 343.08 571.973C343.074 571.972 343.069 571.973 343.064 571.976C343.059 571.979 343.056 571.984 343.054 571.989C343.053 571.995 343.053 572 343.056 572.005C343.058 572.011 343.062 572.014 343.068 572.016Z" fill="#709E3E"/>
<path d="M342.433 572.489C342.522 572.712 342.667 572.907 342.854 573.057C343.041 573.206 343.263 573.306 343.499 573.345C344.514 573.683 345.542 574.004 346.578 574.267C346.582 574.268 346.587 574.268 346.591 574.268C346.595 574.267 346.599 574.266 346.603 574.264C346.607 574.261 346.61 574.259 346.613 574.255C346.616 574.252 346.618 574.248 346.619 574.244C346.62 574.239 346.62 574.235 346.62 574.231C346.619 574.226 346.618 574.222 346.616 574.218C346.614 574.214 346.611 574.211 346.607 574.208C346.604 574.206 346.6 574.204 346.596 574.203C345.937 573.962 345.279 573.757 344.607 573.555C343.935 573.352 342.801 573.202 342.521 572.465C342.5 572.41 342.412 572.433 342.432 572.489H342.433Z" fill="#709E3E"/>
<path d="M343.097 571.724C344.022 571.567 344.973 571.739 345.785 572.208C346.598 572.678 347.221 573.416 347.549 574.296C347.564 574.33 347.617 574.305 347.607 574.271C347.313 573.346 346.686 572.564 345.847 572.077C345.009 571.589 344.019 571.431 343.071 571.634C343.009 571.645 343.036 571.738 343.096 571.728L343.097 571.724Z" fill="#709E3E"/>
<path d="M351.123 582.868C353.129 581.524 355.058 580.042 356.983 578.581C356.986 578.579 356.989 578.575 356.99 578.571C356.99 578.567 356.99 578.563 356.988 578.559C356.986 578.555 356.982 578.553 356.978 578.551C356.974 578.55 356.97 578.55 356.966 578.552C354.896 579.801 353.092 581.463 351.101 582.83C351.079 582.846 351.101 582.883 351.123 582.867V582.868Z" fill="#709E3E"/>
<path d="M351.644 582.789C353.867 582.449 356.393 581.063 357.275 578.882C357.276 578.875 357.275 578.868 357.272 578.862C357.268 578.855 357.263 578.851 357.257 578.848C357.25 578.845 357.243 578.845 357.236 578.847C357.23 578.849 357.224 578.853 357.22 578.859C356.664 579.906 355.868 580.805 354.898 581.484C353.927 582.163 352.809 582.601 351.637 582.763C351.62 582.763 351.627 582.791 351.643 582.789H351.644Z" fill="#709E3E"/>
<path d="M351.024 582.583C351.57 581.525 352.325 580.59 353.242 579.833C354.16 579.075 355.222 578.512 356.363 578.178C356.371 578.176 356.378 578.171 356.382 578.164C356.386 578.157 356.387 578.148 356.385 578.14C356.383 578.133 356.377 578.126 356.37 578.122C356.363 578.118 356.355 578.117 356.347 578.119C355.183 578.423 354.099 578.977 353.168 579.741C352.238 580.505 351.485 581.462 350.959 582.546C350.955 582.554 350.954 582.564 350.957 582.573C350.96 582.582 350.966 582.59 350.974 582.594C350.983 582.599 350.992 582.601 351.001 582.599C351.011 582.596 351.019 582.591 351.024 582.583Z" fill="#709E3E"/>
<path d="M352.078 582.87C353.623 582.991 355.165 582.605 356.471 581.77C356.909 581.523 357.245 581.129 357.419 580.657C357.594 580.185 357.595 579.667 357.424 579.194C357.41 579.161 357.356 579.185 357.366 579.219C358.33 582.166 353.989 582.781 352.078 582.829C352.073 582.829 352.068 582.831 352.064 582.835C352.06 582.839 352.058 582.844 352.058 582.849C352.058 582.855 352.06 582.86 352.064 582.864C352.068 582.867 352.073 582.87 352.078 582.87Z" fill="#709E3E"/>
<path d="M350.849 582.173C351.499 579.559 353.189 577.431 356.127 577.616C356.185 577.616 356.182 577.533 356.127 577.527C353.184 577.193 351.372 579.557 350.782 582.155C350.781 582.163 350.782 582.172 350.787 582.18C350.791 582.187 350.799 582.193 350.807 582.195C350.816 582.197 350.825 582.196 350.832 582.192C350.84 582.189 350.846 582.182 350.849 582.174V582.173Z" fill="#709E3E"/>
<path d="M356.902 589.331C358.896 590.636 360.679 592.239 362.189 594.084C362.212 594.11 362.247 594.073 362.227 594.047C360.735 592.179 358.943 590.573 356.924 589.294C356.919 589.292 356.914 589.292 356.909 589.294C356.904 589.296 356.9 589.299 356.898 589.303C356.895 589.308 356.894 589.313 356.895 589.318C356.896 589.323 356.898 589.327 356.902 589.331Z" fill="#709E3E"/>
<path d="M357.144 589.175C358.364 589.352 359.504 589.882 360.426 590.701C361.347 591.52 362.008 592.591 362.327 593.782C362.329 593.79 362.335 593.797 362.342 593.801C362.349 593.805 362.358 593.806 362.366 593.804C362.374 593.801 362.38 593.796 362.384 593.789C362.389 593.782 362.39 593.773 362.387 593.765C362.089 592.552 361.428 591.46 360.494 590.632C359.559 589.805 358.394 589.283 357.156 589.135C357.129 589.135 357.118 589.171 357.144 589.175Z" fill="#709E3E"/>
<path d="M357.661 589.024C358.297 588.941 358.943 588.99 359.559 589.169C360.175 589.347 360.748 589.65 361.242 590.06C361.63 590.458 361.928 590.935 362.115 591.46C362.302 591.984 362.373 592.542 362.324 593.096C362.324 593.105 362.328 593.114 362.334 593.12C362.341 593.126 362.349 593.13 362.358 593.13C362.367 593.13 362.375 593.126 362.381 593.12C362.388 593.114 362.391 593.105 362.391 593.096C362.458 592.531 362.394 591.958 362.205 591.421C362.016 590.885 361.707 590.398 361.302 589.999C360.8 589.585 360.216 589.28 359.589 589.106C358.962 588.931 358.306 588.89 357.662 588.985C357.639 588.985 357.638 589.026 357.662 589.023L357.661 589.024Z" fill="#709E3E"/>
<path d="M356.715 589.359C355.199 591.52 360.629 593.8 362.022 594.098C362.031 594.099 362.04 594.097 362.048 594.091C362.055 594.086 362.061 594.079 362.063 594.07C362.066 594.061 362.065 594.051 362.061 594.043C362.057 594.035 362.051 594.028 362.042 594.024C360.725 593.656 355.392 591.524 356.762 589.386C356.781 589.356 356.734 589.331 356.715 589.359Z" fill="#709E3E"/>
<path d="M356.11 589.575C355.896 589.723 355.717 589.917 355.588 590.143C355.459 590.369 355.382 590.621 355.364 590.881C355.345 591.141 355.385 591.401 355.48 591.644C355.576 591.886 355.724 592.104 355.915 592.281C357.088 593.631 359.308 594.109 361.007 594.102C361.019 594.102 361.029 594.098 361.037 594.09C361.045 594.082 361.05 594.071 361.05 594.06C361.05 594.049 361.045 594.038 361.037 594.03C361.029 594.022 361.019 594.017 361.007 594.017C359.955 593.985 358.915 593.781 357.928 593.413C356.655 592.912 353.977 591.051 356.136 589.619C356.139 589.617 356.141 589.615 356.143 589.612C356.146 589.61 356.147 589.606 356.148 589.603C356.149 589.6 356.149 589.596 356.148 589.593C356.148 589.59 356.147 589.587 356.145 589.584C356.143 589.581 356.141 589.578 356.138 589.576C356.136 589.574 356.132 589.573 356.129 589.572C356.126 589.571 356.123 589.571 356.119 589.571C356.116 589.572 356.113 589.573 356.11 589.575Z" fill="#709E3E"/>
<path d="M278.104 617.881H268.672V803.616H278.104V617.881Z" fill="#4C2311"/>
<path d="M666.254 617.881H656.821V803.616H666.254V617.881Z" fill="#4C2311"/>
<path d="M685.388 612.471H249.536V620.664H685.388V612.471Z" fill="#4C2311"/>
<path d="M689.96 610.833H244.965V614.505H689.96V610.833Z" fill="#66341B"/>
<path d="M416.343 608.938H322.277V610.833H416.343V608.938Z" fill="#525252"/>
<path d="M412.37 606.492C412.37 606.492 375.187 604.288 369.72 608.13C362.219 604.707 326.248 606.492 326.248 606.492V608.94H412.37V606.492Z" fill="#D6D6D6"/>
<path d="M412.37 608.13C408.804 607.847 405.234 607.616 401.663 607.424C398.091 607.232 394.519 607.047 390.944 606.953C387.369 606.859 383.795 606.826 380.22 606.953C378.432 607.022 376.652 607.133 374.885 607.347C374.002 607.448 373.126 607.595 372.259 607.786C371.404 607.95 370.584 608.258 369.832 608.697L369.738 608.761L369.63 608.715C368.801 608.38 367.94 608.128 367.06 607.962C366.176 607.786 365.278 607.661 364.38 607.552C362.578 607.349 360.765 607.239 358.95 607.163C355.319 607.017 351.681 607.029 348.045 607.101C344.41 607.173 340.773 607.318 337.14 607.501C333.506 607.666 329.874 607.876 326.243 608.129C333.492 607.475 340.76 607.015 348.039 606.828C351.678 606.734 355.32 606.697 358.963 606.82C360.784 606.884 362.605 606.982 364.419 607.176C365.327 607.28 366.234 607.401 367.135 607.574C368.046 607.736 368.939 607.993 369.797 608.342L369.597 608.361C370.393 607.896 371.264 607.571 372.17 607.402C373.052 607.215 373.942 607.071 374.838 606.974C376.625 606.769 378.412 606.67 380.206 606.612C383.788 606.508 387.369 606.562 390.946 606.68C398.107 606.916 405.25 607.429 412.37 608.13Z" fill="#A5A5AF"/>
<path d="M412.371 608.129C408.812 608.033 405.253 607.96 401.694 607.91C398.136 607.84 394.577 607.785 391.018 607.761C387.459 607.738 383.9 607.746 380.344 607.825C378.566 607.868 376.789 607.927 375.016 608.033C374.129 608.089 373.243 608.149 372.364 608.25C371.493 608.321 370.63 608.479 369.79 608.721L369.734 608.74L369.678 608.728C368.799 608.581 367.913 608.487 367.023 608.446C366.127 608.386 365.228 608.352 364.329 608.321C362.531 608.26 360.73 608.232 358.929 608.212C355.328 608.179 351.725 608.192 348.122 608.222L326.505 608.534L337.31 608.165L348.119 607.949C351.722 607.895 355.326 607.854 358.932 607.869C360.735 607.876 362.537 607.893 364.341 607.942C365.242 607.967 366.144 607.996 367.046 608.05C367.957 608.084 368.865 608.179 369.763 608.333L369.651 608.34C370.523 608.093 371.418 607.936 372.322 607.87C373.213 607.775 374.103 607.718 374.994 607.668C376.775 607.574 378.556 607.524 380.337 607.493C383.899 607.436 387.46 607.454 391.021 607.493C394.582 607.531 398.14 607.612 401.699 607.714C405.257 607.833 408.814 607.971 412.371 608.129Z" fill="#A5A5AF"/>
<path d="M551.132 608.938H457.065V610.833H551.132V608.938Z" fill="#525252"/>
<path d="M547.16 606.492C547.16 606.492 509.976 604.288 504.509 608.13C497.008 604.707 461.037 606.492 461.037 606.492V608.94H547.16V606.492Z" fill="#D6D6D6"/>
<path d="M547.159 608.13C543.593 607.847 540.023 607.616 536.452 607.424C532.88 607.232 529.308 607.047 525.733 606.953C522.159 606.859 518.584 606.826 515.009 606.953C513.221 607.022 511.441 607.133 509.674 607.347C508.792 607.448 507.915 607.595 507.048 607.786C506.193 607.95 505.373 608.258 504.621 608.697L504.527 608.761L504.419 608.715C503.59 608.38 502.729 608.128 501.85 607.962C500.965 607.786 500.068 607.661 499.169 607.552C497.368 607.349 495.554 607.239 493.739 607.163C490.109 607.017 486.47 607.029 482.835 607.101C479.199 607.173 475.563 607.318 471.93 607.501C468.292 607.666 464.66 607.876 461.032 608.129C468.281 607.475 475.549 607.015 482.828 606.828C486.467 606.734 490.109 606.697 493.752 606.82C495.573 606.884 497.394 606.982 499.209 607.176C500.116 607.28 501.023 607.401 501.925 607.574C502.836 607.736 503.729 607.993 504.587 608.342L504.387 608.361C505.183 607.896 506.054 607.571 506.96 607.402C507.842 607.214 508.732 607.071 509.628 606.974C511.415 606.769 513.202 606.67 514.995 606.612C518.577 606.508 522.158 606.562 525.735 606.68C532.896 606.916 540.038 607.429 547.159 608.13Z" fill="#A5A5AF"/>
<path d="M547.16 608.13C543.601 608.033 540.042 607.96 536.483 607.91C532.924 607.84 529.365 607.785 525.806 607.761C522.247 607.738 518.688 607.746 515.132 607.825C513.354 607.868 511.577 607.927 509.804 608.033C508.917 608.089 508.031 608.149 507.153 608.25C506.281 608.321 505.418 608.479 504.578 608.721L504.522 608.74L504.466 608.729C503.587 608.581 502.701 608.487 501.811 608.446C500.915 608.386 500.016 608.352 499.117 608.321C497.32 608.26 495.518 608.232 493.717 608.212C490.116 608.179 486.513 608.192 482.91 608.222L461.292 608.534L472.1 608.161L482.91 607.944C486.514 607.89 490.117 607.85 493.723 607.864C495.526 607.871 497.328 607.888 499.132 607.937C500.034 607.963 500.935 607.991 501.837 608.046C502.748 608.08 503.656 608.174 504.554 608.328L504.443 608.336C505.315 608.089 506.21 607.931 507.114 607.865C508.004 607.771 508.895 607.713 509.785 607.663C511.566 607.569 513.347 607.519 515.128 607.488C518.69 607.432 522.252 607.45 525.812 607.488C529.372 607.527 532.931 607.608 536.489 607.709C540.046 607.831 543.603 607.971 547.16 608.13Z" fill="#A5A5AF"/>
<path d="M596.406 769.874L597.97 779.276H605.131L608.212 778.748L605.957 764.136L596.406 769.874Z" fill="#FFE1BD"/>
<path d="M606.932 767.182C606.247 767.499 605.521 767.776 604.769 768.039C601.734 768.967 598.631 769.655 595.489 770.095C586.928 756.033 564.714 687.536 564.714 687.536C562.671 678.883 575.65 689.963 581.053 689.633C582.746 689.502 584.447 689.75 586.033 690.358C591.198 692.548 598.774 707.176 598.774 707.176C598.774 707.176 601.08 712.228 603.491 722.675C605.902 733.123 606.932 767.182 606.932 767.182Z" fill="#1A1A47"/>
<path opacity="0.54" d="M606.932 767.182C606.247 767.499 605.521 767.776 604.768 768.04C604.228 763.871 603.425 757.223 602.239 746.63C599.59 722.887 584.557 695.7 581.052 689.632C582.745 689.501 584.446 689.749 586.032 690.357C591.197 692.547 598.773 707.175 598.773 707.175C598.773 707.175 601.079 712.227 603.49 722.675C605.901 733.122 606.932 767.182 606.932 767.182Z" fill="#3D3D72"/>
<path d="M597.505 777.908C599.362 777.922 601.21 777.638 602.977 777.067C604.702 776.429 606.273 775.434 607.587 774.147C607.587 774.147 615.187 778.793 615.177 787.136C615.173 787.35 615.105 787.558 614.981 787.733C614.857 787.908 614.683 788.041 614.482 788.115C614.482 788.115 596.257 796.22 589.988 798.437C586.686 799.491 583.329 800.361 579.93 801.042C579.724 801.107 579.501 801.094 579.303 801.006C579.106 800.917 578.948 800.758 578.86 800.56C578.53 799.713 578.367 798.226 580.226 796.799C583.048 794.632 586.14 792.859 588.284 791.062C590.428 789.265 592.619 784.309 594.355 782.899C595.821 781.538 596.906 779.817 597.505 777.908Z" fill="#1A1A47"/>
<path d="M635.253 819.383L637.914 676.944H628.448L631.11 819.383C631.141 820.828 632.068 821.999 633.179 821.999C634.29 821.999 635.221 820.828 635.253 819.383Z" fill="#723E24"/>
<path d="M548.275 802.721L603.243 671.315L594.446 667.818L544.426 801.187C543.922 802.541 544.353 803.972 545.387 804.383C546.421 804.795 547.714 804.053 548.275 802.721Z" fill="#723E24"/>
<path d="M718.088 802.721L663.121 671.315L671.918 667.818L721.938 801.187C722.442 802.541 722.012 803.972 720.978 804.383C719.944 804.795 718.649 804.053 718.088 802.721Z" fill="#723E24"/>
<g style="mix-blend-mode:multiply" opacity="0.3">
<g style="mix-blend-mode:multiply" opacity="0.3">
<path d="M592.918 671.891L598.516 674.116L546.849 804.282C547.497 803.951 548.003 803.397 548.275 802.722L603.243 671.315L594.446 667.818L592.918 671.891Z" fill="black"/>
</g>
<g style="mix-blend-mode:multiply" opacity="0.3">
<path d="M628.519 680.692H635.575L632.936 821.965C633.018 821.983 633.101 821.994 633.185 821.998C634.298 821.998 635.225 820.827 635.255 819.382L637.916 676.943H628.448L628.519 680.692Z" fill="black"/>
</g>
<g style="mix-blend-mode:multiply" opacity="0.3">
<path d="M721.938 801.191L671.917 667.823L663.12 671.319L664.131 673.736L669.575 671.57L719.308 804.17C719.551 804.334 719.828 804.438 720.117 804.475C720.407 804.512 720.701 804.48 720.976 804.383C722.011 803.976 722.438 802.545 721.938 801.191Z" fill="black"/>
</g>
</g>
<path d="M566.516 604.683H479.544L462.328 550.491C462.126 549.857 462.077 549.184 462.184 548.527C462.291 547.87 462.551 547.247 462.944 546.71C463.336 546.173 463.85 545.736 464.443 545.435C465.036 545.133 465.691 544.976 466.356 544.976H544.457C545.354 544.976 546.228 545.262 546.952 545.792C547.676 546.322 548.213 547.069 548.485 547.925L566.516 604.683Z" fill="white"/>
<path d="M565.109 604.683H481.836L464.781 551.492C464.584 550.867 464.537 550.203 464.645 549.556C464.752 548.909 465.011 548.297 465.4 547.769C465.789 547.241 466.297 546.813 466.883 546.52C467.469 546.226 468.116 546.075 468.771 546.079H543.257C544.143 546.077 545.006 546.356 545.723 546.876C546.44 547.396 546.973 548.131 547.247 548.974L565.109 604.683Z" fill="#E1EDF9"/>
<path d="M512.866 556.134H474.923C474.652 556.134 474.391 556.026 474.199 555.834C474.007 555.641 473.899 555.381 473.899 555.109C473.899 554.837 474.007 554.577 474.199 554.384C474.391 554.192 474.652 554.084 474.923 554.084H512.861C513.133 554.084 513.393 554.192 513.585 554.384C513.777 554.577 513.885 554.837 513.885 555.109C513.885 555.38 513.778 555.64 513.587 555.832C513.396 556.024 513.137 556.132 512.866 556.134Z" fill="#C2E0F2"/>
<path d="M518.741 560.87H476.436C476.164 560.87 475.904 560.762 475.712 560.57C475.52 560.378 475.412 560.117 475.412 559.846C475.412 559.711 475.439 559.578 475.49 559.454C475.541 559.329 475.617 559.216 475.712 559.121C475.807 559.026 475.92 558.95 476.044 558.899C476.168 558.847 476.301 558.821 476.436 558.821H518.741C518.875 558.821 519.008 558.847 519.133 558.899C519.257 558.95 519.37 559.026 519.465 559.121C519.56 559.216 519.635 559.329 519.687 559.454C519.738 559.578 519.765 559.711 519.765 559.846C519.765 560.117 519.657 560.378 519.465 560.57C519.273 560.762 519.012 560.87 518.741 560.87Z" fill="#C2E0F2"/>
<path d="M514.822 565.607H477.975C477.84 565.607 477.707 565.581 477.583 565.529C477.459 565.478 477.346 565.402 477.251 565.307C477.156 565.212 477.081 565.099 477.029 564.975C476.978 564.85 476.951 564.717 476.951 564.582C476.951 564.311 477.059 564.05 477.251 563.858C477.443 563.666 477.703 563.558 477.975 563.558H514.821C515.092 563.558 515.353 563.666 515.545 563.858C515.737 564.05 515.844 564.311 515.844 564.582C515.844 564.854 515.737 565.114 515.545 565.307C515.353 565.499 515.093 565.607 514.822 565.607Z" fill="#C2E0F2"/>
<path d="M508.68 570.344H479.476C479.205 570.344 478.944 570.236 478.752 570.044C478.56 569.851 478.453 569.591 478.453 569.319C478.453 569.047 478.56 568.787 478.752 568.594C478.944 568.402 479.205 568.294 479.476 568.294H508.68C508.952 568.294 509.212 568.402 509.404 568.594C509.596 568.787 509.704 569.047 509.704 569.319C509.704 569.591 509.596 569.851 509.404 570.044C509.212 570.236 508.952 570.344 508.68 570.344Z" fill="#C2E0F2"/>
<path d="M523.328 575.079H481.023C480.888 575.079 480.755 575.053 480.631 575.001C480.507 574.95 480.394 574.874 480.299 574.779C480.204 574.684 480.128 574.571 480.077 574.447C480.026 574.322 479.999 574.189 479.999 574.055C479.999 573.783 480.107 573.522 480.299 573.33C480.491 573.138 480.751 573.03 481.023 573.03H523.328C523.599 573.03 523.86 573.138 524.052 573.33C524.244 573.522 524.351 573.783 524.351 574.055C524.352 574.189 524.325 574.323 524.274 574.447C524.222 574.571 524.147 574.684 524.052 574.78C523.957 574.875 523.844 574.95 523.72 575.002C523.595 575.053 523.462 575.08 523.328 575.079Z" fill="#C2E0F2"/>
<path d="M519.383 579.818H482.537C482.403 579.818 482.27 579.791 482.146 579.74C482.021 579.688 481.909 579.613 481.813 579.518C481.718 579.423 481.643 579.31 481.592 579.185C481.54 579.061 481.514 578.928 481.514 578.793C481.514 578.659 481.54 578.525 481.592 578.401C481.643 578.277 481.718 578.164 481.813 578.069C481.909 577.973 482.021 577.898 482.146 577.846C482.27 577.795 482.403 577.768 482.537 577.768H519.383C519.655 577.768 519.915 577.876 520.107 578.069C520.299 578.261 520.407 578.521 520.407 578.793C520.407 579.065 520.299 579.326 520.107 579.518C519.915 579.71 519.655 579.818 519.383 579.818Z" fill="#C2E0F2"/>
<path d="M527.862 589.289H485.553C485.419 589.289 485.286 589.263 485.162 589.211C485.037 589.16 484.925 589.084 484.83 588.989C484.735 588.894 484.659 588.781 484.608 588.657C484.556 588.532 484.53 588.399 484.53 588.265C484.53 588.13 484.556 587.997 484.608 587.872C484.659 587.748 484.735 587.635 484.83 587.54C484.925 587.445 485.037 587.369 485.162 587.318C485.286 587.266 485.419 587.24 485.553 587.24H527.859C527.993 587.24 528.126 587.266 528.25 587.318C528.375 587.369 528.487 587.445 528.582 587.54C528.677 587.635 528.753 587.748 528.804 587.872C528.856 587.997 528.882 588.13 528.882 588.265C528.882 588.536 528.775 588.796 528.583 588.988C528.392 589.18 528.132 589.289 527.862 589.289Z" fill="#C2E0F2"/>
<path d="M529.402 594.026H487.096C486.825 594.026 486.564 593.918 486.373 593.726C486.181 593.534 486.073 593.273 486.073 593.001C486.073 592.73 486.181 592.469 486.373 592.277C486.564 592.085 486.825 591.977 487.096 591.977H529.402C529.537 591.976 529.67 592.002 529.795 592.054C529.92 592.106 530.033 592.181 530.128 592.277C530.224 592.372 530.299 592.486 530.351 592.61C530.402 592.735 530.428 592.869 530.428 593.004C530.428 593.139 530.401 593.272 530.349 593.396C530.297 593.52 530.222 593.633 530.126 593.728C530.031 593.823 529.918 593.898 529.794 593.949C529.669 594 529.536 594.026 529.402 594.026Z" fill="#C2E0F2"/>
<path d="M551.897 594.026H538.236C537.616 594.026 537.011 593.829 536.511 593.461C536.01 593.094 535.639 592.577 535.453 591.984L524.06 555.884C523.921 555.446 523.888 554.982 523.962 554.528C524.036 554.075 524.216 553.645 524.487 553.275C524.759 552.904 525.113 552.603 525.523 552.396C525.932 552.188 526.385 552.08 526.844 552.081H540.509C541.13 552.08 541.735 552.278 542.235 552.645C542.736 553.013 543.106 553.53 543.293 554.123L554.685 590.223C554.824 590.661 554.857 591.126 554.783 591.579C554.709 592.033 554.528 592.463 554.256 592.834C553.985 593.204 553.629 593.505 553.22 593.713C552.81 593.92 552.357 594.027 551.897 594.026Z" fill="#C2E0F2"/>
<path d="M573.804 608.628H479.225C478.483 608.627 477.772 608.332 477.247 607.807C476.723 607.282 476.428 606.569 476.428 605.827C476.428 605.084 476.723 604.372 477.247 603.846C477.772 603.321 478.483 603.026 479.225 603.026H573.804C574.546 603.026 575.258 603.321 575.783 603.846C576.307 604.371 576.602 605.084 576.602 605.827C576.602 606.57 576.307 607.282 575.783 607.807C575.258 608.333 574.546 608.628 573.804 608.628Z" fill="white"/>
<path d="M601.112 533.75C600.692 533.752 600.28 533.642 599.916 533.432C599.553 533.222 599.251 532.92 599.042 532.556L595.896 527.016C595.739 526.74 595.639 526.436 595.602 526.12C595.565 525.805 595.592 525.486 595.681 525.181C595.769 524.876 595.919 524.592 596.119 524.346C596.32 524.101 596.568 523.898 596.848 523.75L605.606 519.118C606.157 518.83 606.799 518.769 607.394 518.949C607.989 519.129 608.49 519.535 608.789 520.08L611.778 525.574C611.927 525.847 612.021 526.148 612.054 526.457C612.087 526.767 612.059 527.08 611.97 527.379C611.882 527.677 611.736 527.956 611.541 528.198C611.345 528.44 611.103 528.641 610.83 528.79L602.23 533.466C601.887 533.653 601.503 533.75 601.112 533.75ZM606.708 519.939C606.502 519.939 606.3 519.989 606.118 520.086L597.36 524.716C597.209 524.796 597.075 524.905 596.967 525.037C596.859 525.17 596.779 525.323 596.731 525.487C596.683 525.651 596.669 525.823 596.689 525.993C596.709 526.163 596.763 526.327 596.847 526.475L599.994 532.015C600.161 532.305 600.433 532.518 600.754 532.609C601.075 532.7 601.418 532.663 601.712 532.505L610.312 527.829C610.608 527.667 610.829 527.394 610.925 527.069C611.02 526.744 610.983 526.395 610.821 526.098L607.834 520.604C607.723 520.402 607.56 520.234 607.362 520.117C607.164 520 606.938 519.938 606.708 519.939Z" fill="#1A1A47"/>
<path d="M565.218 591.026C564.873 591.475 564.505 591.906 564.116 592.317C564.116 592.317 559.53 588.84 558.253 588.512C556.975 588.185 554.257 589.201 552.702 589.288C551.147 589.376 551.022 588.457 551.022 588.457C551.022 588.457 545.104 590.927 544.155 591.157C543.205 591.387 542.56 591.069 543.15 589.562C543.44 589.016 543.808 588.515 544.242 588.075L544.253 588.064C546.273 585.779 550.433 582.13 551.928 581.407C553.839 580.5 556.437 579.178 558.522 579.954C560.607 580.73 567.398 585.823 567.398 585.823C567.598 587.571 566.245 589.708 565.218 591.026Z" fill="#FFE1BD"/>
<path d="M566.628 586.128L565.217 591.026C564.872 591.475 564.504 591.905 564.114 592.316C564.114 592.316 559.529 588.84 558.251 588.512C556.974 588.185 554.256 589.201 552.701 589.288C551.146 589.376 551.021 588.457 551.021 588.457C551.021 588.457 545.102 590.927 544.153 591.157C543.204 591.387 542.559 591.069 543.148 589.562C543.439 589.016 543.807 588.515 544.241 588.075C543.739 588.77 543.182 589.488 543.512 590.372C543.912 591.45 550.263 588.418 554.852 585.648C554.923 585.605 555.292 585.422 555.416 585.636C555.414 585.735 555.39 585.832 555.347 585.921C555.303 586.01 555.241 586.089 555.164 586.151C554.399 586.973 550.554 587.262 551.332 588.491C552.429 590.218 556.377 587.048 558.537 587.758C560.266 588.447 561.902 589.35 563.407 590.447C563.407 590.447 564.651 586.762 566.628 586.128Z" fill="#FFD19F"/>
<path d="M563.419 592.318C563.419 592.318 585.914 612.016 602.743 614.02C619.572 616.024 647.961 584.056 647.961 584.056C647.961 584.056 646.173 567.025 635.679 569.027C625.185 571.029 611.115 596.352 605.02 597.537C598.924 598.722 567.229 585.273 567.229 585.273C566.428 585.947 565.763 586.768 565.268 587.691C564.472 589.155 563.851 590.708 563.419 592.318Z" fill="#006466"/>
<path d="M639.955 495.243C633.8 488.189 624.7 487.426 617.677 488.207C613.146 488.655 608.846 490.422 605.308 493.292C601.771 496.162 599.152 500.008 597.777 504.353C596.454 508.711 596.601 513.384 598.195 517.65C603.927 533.499 609.931 543.61 615.527 546.615C617.663 547.762 621.746 546.998 626.109 545.463C626.386 545.364 626.689 545.367 626.964 545.472C627.239 545.578 627.467 545.778 627.607 546.037L629.448 549.485L645.642 545.979C644.307 542.993 643.241 539.895 642.454 536.72C644.807 533.745 651.223 508.149 639.955 495.243Z" fill="#FFE1BD"/>
<path d="M607.228 517.855C608.204 517.76 609.184 517.976 610.029 518.473C610.874 518.97 611.54 519.721 611.932 520.621C613.263 523.793 615.319 528.231 616.935 529.674C617.199 529.847 617.507 529.941 617.823 529.944C618.138 529.947 618.448 529.859 618.715 529.691C618.976 529.572 619.195 529.376 619.34 529.128C619.486 528.88 619.551 528.594 619.528 528.307C619.09 526.151 618.464 524.038 617.657 521.991C617.4 521.399 617.281 520.756 617.309 520.111C617.337 519.466 617.511 518.836 617.819 518.268C618.126 517.701 618.558 517.211 619.083 516.835C619.608 516.46 620.211 516.209 620.847 516.102C621.728 515.993 622.621 516.048 623.481 516.265C628.269 517.719 624.97 525.235 624.873 529.162C624.806 531.929 628.114 538.343 629.577 538.919C634.387 540.809 641.677 539.102 645.544 534.319C649.41 529.536 650.248 513.552 648.137 503.991C646.026 494.43 638.379 489.031 635.855 488.416C634.877 488.166 633.864 488.084 632.859 488.174C632.478 488.21 632.095 488.167 631.732 488.049C631.368 487.93 631.033 487.738 630.748 487.484C628.203 485.267 620.598 480.201 608.566 485.402C603.326 487.561 598.867 491.267 595.783 496.026C592.699 500.786 591.136 506.373 591.303 512.044C591.481 516.129 594.685 515.828 596.906 515.116C597.511 514.932 598.152 514.905 598.769 515.039C599.387 515.173 599.96 515.462 600.434 515.879C601.374 516.652 602.461 517.225 603.629 517.565C604.797 517.905 606.021 518.003 607.228 517.855Z" fill="#0B0B3A"/>
<path d="M628.947 552.081C628.947 552.081 627.554 550.527 628.083 549.576C628.741 548.397 635.846 542.768 644.141 543.063C645.43 543.11 647.006 543.11 648.553 546.48C649.415 548.262 650.057 550.144 650.463 552.082H628.947V552.081Z" fill="#007D87"/>
<path d="M660.518 688.279C660.016 688.399 659.47 688.519 658.902 688.629C651.86 689.941 640.407 690.094 640.407 690.094C617.829 689.689 606.417 668.631 602.749 662.346C602.043 661.173 601.44 659.941 600.948 658.663C602.237 657.974 617.573 649.695 616.753 621.423C616.582 615.565 616.665 602.448 613.751 597.355C612.146 594.556 607.397 588.883 604.416 582.905C601.97 577.986 600.705 572.86 603.382 568.947C610.02 559.186 620.489 553.994 620.489 553.994C620.489 553.994 639.705 546.289 656.07 548.037C666.452 549.129 675.699 554.026 678.167 567.11C684.531 600.808 660.518 688.279 660.518 688.279Z" fill="#007D87"/>
<path opacity="0.18" d="M623.032 614.023C625.823 641.837 606.909 659.351 602.749 662.346C602.043 661.173 601.44 659.941 600.948 658.662C602.237 657.974 616.659 645.442 616.753 621.423C616.777 615.562 616.665 602.448 613.751 597.355C612.146 594.556 607.397 588.883 604.416 582.905L605.683 582.414L613.39 581.135L617.299 584.327C617.299 584.327 621.225 596.005 623.032 614.023Z" fill="#00B3B7"/>
<path opacity="0.45" d="M660.518 688.279C660.016 688.399 659.47 688.519 658.902 688.629C660.343 681.032 669.465 633.325 672.435 616.023C678.298 581.866 672.195 564.564 668.756 558.366C665.976 553.356 660.623 550.704 656.069 548.037C666.452 549.129 675.698 554.026 678.166 567.11C684.531 600.808 660.518 688.279 660.518 688.279Z" fill="#00B3B7"/>
<path d="M549.742 790.207C548.031 790.879 546.21 791.23 544.372 791.243C541.057 791.243 540.093 790.002 540.093 790.002V782.433L551.015 781.026L549.742 790.207Z" fill="#FFE1BD"/>
<path d="M635.548 684.358C635.482 689.278 634.178 697.126 626.813 699.343C615.825 702.639 607.708 700.768 594.968 698.565C584.296 696.731 556.19 690.674 551.025 688.709C550.875 688.65 550.712 688.634 550.554 688.66C550.395 688.687 550.247 688.755 550.124 688.859C550.001 688.963 549.908 689.099 549.856 689.251C549.803 689.403 549.793 689.567 549.826 689.724C552.263 701.649 554.211 706.803 555.791 724.698C557.118 739.732 551.349 782.286 551.349 782.286C550.155 782.643 548.94 782.926 547.712 783.134C547.019 783.247 546.319 783.31 545.617 783.322C543.574 783.282 541.537 783.11 539.517 782.808C539.517 782.808 528.12 720.137 526.579 694.743C525.038 669.35 527.463 667.253 538.991 661.872C550.519 656.491 602.055 658.482 602.055 658.482L602.068 658.495C602.213 658.943 605.112 666.871 613.663 674.047C619.98 679.265 627.506 682.811 635.548 684.358Z" fill="#3D3D72"/>
<path d="M604.208 662.864C603.374 661.469 602.659 660.005 602.069 658.49L602.056 658.477C602.056 658.477 601.459 658.454 600.426 658.421C601.584 659.987 602.848 661.471 604.208 662.864Z" fill="#33305B"/>
<path d="M628.445 682.381C627.41 686.107 625.18 689.738 620.542 691.133C609.554 694.43 601.437 692.558 588.697 690.355C578.025 688.522 549.918 682.465 544.753 680.499C544.603 680.441 544.441 680.424 544.282 680.451C544.124 680.477 543.975 680.546 543.853 680.65C543.73 680.754 543.637 680.889 543.585 681.041C543.533 681.193 543.522 681.357 543.555 681.514C545.992 693.439 547.941 698.593 549.52 716.488C550.555 728.194 550.114 766.357 549.867 782.682C550.73 782.47 551.35 782.285 551.35 782.285C551.35 782.285 557.12 739.731 555.792 724.697C554.212 706.801 552.263 701.648 549.826 689.724C549.793 689.567 549.804 689.403 549.856 689.251C549.909 689.099 550.001 688.964 550.124 688.86C550.247 688.756 550.395 688.687 550.554 688.66C550.712 688.633 550.875 688.65 551.025 688.708C556.19 690.674 584.296 696.731 594.968 698.564C607.709 700.767 615.825 702.64 626.813 699.343C634.179 697.127 635.483 689.278 635.548 684.358C633.139 683.858 630.766 683.197 628.445 682.381Z" fill="#33305B"/>
<path d="M539.907 788.943C541.642 789.608 543.472 789.989 545.328 790.074C547.167 790.077 548.987 789.692 550.667 788.943C550.667 788.943 556.167 795.956 553.245 803.769C553.166 803.969 553.029 804.14 552.852 804.26C552.675 804.38 552.465 804.444 552.251 804.443H515.368C515.152 804.446 514.943 804.363 514.787 804.213C514.63 804.064 514.539 803.859 514.532 803.642C514.52 802.732 514.885 801.283 517.125 800.596C520.528 799.552 524.042 798.974 526.677 798.04C529.312 797.106 533.095 793.231 535.214 792.516C537.062 791.754 538.68 790.522 539.907 788.943Z" fill="#1A1A47"/>
<path d="M523.176 603.863C523.176 603.863 519.893 603.004 518.19 602.655C517.587 602.536 516.979 602.447 516.367 602.389C515.646 602.329 514.92 602.351 514.203 602.457L496.57 604.9C496.325 604.93 496.077 604.863 495.881 604.713C495.685 604.563 495.556 604.341 495.522 604.096C495.474 603.759 495.511 603.414 495.631 603.095C495.751 602.776 495.949 602.492 496.207 602.269L497.93 600.784L503.08 596.34C505.63 594.144 507.651 593.751 511.023 593.582C512.248 593.755 513.463 594.001 514.659 594.32C518.114 594.954 518.902 595.356 521.205 595.827C521.84 595.97 522.483 596.073 523.131 596.134C523.386 596.179 523.648 596.169 523.899 596.105C524.641 598.69 524.382 601.46 523.176 603.863Z" fill="#FFE1BD"/>
<path d="M550.096 605.617C550.085 605.634 550.068 605.646 550.049 605.652C550.029 605.657 550.008 605.655 549.99 605.646C549.539 605.457 546.783 604.327 545.286 603.792C544.733 603.598 544.211 603.451 543.76 603.337C542.97 603.159 542.164 603.062 541.355 603.048H523.654C523.389 603.054 523.133 602.954 522.942 602.77C522.75 602.587 522.639 602.335 522.633 602.07C522.637 601.735 522.725 601.407 522.886 601.114C523.048 600.822 523.28 600.574 523.56 600.392L525.471 599.157C523.664 600.532 523.372 601.568 524.278 601.677C525.003 601.764 526.718 601.574 531.063 600.363C531.157 600.336 531.199 600.489 531.113 600.543C530.892 600.64 530.714 600.816 530.616 601.037C530.517 601.258 530.504 601.507 530.58 601.737C530.655 601.967 530.813 602.16 531.023 602.28C531.233 602.399 531.48 602.436 531.716 602.383C532.446 602.347 535.55 602.151 536.265 602.11C539.04 601.951 543.084 601.689 543.861 601.827C545.22 602.072 546.532 602.527 547.75 603.176C548.51 603.573 549.234 602.705 549.51 601.893C549.949 600.566 550.47 599.267 551.072 598.005C551.319 598.085 551.579 598.112 551.837 598.083C552.209 600.723 551.588 603.408 550.096 605.617Z" fill="#F4F4F4"/>
<path d="M619.776 563.087C617.443 561.661 610.387 557.737 601.289 571.94C592.19 586.144 584.913 596.805 581.728 598.716C578.544 600.626 570.721 599.262 567.899 599.262C565.077 599.262 523.789 596.037 523.789 596.037C522.641 598.565 521.859 601.246 521.469 603.996C521.469 603.996 559.301 613.927 582.751 614.017C606.2 614.108 624.033 578.585 624.851 574.303C625.669 570.022 625.351 566.495 619.776 563.087Z" fill="#007D87"/>
<path d="M597.143 530.006C597.019 530.008 596.898 529.968 596.8 529.892C596.703 529.816 596.634 529.709 596.605 529.588C596.576 529.468 596.588 529.341 596.641 529.229C596.693 529.116 596.782 529.025 596.893 528.97L617.237 518.532C619.539 517.351 624.251 514.935 627.749 520.072C627.83 520.191 627.861 520.339 627.834 520.481C627.807 520.624 627.725 520.75 627.605 520.831C627.486 520.913 627.338 520.944 627.196 520.917C627.054 520.89 626.928 520.807 626.846 520.688C624.118 516.68 620.867 517.896 617.773 519.486L597.392 529.941C597.315 529.982 597.23 530.005 597.143 530.006Z" fill="#1A1A47"/>
<path d="M617.574 519.836L620.031 527.692C620.283 527.944 620.587 528.139 620.922 528.263C621.257 528.387 621.614 528.438 621.97 528.412C622.325 528.386 622.672 528.284 622.985 528.113C623.298 527.942 623.57 527.705 623.784 527.419C625.626 525.296 627.229 517.923 623.852 516.694C620.475 515.465 618.427 517.206 617.574 519.836Z" fill="#FFE1BD"/>
<path d="M710.036 633.604C710.036 593.931 709.104 565.978 684.004 561.77C649.854 556.048 623.136 585.652 628.605 642.374C631.737 674.875 618.426 686.03 607.088 692.378C599.758 696.482 585.568 695.602 585.568 695.602C585.568 695.602 578.996 694.822 574.585 694.405C577.313 695.666 635.787 724.514 677.512 703.199C714.497 684.306 710.036 656.945 710.036 633.604Z" fill="#E8F6F7"/>
<path d="M710.037 633.604C710.037 593.931 709.104 565.978 684.004 561.77C682.798 561.567 681.601 561.415 680.415 561.299C653.053 564.011 635.124 592.861 639.898 642.394C643.031 674.895 629.719 686.049 618.382 692.397C611.051 696.502 596.861 695.621 596.861 695.621C596.861 695.621 596.528 695.517 595.921 695.333C592.483 695.677 589.024 695.768 585.572 695.604C585.572 695.604 579 694.825 574.589 694.408C577.317 695.668 635.791 724.517 677.516 703.201C714.497 684.306 710.037 656.945 710.037 633.604Z" fill="#D0E0E2"/>
</g>
<defs>
<clipPath id="clip0">
<rect x="171" y="261" width="598" height="561" fill="white"/>
</clipPath>
</defs>
</svg>
