<svg width="2670" height="1024" viewBox="0 0 2670 1024" fill="none" xmlns="http://www.w3.org/2000/svg">
<path d="M352.325 64.4881L365.58 113.956C371.07 134.446 392.132 146.606 412.622 141.115C433.112 135.625 445.272 114.564 439.781 94.0734L426.527 44.6058C421.036 24.1155 399.975 11.9556 379.485 17.446C358.994 22.9363 346.835 43.9978 352.325 64.4881Z" fill="#D7492B" fill-opacity="0.48"/>
<path d="M241.941 121.063L267.547 165.415C278.154 183.786 301.645 190.08 320.016 179.474C338.387 168.867 344.681 145.376 334.075 127.005L308.469 82.6538C297.862 64.2827 274.371 57.9883 256 68.5948C237.629 79.2013 231.334 102.692 241.941 121.063Z" fill="#D7492B" fill-opacity="0.52"/>
<path d="M149.961 204.281L186.174 240.494C201.174 255.493 225.494 255.493 240.494 240.494C255.494 225.494 255.494 201.174 240.494 186.174L204.281 149.961C189.281 134.961 164.961 134.961 149.961 149.961C134.961 164.961 134.961 189.281 149.961 204.281Z" fill="#D7492B" fill-opacity="0.56"/>
<path d="M82.654 308.469L127.005 334.075C145.377 344.681 168.868 338.387 179.474 320.016C190.081 301.645 183.786 278.154 165.415 267.547L121.064 241.941C102.693 231.335 79.2016 237.629 68.5951 256C57.9885 274.371 64.2829 297.862 82.654 308.469Z" fill="#D7492B" fill-opacity="0.59"/>
<path d="M113.956 365.58L64.488 352.325C43.9977 346.835 22.9363 358.994 17.4459 379.485C11.9556 399.975 24.1154 421.036 44.6057 426.527L94.0733 439.782C114.564 445.272 135.625 433.112 141.115 412.622C146.606 392.132 134.446 371.07 113.956 365.58Z" fill="#D7492B" fill-opacity="0.63"/>
<path d="M89.6224 473.59H38.4097C17.1966 473.59 0 490.787 0 512C0 533.213 17.1966 550.41 38.4097 550.41H89.6224C110.835 550.41 128.032 533.213 128.032 512C128.032 490.787 110.835 473.59 89.6224 473.59Z" fill="#D7492B" fill-opacity="0.67"/>
<path d="M94.0734 584.219L44.6058 597.473C24.1155 602.964 11.9556 624.025 17.446 644.515C22.9363 665.006 43.9978 677.166 64.4881 671.675L113.956 658.42C134.446 652.93 146.606 631.869 141.116 611.378C135.625 590.888 114.564 578.728 94.0734 584.219Z" fill="#D7492B" fill-opacity="0.71"/>
<path d="M127.005 689.925L82.6539 715.531C64.2829 726.138 57.9884 749.629 68.595 768C79.2015 786.371 102.693 792.666 121.064 782.059L165.415 756.453C183.786 745.846 190.081 722.355 179.474 703.984C168.868 685.613 145.376 679.319 127.005 689.925Z" fill="#D7492B" fill-opacity="0.74"/>
<path d="M186.174 783.506L149.961 819.719C134.961 834.719 134.961 859.039 149.961 874.039C164.961 889.039 189.281 889.039 204.281 874.039L240.494 837.826C255.494 822.826 255.494 798.506 240.494 783.506C225.494 768.506 201.174 768.506 186.174 783.506Z" fill="#D7492B" fill-opacity="0.78"/>
<path d="M267.547 858.585L241.941 902.936C231.335 921.307 237.629 944.798 256 955.405C274.371 966.012 297.862 959.717 308.469 941.346L334.075 896.995C344.681 878.624 338.387 855.133 320.016 844.526C301.645 833.919 278.154 840.214 267.547 858.585Z" fill="#D7492B" fill-opacity="0.82"/>
<path d="M365.58 910.044L352.325 959.512C346.835 980.002 358.994 1001.06 379.485 1006.55C399.975 1012.04 421.036 999.884 426.527 979.394L439.782 929.927C445.272 909.436 433.112 888.375 412.622 882.884C392.132 877.394 371.07 889.554 365.58 910.044Z" fill="#D7492B" fill-opacity="0.85"/>
<path d="M473.59 934.378V985.59C473.59 1006.8 490.787 1024 512 1024C533.213 1024 550.41 1006.8 550.41 985.59V934.378C550.41 913.165 533.213 895.968 512 895.968C490.787 895.968 473.59 913.165 473.59 934.378Z" fill="#D7492B" fill-opacity="0.89"/>
<path d="M584.219 929.927L597.473 979.394C602.964 999.884 624.025 1012.04 644.515 1006.55C665.006 1001.06 677.166 980.002 671.675 959.512L658.42 910.044C652.93 889.554 631.869 877.394 611.378 882.884C590.888 888.375 578.728 909.436 584.219 929.927Z" fill="#D7492B" fill-opacity="0.93"/>
<path d="M689.925 896.995L715.531 941.346C726.138 959.717 749.629 966.012 768 955.405C786.371 944.798 792.665 921.307 782.059 902.936L756.453 858.585C745.846 840.214 722.355 833.919 703.984 844.526C685.613 855.132 679.318 878.624 689.925 896.995Z" fill="#D7492B" fill-opacity="0.96"/>
<path d="M783.506 837.826L819.719 874.038C834.719 889.038 859.039 889.038 874.039 874.039C889.039 859.039 889.039 834.719 874.039 819.719L837.826 783.506C822.826 768.506 798.506 768.506 783.506 783.506C768.506 798.506 768.506 822.826 783.506 837.826Z" fill="#D7492B"/>
<path d="M903.186 781.626L858.835 756.019C840.703 745.551 834.491 722.366 844.959 704.234C855.427 686.102 878.613 679.89 896.745 690.358L941.096 715.964C959.228 726.433 965.44 749.618 954.972 767.75C944.504 785.882 921.318 792.094 903.186 781.626Z" stroke="#D7492B"/>
<path d="M929.797 584.701L979.265 597.956C999.488 603.375 1011.49 624.162 1006.07 644.386C1000.65 664.61 979.865 676.611 959.641 671.192L910.174 657.937C889.95 652.518 877.949 631.731 883.367 611.508C888.786 591.284 909.574 579.283 929.797 584.701Z" stroke="#D7492B"/>
<path d="M934.378 474.09H985.59C1006.53 474.09 1023.5 491.063 1023.5 512C1023.5 532.937 1006.53 549.91 985.59 549.91H934.378C913.441 549.91 896.468 532.937 896.468 512C896.468 491.063 913.441 474.09 934.378 474.09Z" stroke="#D7492B"/>
<path d="M910.174 366.063L959.641 352.808C979.865 347.389 1000.65 359.391 1006.07 379.614C1011.49 399.838 999.488 420.625 979.265 426.044L929.797 439.299C909.574 444.718 888.786 432.716 883.367 412.492C877.949 392.269 889.95 371.482 910.174 366.063Z" stroke="#D7492B"/>
<path d="M858.835 267.981L903.186 242.374C921.318 231.906 944.503 238.118 954.972 256.25C965.44 274.382 959.228 297.567 941.096 308.036L896.745 333.642C878.613 344.111 855.427 337.898 844.959 319.766C834.49 301.634 840.703 278.449 858.835 267.981Z" stroke="#D7492B"/>
<path d="M819.719 149.961L783.506 186.174C768.506 201.174 768.506 225.494 783.506 240.494C798.506 255.494 822.826 255.494 837.826 240.494L874.039 204.281C889.038 189.281 889.038 164.961 874.039 149.961C859.039 134.961 834.719 134.961 819.719 149.961Z" fill="#D7492B" fill-opacity="0.3"/>
<path d="M715.531 82.6538L689.925 127.005C679.319 145.376 685.613 168.867 703.984 179.474C722.355 190.08 745.846 183.786 756.453 165.415L782.059 121.063C792.665 102.692 786.371 79.2014 768 68.5948C749.629 57.9883 726.138 64.2827 715.531 82.6538Z" fill="#D7492B" fill-opacity="0.37"/>
<path d="M597.473 44.6058L584.219 94.0734C578.728 114.564 590.888 135.625 611.378 141.115C631.868 146.606 652.93 134.446 658.42 113.956L671.675 64.4881C677.165 43.9978 665.006 22.9363 644.515 17.4459C624.025 11.9556 602.964 24.1155 597.473 44.6058Z" fill="#D7492B" fill-opacity="0.41"/>
<path d="M473.59 38.4099V89.6225C473.59 110.836 490.787 128.032 512 128.032C533.213 128.032 550.41 110.836 550.41 89.6225V38.4099C550.41 17.1967 533.213 0.000106812 512 0.000106812C490.787 0.000106812 473.59 17.1967 473.59 38.4099Z" fill="#D7492B" fill-opacity="0.45"/>
<path d="M511.499 191.907C464.523 191.907 428.546 205.24 403.572 231.907C379.191 258.573 367 296.204 367 344.796V679.018C367 727.611 379.191 765.24 403.572 791.907C428.546 818.573 464.523 831.907 511.499 831.907C558.477 831.907 594.156 818.573 618.537 791.907C643.512 765.24 656 727.611 656 679.018V613.241H563.234V685.241C563.234 723.759 546.882 743.018 514.175 743.018C481.47 743.018 465.118 723.759 465.118 685.241V337.685C465.118 299.759 481.47 280.796 514.175 280.796C546.882 280.796 563.234 299.759 563.234 337.685V432.796H656V344.796C656 296.204 643.512 258.573 618.537 231.907C594.156 205.24 558.477 191.907 511.499 191.907Z" fill="#D7492B"/>
<path d="M1161.8 694C1140.73 694 1124.6 688 1113.4 676C1102.47 664 1097 647.067 1097 625.2V474.8C1097 452.933 1102.47 436 1113.4 424C1124.6 412 1140.73 406 1161.8 406C1182.87 406 1198.87 412 1209.8 424C1221 436 1226.6 452.933 1226.6 474.8V504.4H1185V472C1185 454.667 1177.67 446 1163 446C1148.33 446 1141 454.667 1141 472V628.4C1141 645.467 1148.33 654 1163 654C1177.67 654 1185 645.467 1185 628.4V585.6H1226.6V625.2C1226.6 647.067 1221 664 1209.8 676C1198.87 688 1182.87 694 1161.8 694ZM1317.31 694C1295.71 694 1279.17 687.867 1267.71 675.6C1256.24 663.333 1250.51 646 1250.51 623.6V476.4C1250.51 454 1256.24 436.667 1267.71 424.4C1279.17 412.133 1295.71 406 1317.31 406C1338.91 406 1355.44 412.133 1366.91 424.4C1378.37 436.667 1384.11 454 1384.11 476.4V623.6C1384.11 646 1378.37 663.333 1366.91 675.6C1355.44 687.867 1338.91 694 1317.31 694ZM1317.31 654C1332.51 654 1340.11 644.8 1340.11 626.4V473.6C1340.11 455.2 1332.51 446 1317.31 446C1302.11 446 1294.51 455.2 1294.51 473.6V626.4C1294.51 644.8 1302.11 654 1317.31 654ZM1413.86 410H1457.86V650H1530.26V690H1413.86V410ZM1551.36 410H1595.36V650H1667.76V690H1551.36V410ZM1724.43 410H1784.03L1829.62 690H1785.62L1777.62 634.4V635.2H1727.62L1719.62 690H1678.83L1724.43 410ZM1772.43 597.2L1752.83 458.8H1752.03L1732.83 597.2H1772.43ZM1850.97 410H1917.37C1940.04 410 1956.57 415.333 1966.97 426C1977.37 436.4 1982.57 452.533 1982.57 474.4V485.6C1982.57 500 1980.17 511.733 1975.37 520.8C1970.84 529.867 1963.77 536.4 1954.17 540.4V541.2C1976.04 548.667 1986.97 568.133 1986.97 599.6V623.6C1986.97 645.2 1981.24 661.733 1969.77 673.2C1958.57 684.4 1942.04 690 1920.17 690H1850.97V410ZM1912.17 524C1920.97 524 1927.51 521.733 1931.77 517.2C1936.31 512.667 1938.57 505.067 1938.57 494.4V478.8C1938.57 468.667 1936.71 461.333 1932.97 456.8C1929.51 452.267 1923.9 450 1916.17 450H1894.97V524H1912.17ZM1920.17 650C1927.9 650 1933.64 648 1937.37 644C1941.1 639.733 1942.97 632.533 1942.97 622.4V598C1942.97 585.2 1940.71 576.4 1936.17 571.6C1931.9 566.533 1924.71 564 1914.57 564H1894.97V650H1920.17ZM2076.29 694C2054.69 694 2038.16 687.867 2026.69 675.6C2015.22 663.333 2009.49 646 2009.49 623.6V476.4C2009.49 454 2015.22 436.667 2026.69 424.4C2038.16 412.133 2054.69 406 2076.29 406C2097.89 406 2114.42 412.133 2125.89 424.4C2137.36 436.667 2143.09 454 2143.09 476.4V623.6C2143.09 646 2137.36 663.333 2125.89 675.6C2114.42 687.867 2097.89 694 2076.29 694ZM2076.29 654C2091.49 654 2099.09 644.8 2099.09 626.4V473.6C2099.09 455.2 2091.49 446 2076.29 446C2061.09 446 2053.49 455.2 2053.49 473.6V626.4C2053.49 644.8 2061.09 654 2076.29 654ZM2172.85 410H2289.25V450H2216.85V528H2273.65V568H2216.85V690H2172.85V410ZM2310.35 410H2354.35V690H2310.35V410ZM2387.3 410H2454.5C2476.37 410 2492.77 415.867 2503.7 427.6C2514.63 439.333 2520.1 456.533 2520.1 479.2V620.8C2520.1 643.467 2514.63 660.667 2503.7 672.4C2492.77 684.133 2476.37 690 2454.5 690H2387.3V410ZM2453.7 650C2460.9 650 2466.37 647.867 2470.1 643.6C2474.1 639.333 2476.1 632.4 2476.1 622.8V477.2C2476.1 467.6 2474.1 460.667 2470.1 456.4C2466.37 452.133 2460.9 450 2453.7 450H2431.3V650H2453.7ZM2549.8 410H2669.8V450H2593.8V524H2654.2V564H2593.8V650H2669.8V690H2549.8V410Z" fill="#D7492B"/>
</svg>
