<svg width="1440" height="900" viewBox="0 0 1440 900" fill="none" xmlns="http://www.w3.org/2000/svg">
<g id="Header">
<g clip-path="url(#clip0)">
<rect width="1440" height="900" fill="white"/>
<path id="Vector" fill-rule="evenodd" clip-rule="evenodd" d="M1755.42 379.376C1765.35 450.498 1669.81 492.064 1630.72 552.233C1592.24 611.472 1587.05 703.013 1524.99 734.098C1458.75 767.28 1381.64 713.405 1308.43 713.669C1252.34 713.871 1198.67 737.264 1142.64 735.478C1084.77 733.634 1028.92 720.266 973.695 703.002C912.576 683.894 843.289 674.567 798.445 627.871C753.715 581.293 755.584 505.469 727.414 446.549C696.263 381.392 634.565 331.531 622.429 259.709C610.19 187.28 638.155 113.989 659.273 43.2876C681.433 -30.8996 682.59 -133.845 750.184 -167.997C830.585 -208.619 925.859 -113.059 1012.54 -135.199C1076.96 -151.653 1100.46 -240.843 1159.5 -272.544C1225.34 -307.906 1312.99 -372.394 1372.87 -328.706C1445.74 -275.538 1401.73 -144.6 1445.24 -64.0513C1470.69 -16.9254 1543.6 -14.015 1568.47 33.4511C1593.42 81.0773 1555.28 147.53 1580.83 194.807C1621.82 270.648 1743.37 293.053 1755.42 379.376Z" fill="#343C4C" fill-opacity="0.3"/>
<path id="Vector_2" fill-rule="evenodd" clip-rule="evenodd" d="M1766.42 344.376C1776.35 415.498 1680.81 457.064 1641.72 517.233C1603.24 576.472 1598.05 668.013 1535.99 699.098C1469.75 732.28 1392.64 678.405 1319.43 678.669C1263.34 678.871 1209.67 702.264 1153.64 700.478C1095.77 698.634 1039.92 685.266 984.695 668.002C923.576 648.894 854.289 639.568 809.445 592.871C764.715 546.293 766.584 470.469 738.414 411.549C707.263 346.392 645.565 296.531 633.429 224.709C621.19 152.28 649.155 78.9886 670.273 8.2876C692.433 -65.8996 693.59 -168.845 761.184 -202.997C841.585 -243.619 936.859 -148.059 1023.54 -170.199C1087.96 -186.653 1111.46 -275.843 1170.5 -307.544C1236.34 -342.906 1323.99 -407.394 1383.87 -363.706C1456.74 -310.538 1412.73 -179.6 1456.24 -99.0513C1481.69 -51.9254 1554.6 -49.015 1579.47 -1.54893C1604.42 46.0773 1566.28 112.53 1591.83 159.807C1632.82 235.648 1754.37 258.053 1766.42 344.376Z" fill="#343C4C"/>
</g>
</g>
<defs>
<clipPath id="clip0">
<rect width="1440" height="900" fill="white"/>
</clipPath>
</defs>
</svg>
