<svg width="907" height="849" fill="none" xmlns="http://www.w3.org/2000/svg"><path fill-rule="evenodd" clip-rule="evenodd" d="M1222.42 379.376c9.93 71.122-85.61 112.688-124.7 172.857-38.48 59.239-43.67 150.78-105.726 181.865-66.243 33.182-143.358-20.693-216.565-20.429-56.092.202-109.755 23.595-165.793 21.809-57.864-1.844-113.719-15.212-168.941-32.476-61.119-19.108-130.406-28.435-175.25-75.131-44.73-46.578-42.861-122.402-71.031-181.322-31.151-65.157-92.849-115.018-104.985-186.84-12.239-72.429 15.726-145.72 36.844-216.421 22.16-74.188 23.317-177.133 90.911-211.285 80.401-40.622 175.675 54.938 262.354 32.798 64.421-16.454 87.925-105.644 146.958-137.345 65.846-35.362 153.498-99.85 213.373-56.162 72.866 53.168 28.863 184.106 72.366 264.655 25.453 47.126 98.365 50.036 123.235 97.502 24.95 47.626-13.19 114.079 12.36 161.356 40.99 75.841 162.54 98.246 174.59 184.569z" fill="#343C4C" fill-opacity=".3"/><path fill-rule="evenodd" clip-rule="evenodd" d="M1233.42 344.376c9.93 71.122-85.61 112.688-124.7 172.857-38.48 59.239-43.67 150.78-105.73 181.865-66.239 33.182-143.354-20.693-216.561-20.429-56.092.202-109.755 23.595-165.793 21.809-57.864-1.844-113.719-15.212-168.941-32.476-61.119-19.108-130.406-28.434-175.25-75.131-44.73-46.578-42.861-122.402-71.031-181.322-31.151-65.157-92.849-115.018-104.985-186.84C88.19 152.28 116.155 78.989 137.273 8.288c22.16-74.188 23.317-177.133 90.911-211.285 80.401-40.622 175.675 54.938 262.354 32.798 64.421-16.454 87.925-105.644 146.958-137.345 65.846-35.362 153.498-99.85 213.373-56.162 72.866 53.168 28.863 184.106 72.366 264.655C948.688-51.925 1021.6-49.015 1046.47-1.55c24.95 47.626-13.19 114.079 12.36 161.356 40.99 75.841 162.54 98.246 174.59 184.569z" fill="#343C4C"/><g clip-path="url(#clip0)"><path d="M760.137 266.162H346.822v244.432h413.315V266.162z" fill="#D5DBDA"/><path d="M748.664 270.943h-390.37v234.87h390.37v-234.87z" fill="#fff"/><path d="M717.378 281.811H386.917v15.686h330.461v-15.686z" fill="#EFEFEF"/><path d="M416.896 431.062h-17.974v45.177h17.974v-45.177z" fill="#FFD04D"/><path d="M457.399 391.401h-17.974v84.838h17.974v-84.838z" fill="#00BFD8"/><path d="M497.903 400.174h-17.974v76.065h17.974v-76.065z" fill="#FFD04D"/><path d="M538.407 357.228h-17.974V476.24h17.974V357.228z" fill="#00BFD8"/><g opacity=".15"><path d="M447.674 391.401h-8.249v84.838h8.249v-84.838z" fill="#000" opacity=".26"/></g><g opacity=".15"><path d="M407.171 431.062h-8.249v45.177h8.249v-45.177z" fill="#000" opacity=".26"/></g><g opacity=".62"><path d="M528.682 357.228h-8.249V476.24h8.249V357.228z" fill="#000" opacity=".26"/></g><g opacity=".15"><path d="M488.178 400.174h-8.249v76.065h8.249v-76.065z" fill="#000" opacity=".26"/></g><path d="M547.918 488.675H387.052V317.181h2.453v169.038h158.413v2.456z" fill="#D5DBDA"/><path d="M403.574 409.904l-1.638-1.828 42.081-37.831 38.978 8.478 42.206-47.043 1.826 1.642-43.16 48.105-39.144-8.514-41.149 36.991z" fill="#D5DBDA"/><path d="M530.334 340.272l-11.901-11.426 15.364-4.115-3.463 15.541z" fill="#D5DBDA"/><path d="M578.235 420.307h-15.084v15.102h15.084v-15.102z" fill="#00BFD8"/><path d="M578.235 446.767h-15.084v15.102h15.084v-15.102z" fill="#FFD04D"/><path d="M630.206 453.288h-47.815v8.582h47.815v-8.582zm0-26.461h-47.815v8.582h47.815v-8.582z" fill="#EFEFEF"/><path d="M666.946 420.307h-15.084v15.102h15.084v-15.102z" fill="#00BFD8"/><path d="M666.946 446.767h-15.084v15.102h15.084v-15.102z" fill="#FFD04D"/><path d="M718.917 453.288h-47.815v8.582h47.815v-8.582zm0-26.461h-47.815v8.582h47.815v-8.582zm-1.538-99.282H576.027v3.224h141.352v-3.224zm-.001 7.807H564.93v3.224h152.448v-3.224zm0 7.807H564.93v3.224h152.448v-3.224zm0 7.806H564.93v3.224h152.448v-3.224zm0 7.807H564.93v3.224h152.448v-3.224zm0 7.807H564.93v3.224h152.448v-3.224zm0 7.808H564.93v3.224h152.448v-3.224zm0 7.807H564.93v3.224h152.448v-3.224zm.001 7.806H586.683v3.224h130.696V390z" fill="#EFEFEF"/><path d="M769 264.185a3.181 3.181 0 01-3.183 3.187H341.141a3.182 3.182 0 01-3.182-3.187 3.195 3.195 0 011.964-2.946c.386-.16.8-.243 1.218-.243h424.676a3.184 3.184 0 013.183 3.187v.002zm0 248.384a3.184 3.184 0 01-3.183 3.186H341.141a3.17 3.17 0 01-2.94-1.967 3.209 3.209 0 010-2.439 3.2 3.2 0 011.722-1.724c.386-.16.8-.243 1.218-.243h424.676a3.181 3.181 0 013.183 3.187z" fill="#66341B"/><path d="M276.421 793.006l2.305-123.355h-8.196l2.304 123.355a1.859 1.859 0 00.35 1.566 1.844 1.844 0 003.237-1.566zm-75.326-14.43l47.602-113.802-7.62-3.028-43.317 115.505a2.111 2.111 0 00.833 2.768 2.107 2.107 0 002.502-1.443zm147.06 0l-47.603-113.802 7.62-3.028 43.318 115.503a1.84 1.84 0 01.249 1.583 1.857 1.857 0 01-1.083 1.18 1.848 1.848 0 01-2.2-.671 1.834 1.834 0 01-.301-.765z" fill="#723E24"/><path d="M239.756 665.275l4.847 1.926-44.743 112.725a2.615 2.615 0 001.235-1.351l47.602-113.801-7.62-3.028-1.321 3.529zm30.833 7.623h6.107l-2.285 122.348c.071.015.143.025.215.028a2.11 2.11 0 001.795-2.269l2.305-123.354h-8.196l.059 3.247zm80.9 104.353l-43.318-115.503-7.621 3.028.875 2.093 4.714-1.873 43.07 114.84a1.633 1.633 0 001.445.188 2.11 2.11 0 00.835-2.773z" fill="#000" opacity=".3"/><path d="M331.1 675.48c-8.313 6.772-20.631 13.004-51.917 13.621-41.156.812-62.702-3.862-74.395-25.114-19.527-35.489 4.909-150.14 43.456-124.742 32.223 21.232 38.677 89.007 42.936 98.378 4.259 9.372 60.092 21.424 39.92 37.857z" fill="#E8F6F7"/><path d="M286.316 680.323c-41.155.811-62.7-3.862-74.394-25.114-13.33-24.223-6.176-85.325 11.968-113.601-23.221 21.549-34.062 95.193-19.101 122.378 11.693 21.249 33.238 25.926 74.395 25.114 31.286-.617 43.604-6.849 51.917-13.621 2.83-2.306 4.163-4.521 4.354-6.664-8.342 5.907-21.146 10.956-49.139 11.508z" fill="#D0E0E2"/><path d="M303.873 409.058c2.812-8.123 5.408-16.66 9.818-12.348 4.64 4.539 4.269 3.99 2.584 10.288-1.685 6.297-14.768 8.892-12.402 2.06z" fill="#FFE1BD"/><path d="M308.91 397.446c1.398-3.866 3.692-8.283 6.052-10.108 2.359-1.825-1.216 4.573-2.061 7.568-.845 2.995-5.166 5.792-3.991 2.54z" fill="#FFE1BD"/><path d="M305.115 441.473c3.306-12.42 4.958-28.652 4.958-28.652l-6.193-4.174s-12.607 25.942-19.419 45.635l-35.134-9.031-4.282-.874 11.432 22.87s33.839 4.933 35.918 3.768c2.079-1.166 9.354-16.898 12.72-29.542z" fill="#F4F4F4"/><path d="M292.394 471.014c-2.079 1.165-35.918-3.768-35.918-3.768l-11.432-22.868 4.281.874c3.157 1.333 8.271 6.451 12.423 11.889 2.998 3.925 4.65 5.322 9.18 7.023 6.929 2.602 14.291 4.447 17.058 4.645 4.677.311 5.134.54 6.132-.833a2.999 2.999 0 01-1.724 3.038z" fill="#EAEAEA"/><path d="M209.672 513.43a31.011 31.011 0 011.388 17.868c-2.629 11.843.363 12.638.363 12.638s16.032 10.188 29.367 14.352c9.556 2.977 17.701 2.473 17.475-8.09l-.008-.145-.047-1.853c-.451-23.741 4.494-24.949 5.713-51.534 1.258-27.272-6.021-42.485-13.234-49.082-7.225-6.583-17.084-6.828-35.63-2.439-13.932 3.286-18.521 6.988-18.408 17.309a80.991 80.991 0 001.499 12.705c2.301 12.988 7.793 28.581 11.522 38.271z" fill="#F4F4F4"/><path d="M243.317 455.021s14.452 47.426 11.561 70.145l-5.324 9.701-5.821-10.575s4.733-45.421-4.327-68.467l3.911-.804z" fill="#3A3A3A"/><path d="M209.672 513.43a31.003 31.003 0 011.387 17.868c-2.628 11.843.364 12.638.364 12.638s16.032 10.188 29.367 14.352l12.459-1.183 4.986-3.924.02-3.129-.047-1.853a92.172 92.172 0 01-18.815-.49 77.978 77.978 0 01-18.45-4.628 7.19 7.19 0 01-3.711-3.18 7.21 7.21 0 01-.825-4.82 103.442 103.442 0 001.725-16.561c-.037-5.227-2.455-14.062-4.432-20.438a41.267 41.267 0 01-1.66-15.109c.361-5.734.357-11.486-.014-17.22l-9.878-5.356-5.502 2.052c.165 4.27.668 8.52 1.503 12.71 2.301 12.988 7.794 28.581 11.523 38.271z" fill="#E2E2E2"/><path d="M209.468 563.815c-1.142.188-4.06-4.941-4.06-4.941l1.223-1.627a5.455 5.455 0 012.755-1.933l.198-.061a2.348 2.348 0 012.642.907c.838 1.243 2.131 2.662 3.634 2.607h.026a.337.337 0 00.159.027c1.33.027-5.436 4.834-6.577 5.021z" fill="#F4D5B5"/><path d="M254.476 398.797s1.237 3.46-.633 6.211l-7.647-10.361 5.333-.049 2.947 4.199z" fill="#632F00"/><path d="M212.948 412.502c.338 13.365 11.854 21.111 11.854 21.111l-.77 12.164 7.768 5.041 5.331 3.455 3.059-6.4.42-7.842a4.044 4.044 0 013.206-3.728 14.696 14.696 0 007.575-4.584c.176-.187.338-.387.483-.599l.018-.01c5.048-6.886 6.962-33.258-10.322-40.745-17.844-7.751-28.97 8.753-28.622 22.137z" fill="#FFE1BD"/><path d="M232.323 443.522l-.523 7.296 5.33 3.455 3.06-6.4.419-7.842a4.035 4.035 0 013.206-3.728 14.688 14.688 0 007.575-4.584c.176-.187.338-.388.484-.599a28.687 28.687 0 01-10.87 3.368 9.787 9.787 0 00-5.972 2.946 9.81 9.81 0 00-2.709 6.088z" fill="#E8C5A0"/><path d="M231.586 416.622c-.676.277-1.317-.769-1.317-.769s-3.747-8.425-5.037-9.716c-2.304-2.337-7.74-2.121-8.169 5.104-.337 5.595 6.265 17.526 8.292 21.031a1.328 1.328 0 01-.338 1.695c-.219.15-.472.245-.736.277h-.094a1.286 1.286 0 01-.86-.307c-4.268-3.751-23.064-21.8-8.139-38.772 0 0 11.854.769 13.667 6.488a119.684 119.684 0 013.104 13.497s.333 1.16-.373 1.472z" fill="#8C4200"/><path d="M254.476 398.797s-10.374-8.1-26.128 1.768l-12.901-3.297s-.542-.176-.256-2.11c.286-1.935 1.711-20.924 24.308-16.655 12.993 2.454 20.951 11.469 14.977 20.294z" fill="#8C4200"/><path d="M244.318 450.984l-.076.621a12.34 12.34 0 01-.924 3.415l-3.912.801-3.407-2.543 3.907-4.549.607.154a8.647 8.647 0 013.749 2.046l.056.055z" fill="#606060"/><path d="M224.126 440.108a12.411 12.411 0 00-3.744 3.862 49.066 49.066 0 014.798 2.514c2.04 1.247 11.845 8.181 11.845 8.181l2.883-5.928s-10.243-7.075-15.782-8.629zm15.78 8.624s3.431 1.174 4.485 3.74c0 0 1.754-3.366-.487-9.357a15.49 15.49 0 00-3.33-2.418l-.668 8.035z" fill="#E2E2E2"/><path d="M212.637 555.44a20.482 20.482 0 002.363 2.589c.54.297.633-.335.428-.782-.204-.446-2.708-2.414-2.791-1.807z" fill="#E5BB98"/><path d="M224.277 434.239h-.094a1.285 1.285 0 01-.86-.307c-4.268-3.751-23.063-21.799-8.138-38.772a17.497 17.497 0 00-.43 5.411s-9.519 15.405 9.522 33.668z" fill="#632F00"/><path d="M233.522 800.585c34.211 0 61.944-2.112 61.944-4.718 0-2.605-27.733-4.718-61.944-4.718s-61.944 2.113-61.944 4.718c0 2.606 27.733 4.718 61.944 4.718z" fill="#D8D8D8"/><path d="M202.918 777.864c.815 3.132.505 4.253.825 6.295.4 2.531 2.723 3.453 4.069 5.531 1.483 2.29 3.811 5.963-5.283 6.148-9.736.195-15.504-.479-13.853-5.989 1.651-5.511 1.976-7.938 1.861-9.733-.115-1.795.005-3.668 1.104-4.747 1.1-1.078 9.842-3.017 11.277 2.495z" fill="#8C4200"/><path d="M204.975 602.689s-15.37-24.557 6.448-58.756c0 0 17.003 7.62 30.619 8.54 10.725.724 16.166-.387 16.166-.387s.903 32.879.941 50.601h-54.174v.002zm10.357 71.363c4.205-17.751-13.245-20.877-18.754-8.034-7.793 18.163-7.173 97.944-6.756 109.534.053 1.517.846 1.233 1.693.926 2.483-.897 4.564-1.253 5.551-1.042a33.504 33.504 0 015.731 2.386c1.639-15.786 8.468-86.581 12.535-103.77z" fill="#3A3A3A"/><path d="M231.022 605.084c1.842-22.051-6.562-39.182-19.728-31.896-5.542 3.064-7.571 9.196-8.314 14.968-.743 5.773-4.823 65.769-6.252 76.61-3.221 24.44 15.355 17.854 17.37 11.082 5.084-17.102 15.921-58.749 16.924-70.764zm31.017 67.822c.689-16.547-13.134-15.589-18.713-2.731-12.05 27.777.088 86.918 2.562 114.813 2.701-4.49 7.82-6.011 9.023-5.915a4.286 4.286 0 013.01 1.695c-.396-34.221 3.378-90.169 4.118-107.862z" fill="#3A3A3A"/><path d="M243.946 674.702c2.06 6.756 19.811 14.575 17.956-10.019-.822-10.908-3.01-71.144-3.436-76.951-.426-5.806-1.392-14.293-4.196-15.352-14.017-5.297-27.61 12.024-23.921 33.827 2.462 14.576 9.322 54.481 13.597 68.495z" fill="#3A3A3A"/><path d="M257.87 781.266c.736 1.433 4.256 4.744 9.136 6.928 4.88 2.183 15.214 3.202 9.471 5.124-5.742 1.923-12.438.754-15.833.213a68.217 68.217 0 00-10.678-.645c-5.277-.036-5.317-.361-4.61-6.318.983-8.198 10.141-9.934 12.514-5.302z" fill="#8C4200"/><path d="M208.504 550.545l2.709 3.821a7.066 7.066 0 017.15 3.739c2.292 4.495-5.818 10.123-8.124 8.047-2.306-2.076-7.32-11.67-7.32-11.67l5.585-3.937z" fill="#FFE1BD"/><path d="M188.243 538.423a193.847 193.847 0 0115.01 17.801l1.398-.942 5.352-3.645s-10.979-23.019-14.098-34.258a39.982 39.982 0 00-6.462-13.061c.208-.201.403-.399.611-.614 7.958-8.483 14.161-19.422 18.879-26.125a26.939 26.939 0 004.516-10.797c.464-2.633.49-5.324.076-7.965-.673-4.202-2.438-8.073-6.499-9.072a7.21 7.21 0 00-4.463.337 8.094 8.094 0 00-3.822 3.243c-6.203 10.048-23.775 37.247-26.538 43.956a14.169 14.169 0 00-.941 3.435c-.082.389-.145.782-.188 1.178-1.067 11.004 9.846 29.135 17.169 36.529z" fill="#F4F4F4"/><path d="M188.243 538.423a193.847 193.847 0 0115.01 17.801l1.398-.942s-8.056-11.237-11.863-15.789c-5.833-6.97-9.935-12.408-13.415-18.81-3.48-6.402-5.119-18.743-3.275-22.208 1.829-3.464 12.107-18.766 14.311-21.708 2.205-2.927 20.242-20.945 15.064-25.966a3.643 3.643 0 00-2.909-.718 8.094 8.094 0 00-3.823 3.242c-6.203 10.048-23.775 37.247-26.538 43.956a14.169 14.169 0 00-.941 3.435c-.082.389-.145.782-.188 1.178-1.067 11.004 9.846 29.135 17.169 36.529z" fill="#EAEAEA"/><path d="M216.987 554.576s-2.479 8.754-13.494 13.786c-9.502 4.341 15.215 6.824 15.766 5.858.551-.965 5.301-16.941 5.301-16.941l-7.573-2.703z" fill="#3A3A3A"/><path d="M406.32 786.07l2.318-124.113h-8.246l2.318 124.113a1.862 1.862 0 00.354 1.573 1.842 1.842 0 001.451.701 1.842 1.842 0 001.451-.701 1.844 1.844 0 00.354-1.573zm-75.786-14.518l47.894-114.501-7.664-3.046-43.585 116.213a1.852 1.852 0 00-.252 1.594 1.846 1.846 0 001.09 1.189 1.84 1.84 0 001.608-.116 1.855 1.855 0 00.909-1.333zm147.964 0l-47.896-114.501 7.665-3.046 43.585 116.212a1.862 1.862 0 01-.155 2.315 1.863 1.863 0 01-1.499.596 1.854 1.854 0 01-1.7-1.576z" fill="#723E24"/><path d="M369.433 657.555l4.877 1.938-45.018 113.417a2.639 2.639 0 001.243-1.359l47.893-114.5-7.664-3.046-1.331 3.55zm31.02 7.669h6.145l-2.299 123.097c.071.015.144.024.217.028a2.125 2.125 0 001.804-2.279l2.318-124.113h-8.246l.061 3.267zm81.398 104.994l-43.585-116.212-7.665 3.046.882 2.105 4.742-1.884 43.335 115.545a1.634 1.634 0 001.454.188 2.128 2.128 0 00.837-2.788z" fill="#000" opacity=".3"/><path d="M464.55 619.489c0 47.602-26.879 59.001-60.035 59.001-33.156 0-60.035-11.397-60.035-59.001 0-47.603 26.879-93.607 60.035-93.607 33.156 0 60.035 46.005 60.035 93.607z" fill="#E8F6F7"/><path d="M409.336 667.773c-33.157 0-60.035-11.396-60.035-59a130.36 130.36 0 018.721-46.793c-8.467 16.439-13.541 36.827-13.541 57.51 0 47.602 26.879 59.001 60.035 59.001 25.995 0 48.129-7.01 56.478-32.977-10.461 17.245-29.678 22.259-51.658 22.259z" fill="#D0E0E2"/><path d="M375.734 607.018s-7.714 16.454-9.284 27.45c-2.294 16.053 1.095 23.007 21.581 23.647 20.486.641 26.458-3.356 36.227-3.356 9.769 0 21.123-18.541 8.543-40.557l-57.067-7.184z" fill="#09424C"/><path d="M384.533 741.819l-.376 6.227s-6.054 17.857-6.352 22.361c-.521 7.853 2.942 16.643 6.308 16.593 3.838-.056 9.126-4.98 11.483-14.82 1.6-6.664-.989-19.715-.069-22.778.92-3.063 2.776-9.001 2.776-9.001l-13.77 1.418z" fill="#FFE1BD"/><path d="M396.078 768.354c-2.653 2.681-8.049 8.322-10.191 8.214-2.223-.112-6.115-6.951-7.411-9.78a24.51 24.51 0 00-.669 3.616c-.521 7.852 2.942 16.642 6.308 16.593 3.838-.057 9.126-4.981 11.483-14.821.275-1.257.436-2.536.48-3.822z" fill="#8C4200"/><path d="M398.001 744.85s24.477-77.374 27.532-86.894c3.056-9.519 5.521-27.62-8.647-30.777-12.237-2.727-17.369 15.541-19.608 26.794-2.238 11.253-13.511 86.354-13.511 86.354s-1.33 4.223 5.976 5.432c7.306 1.208 8.258-.909 8.258-.909z" fill="#0C5A71"/><path d="M412.584 627.1c-5.315 7.275-8.011 20.847-9.516 28.403-2.238 11.25-13.397 87.89-13.397 87.89s1.881.965 5.952 2.788a14.186 14.186 0 00-1.945-.007c-7.877.565-9.797-4.309-9.797-4.309s11.16-76.641 13.398-87.889c1.956-9.829 6.122-25.02 15.305-26.876z" fill="#000" opacity=".1"/><path d="M353.839 738.839l-.814 6.184s-7.307 17.381-7.928 21.85c-1.076 7.795 1.753 16.81 5.114 17 3.832.217 9.457-4.318 12.506-13.965 2.07-6.534.413-19.736 1.55-22.726 1.136-2.991 3.408-8.776 3.408-8.776l-13.836.433z" fill="#FFE1BD"/><path d="M363.47 766.132c-2.836 2.485-8.62 7.728-10.748 7.468-2.209-.27-5.61-7.369-6.697-10.283a24.523 24.523 0 00-.928 3.556c-1.076 7.796 1.753 16.81 5.114 17 3.832.217 9.457-4.318 12.506-13.965a21.2 21.2 0 00.753-3.776z" fill="#8C4200"/><path d="M367.058 742.824s29.911-75.436 33.636-84.713c3.724-9.278 7.468-27.157-6.44-31.316-12.012-3.591-18.43 14.269-21.461 25.331-3.031 11.062-19.611 85.173-19.611 85.173s-1.627 4.118 5.575 5.84c7.203 1.721 8.301-.315 8.301-.315z" fill="#0C5A71"/><path d="M389.972 626.406c-5.819 6.876-9.472 20.224-11.51 27.656-3.032 11.061-19.606 86.712-19.606 86.712s1.807 1.097 5.738 3.203a14.295 14.295 0 00-1.94-.145c-7.897 0-9.466-4.992-9.466-4.992s16.575-75.652 19.607-86.713c2.647-9.665 7.882-24.519 17.177-25.721z" fill="#000" opacity=".1"/><path d="M388.932 450.57s2.711-11.656 22.117-7.911c18.523 3.573 17.355 29.444 19.51 36.481a163.693 163.693 0 006.624 16.549 1.401 1.401 0 01.013 1.15 1.397 1.397 0 01-.34.479 1.433 1.433 0 01-.505.3c-6.846 2.278-35.909 10.813-55.73-1.091a9.43 9.43 0 01-3.951-4.481 6.67 6.67 0 01-.534-2.767c.134-3.101 1.881-6.875.539-15.917-1.343-9.042.267-23.062 12.257-22.792z" fill="#0B0B3A"/><path d="M383.229 475.566a10.64 10.64 0 00-1.571 8.183 5.49 5.49 0 005.449 4.952l.614-5.086-1.348-8.948-3.144.899zm43.338 0a10.626 10.626 0 011.572 8.183 5.494 5.494 0 01-5.449 4.952l-.613-5.086 1.347-8.948 3.143.899z" fill="#FFE1BD"/><path d="M429.712 574.563a74.307 74.307 0 00.334 13.909c.565 5.913 2.54 27.574 2.54 27.574a71.97 71.97 0 01-12.264 3.302c-10.4 1.985-28.312-3.345-44.929-9 0 0 6.1-15.002 6.187-27.347a77.145 77.145 0 00-.108-5.201 110.042 110.042 0 00-1.778-11.373 252.46 252.46 0 01-.518-2.913c-.624-3.615-1.25-7.585-1.693-11.631a90.658 90.658 0 01-.603-12.127c-1.505-10.855 1.811-21.537 1.811-21.537s13.697-5.729 19.485-6.506c0 0 10.26-2.355 17.47.043 9.43 3.129 14.592 4.952 18.828 7.272.452.249 3.198 8.298 1.994 15.386-1.768 10.391-4.375 24.644-5.776 33.211-.56 3.421-.926 5.936-.98 6.938z" fill="#FFD04D"/><path opacity=".39" d="M432.589 618.584a41.68 41.68 0 00-12.265.764c-2.888-7.456-1.981-34.533-1.981-34.533-8.083-1.348-20.379-6.204-20.379-6.204-3.234 1.533-13.235 3.723-16.382 4.392a77.145 77.145 0 00-.108-5.201 110.042 110.042 0 00-1.778-11.373c3.783-2.644 10.809 3.194 10.809 3.194l35.479-5.578a28.505 28.505 0 014.71 3.58c-.565 3.42-.927 5.933-.981 6.937a74.222 74.222 0 00.334 13.909c.559 5.914 2.542 30.113 2.542 30.113z" fill="#CE9006"/><path d="M425.034 469.718c0 5.212-1.045 17.331-4.311 25.356a22.557 22.557 0 01-9.182 10.984c-.043 2.083-.086 4.824 1.369 5.051.421.928.949 1.165.668 2.622-.981 5.18-7.005 10.909-8.482 12.343-1.477 1.435-2.403 0-2.403 0a33.234 33.234 0 01-4.398-6.506 41.913 41.913 0 01-1.693-3.572 4.488 4.488 0 01.409-4.122c1.6-.194 1.013-3.625.884-5.462-3.082-2.201-5.992-5.967-8.159-10.391-4.343-8.88-4.58-20.166-4.58-26.305a19.973 19.973 0 015.841-14.116 19.924 19.924 0 0128.198.002 19.977 19.977 0 015.839 14.116z" fill="#FFE1BD"/><path d="M411.272 506.156c-1.175.432-5.971 2.299-6.897 4.316-1.045 2.32-1.638 6.074-2.619 7.132a11.621 11.621 0 01-3.459 1.964 41.662 41.662 0 01-1.694-3.572 4.484 4.484 0 01.409-4.121c1.6-.194 1.014-3.626.884-5.463a16.337 16.337 0 006.303 1.154 37.08 37.08 0 007.073-1.41z" fill="#E8C5A0"/><path d="M418.559 558.952a39.439 39.439 0 014.176-.607c1.01 0-1.882 9.07-1.882 9.07a4.74 4.74 0 00-2.29-1.318c-1.245-.203-.774-7.047-.774-7.047l.77-.098z" fill="#FFE1BD"/><path d="M434.479 519.025s9.017 4.64 8.478 11.654c-.54 7.014-11.092 45.323-12.909 50.363-1.816 5.04-47.803-10.25-47.803-10.25s1.438-6.157 2.694-7.845c0 0 31.434 3.349 35.561 4.968 0 0 6.377-30.393 8.353-35.787 1.975-5.394 5.626-13.103 5.626-13.103z" fill="#D69507"/><path d="M419.194 566.741c-4.775 2.698-41.083 17.801-44.446 16.864-3.362-.937-7.415-3.916-7.954-12.818-.47-7.898 4.095-39.027 5.162-46.234a6.376 6.376 0 011.359-3.108c.219-.237.453-.46.7-.669a18.661 18.661 0 014.677-2.557c.453 1.025.334 5.233.895 12.621.065.838.01 1.681-.162 2.503-.905 4.306-2.005 9.916-1.94 12.895.001.18.012.36.033.539.312 3.129 2.634 9.064 2.673 11.567.075 5.913.053 6.744.043 6.841 1.304-.216 5.833-1.025 11.36-2.007 11.413-2.05 27.062-4.867 27.062-4.867 1.356 2.895.538 8.43.538 8.43z" fill="#EFAF11"/><path d="M381.118 477.545s6.308-1.067 9.948-5.801a33.025 33.025 0 004.417-8.789s2.205 4.743 9.614 8.115a76.591 76.591 0 0022.955 6.475s.49-17.265-5.168-24.278c-5.657-7.013-20.342-11.059-30.311-4.992-9.969 6.068-11.455 29.27-11.455 29.27z" fill="#0B0B3A"/><path d="M397.077 511.747s1.035 9.306 5.616 14.33c0 0-1.52-.502-4.341 2.9a.732.732 0 01-1.076.049.73.73 0 01-.194-.349c-.876-3.784-3.746-13.047-2.15-16.268a2.272 2.272 0 012.145-.662zm15.692-.685a61.323 61.323 0 01-2.799 7.967 28.27 28.27 0 01-5.102 7.252s3.528.655 5.161 2.981a.569.569 0 00.821.12.58.58 0 00.183-.246c1.06-2.046 1.665-3.9 2.845-8.115 1.345-4.803 1.399-7.441 1.242-9.427a2.041 2.041 0 00-2.351-.532z" fill="#CE9006"/><path opacity=".39" d="M377.658 567.68c-3.678-3.141.711-9.136.399-11.233-.312-2.096-.302-2.448-.571-4.563a17.6 17.6 0 01.033-5.104c.312 3.129 2.634 9.064 2.673 11.567.075 5.913.053 6.744.043 6.841 1.304-.216 13.481-2.4 19.01-3.382 1.292.682-19.111 7.989-21.587 5.874z" fill="#CE9006"/><path d="M384.131 564.508l-3.892.685a62.286 62.286 0 00-7.293-.205 23.358 23.358 0 00-5.579 1.192.76.76 0 01-.823-.344.762.762 0 01-.106-.297 11.132 11.132 0 01-.471-3.99c.16-1.324.502-2.619 1.015-3.849a1.582 1.582 0 01.931-.854c1.446-.511 3.167-.456 5.687-.241a7.315 7.315 0 015.726 2.954l1.599 1.906a3.614 3.614 0 002.01 1.189l1.925.402s-.214.342-.396.699a6.918 6.918 0 00-.333.753z" fill="#FFE1BD"/><path d="M305.999 602.384l1.803-34.871h-17.048l1.802 34.871h13.443z" fill="#FAFEFF"/><path d="M294.086 600.746l-1.583-31.595h13.549l-1.583 31.595h-10.383z" fill="#B4EFF9"/><path d="M293.023 576.878l1.063 23.868h10.383l1.064-23.868h-12.51z" fill="#75D9EF"/><path opacity=".5" d="M295.182 597.337h2.834l-1.675-24.894c-.343-3.008-3.152-3.172-2.709.257l1.55 24.637z" fill="#fff"/><path d="M330.206 607.154h-78.991v4.952h78.991v-4.952z" fill="#282C2D"/><path d="M323.533 602.232h-71.552v3.973h71.552v-3.973z" fill="#D6D6D6"/><path d="M327.253 605.259h-78.991v1.896h78.991v-1.896z" fill="#525252"/><path d="M322.064 603.756h-68.613v.41h68.613v-.41zm0 .889h-68.613v.409h68.613v-.409zm0-1.817h-68.613v.409h68.613v-.409z" fill="#A5A5AF"/><path d="M640.421 603.071H607.8v8.103h32.621v-8.103z" fill="#F1F2F2"/><path d="M640.423 603.071h-10.295v8.103h10.295v-8.103z" fill="#A7A9AC"/><path d="M638.407 603.071h-32.621v.93h32.621v-.93zm0 7.173h-32.621v.93h32.621v-.93z" fill="#A7A9AC"/><path d="M673.582 603.071h-42.569v8.103h42.569v-8.103z" fill="#383838"/><path d="M658.363 604.955h-22.774v4.336h22.774v-4.336z" fill="#A7A9AC"/><path d="M657.136 605.188h-20.321v3.868h20.321v-3.868z" fill="#E6E7E8"/><path d="M667.642 609.297c1.469 0 2.66-.972 2.66-2.171 0-1.199-1.191-2.171-2.66-2.171s-2.661.972-2.661 2.171c0 1.199 1.192 2.171 2.661 2.171zm-39.296-4.751h-18.605v.819h18.605v-.819zm0 3.155h-18.605v.818h18.605v-.818zm0 1.18h-18.605v.819h18.605v-.819zm-1.18-2.523h-11.592v.818h11.592v-.818zm-12.523 0h-4.902v.818h4.902v-.818z" fill="#A7A9AC"/><path d="M634.279 595.159h-32.621v8.104h32.621v-8.104z" fill="#F1F2F2"/><path d="M634.279 595.159h-10.295v8.104h10.295v-8.104z" fill="#A7A9AC"/><path d="M632.265 595.159h-32.621v.932h32.621v-.932zm0 7.173h-32.621v.931h32.621v-.931z" fill="#A7A9AC"/><path d="M667.439 595.159h-42.568v8.104h42.568v-8.104z" fill="#58595B"/><path d="M652.221 597.044h-22.774v4.335h22.774v-4.335z" fill="#A7A9AC"/><path d="M650.994 597.277h-20.321v3.869h20.321v-3.869z" fill="#E6E7E8"/><path d="M661.499 601.387c1.47 0 2.661-.972 2.661-2.171 0-1.199-1.191-2.171-2.661-2.171-1.469 0-2.66.972-2.66 2.171 0 1.199 1.191 2.171 2.66 2.171zm-39.294-4.753H603.6v.818h18.605v-.818zm0 3.155H603.6v.819h18.605v-.819zm0 1.181H603.6v.82h18.605v-.82zm-1.182-2.523h-11.592v.819h11.592v-.819zm-12.522 0H603.6v.819h4.901v-.819z" fill="#A7A9AC"/><path d="M640.421 587.248H607.8v8.104h32.621v-8.104z" fill="#F1F2F2"/><path d="M640.423 587.248h-10.295v8.104h10.295v-8.104z" fill="#A7A9AC"/><path d="M638.407 587.248h-32.621v.931h32.621v-.931zm0 7.174h-32.621v.93h32.621v-.93z" fill="#A7A9AC"/><path d="M673.582 587.248h-42.569v8.104h42.569v-8.104z" fill="#594A42"/><path d="M658.363 589.133h-22.774v4.335h22.774v-4.335z" fill="#A7A9AC"/><path d="M657.136 589.367h-20.321v3.868h20.321v-3.868z" fill="#E6E7E8"/><path d="M667.642 593.476c1.469 0 2.66-.972 2.66-2.172 0-1.2-1.191-2.172-2.66-2.172s-2.661.972-2.661 2.172c0 1.2 1.192 2.172 2.661 2.172zm-39.296-4.752h-18.605v.819h18.605v-.819zm0 3.155h-18.605v.819h18.605v-.819zm0 1.18h-18.605v.819h18.605v-.819zm-1.18-2.524h-11.592v.819h11.592v-.819zm-12.523 0h-4.902v.819h4.902v-.819z" fill="#A7A9AC"/><path d="M676.399 610.957l1.804-26.825h-17.049l1.803 26.825h13.442z" fill="#FAFEFF"/><path d="M664.487 609.319l-1.584-23.549h13.55l-1.583 23.549h-10.383z" fill="#B4EFF9"/><path d="M663.422 593.498l1.064 15.821h10.384l1.064-15.821h-12.512z" fill="#75D9EF"/><path opacity=".5" d="M665.582 605.908h2.833l-1.674-16.849c-.344-3.008-3.153-3.172-2.71.259l1.551 16.59z" fill="#fff"/><path d="M332.093 583.708a16.376 16.376 0 0010.271 13.272.086.086 0 00.102-.049.083.083 0 00.002-.06.087.087 0 00-.039-.047c-5.418-2.554-9.434-7.021-10.192-13.117-.011-.094-.155-.094-.144 0v.001z" fill="#81553A"/><path d="M341.89 574.704a19.897 19.897 0 01-3.692 21.549.09.09 0 00-.026.063c0 .023.01.046.026.063a.09.09 0 00.127 0 19.535 19.535 0 003.678-21.74c-.034-.078-.146-.011-.113.066v-.001zm15.655 3.362c2.916 3.712 1.279 7.989-.565 11.773-1.628 3.34-4.944 4.91-8.174 6.319a.114.114 0 00-.055.065.121.121 0 00.003.086.125.125 0 00.06.062.122.122 0 00.086.005c4.144-1.473 7.252-3.781 8.963-7.876 1.528-3.654 2.498-7.226-.176-10.57-.08-.1-.217.041-.14.139l-.002-.003z" fill="#81553A"/><path d="M355.856 589.896a7.527 7.527 0 007.217-2.956.089.089 0 00.002-.058.09.09 0 00-.033-.048.1.1 0 00-.055-.02.102.102 0 00-.056.017 8.375 8.375 0 01-7.055 2.94.06.06 0 00-.041.016.06.06 0 00-.021.039.06.06 0 00.01.043c.008.013.02.022.035.027h-.003zm-7.55-13.929c-.453 4.003-1.548 10.892-5.594 12.866a.096.096 0 00-.04.119.098.098 0 00.046.048c.021.01.045.012.067.006 4.269-1.587 5.295-9.23 5.672-13.039.009-.095-.139-.095-.15 0h-.001zm-23.571 5.624a9.074 9.074 0 003.152 5.757 9.05 9.05 0 006.208 2.117.061.061 0 00.043-.017.06.06 0 00.018-.044.058.058 0 00-.018-.043.062.062 0 00-.043-.018 9.271 9.271 0 01-9.228-7.788c-.015-.087-.144-.049-.131.036h-.001z" fill="#81553A"/><path d="M362.471 592.428h-33.818s-2.742 6.612-2.742 8.246c0 1.634 3.736 4.978 7.758 4.978h23.787c4.022 0 7.758-3.345 7.758-4.978 0-1.634-2.743-8.246-2.743-8.246z" fill="#FFD04D"/><path d="M358.876 607.353h-26.628l.931-1.701h24.766l.931 1.701zm-22.685-6.679c0-1.634 2.741-8.246 2.741-8.246h-10.279s-2.742 6.612-2.742 8.246c0 1.634 3.736 4.978 7.758 4.978h10.279c-4.025 0-7.757-3.345-7.757-4.978z" fill="#EFAF11"/><path d="M333.179 605.652l-.93 1.701h10.28l.93-1.701h-10.28z" fill="#EFAF11" opacity=".55"/><path d="M344.297 580.121c.769-.602 3.799-1.677 5.823-.398a8.716 8.716 0 014.207 6.833 21.45 21.45 0 01-5.59.535c-6.331-.497-5.866-5.854-4.44-6.97zm15.411-3.373c.511-.439 2.565-1.277 4-.46a6.018 6.018 0 013.117 4.574c-1.249.35-2.538.534-3.835.548-4.378-.141-4.229-3.846-3.282-4.662zm-1.389-2.186a2.835 2.835 0 00-2.753.204 4.163 4.163 0 00-1.505 3.509 10.09 10.09 0 002.654-.123c2.927-.661 2.348-3.159 1.604-3.59zm-30.074 3.146a3.816 3.816 0 00-2.145-.326 2.91 2.91 0 00-2.179 3.888 2.605 2.605 0 002.242 1.319c1.729.217 3.799-1.137 5.521-1.695a7.366 7.366 0 00-3.439-3.186zm4.491 4.459a2.324 2.324 0 00-1.259 1.915 2.098 2.098 0 002.115 1.695c.991.047 4.528-.921 6.036-.146-2.622-4.976-5.274-4.489-6.892-3.464zm29.823 1.735a2.051 2.051 0 00-1.247 1.439 1.647 1.647 0 001.261 1.751c.717.188 3.47-.118 4.442.761.002-3.772-3.098-4.584-4.456-3.951zm-18.813 4.864c.806-.233 3.857-.499 5.119 1.137 2.305 2.984.323 5.557.068 6.467a19.364 19.364 0 01-4.714-1.325c-5.005-2.366-3.215-5.859-.473-6.279zm-11.046.533c-.735-.247-3.221-.211-4.25 1.369a7.523 7.523 0 00-.817 6.535c1.425-.198 2.815-.6 4.127-1.194 4.325-2.215 2.302-6.252.94-6.71zm8.061-14.902a2.36 2.36 0 011.771 1.318 1.915 1.915 0 01-1.02 2.294c-.774.388-3.993.732-4.892 1.967.119-5.48 2.438-5.956 4.141-5.579z" fill="#709E3E"/><g opacity=".62" fill="#93BC6C"><path opacity=".62" d="M323.774 579.74a16.042 16.042 0 017.816 1.362c.041.018.077-.042.036-.061a15.137 15.137 0 00-7.852-1.36c-.037 0-.038.062 0 .059zm.934-.624a7.564 7.564 0 015.978.612.03.03 0 00.026.003.039.039 0 00.02-.016.04.04 0 00.004-.026.04.04 0 00-.015-.021 6.921 6.921 0 00-6.028-.604c-.006.002-.01.007-.013.013a.028.028 0 00-.001.018.023.023 0 00.01.015c.006.004.012.006.018.005l.001.001zm-.447.969c.847 1.87 3.908 1.614 5.521 1.188a.052.052 0 00.031-.025.05.05 0 00.005-.04.05.05 0 00-.025-.032.055.055 0 00-.04-.005c-1.567.388-4.596.684-5.437-1.118-.018-.037-.072-.004-.056.032h.001zm7.973 2.819a5.418 5.418 0 016.882 2.345.03.03 0 00.018.013.034.034 0 00.022-.002.031.031 0 00.014-.018.028.028 0 00-.003-.022 5.339 5.339 0 00-6.954-2.368.025.025 0 00-.014.016.026.026 0 000 .021.028.028 0 00.015.015.026.026 0 00.021.001l-.001-.001z"/><path opacity=".62" d="M332.568 583.246c2.131.262 4.211.841 6.172 1.716.021.01.04-.02.018-.031a17.917 17.917 0 00-6.191-1.744c-.038 0-.037.056 0 .059h.001zm-.683.579a11.316 11.316 0 006.586 1.497c.055-.004.056-.094 0-.087a12.305 12.305 0 01-6.565-1.449.022.022 0 00-.016 0c-.005.001-.009.005-.012.01a.02.02 0 00-.003.015c.001.005.004.01.009.014h.001zm4.934-4.089a12.315 12.315 0 014.718-4.427.051.051 0 00.024-.03.05.05 0 00-.006-.038.048.048 0 00-.03-.024.05.05 0 00-.038.006 10.745 10.745 0 00-4.726 4.494.025.025 0 00.001.012.03.03 0 00.014.019.03.03 0 00.023.003.03.03 0 00.019-.014l.001-.001zm2.015-.954a7.021 7.021 0 003.678-3.269.04.04 0 00-.017-.052.04.04 0 00-.028-.005.042.042 0 00-.025.016 7.678 7.678 0 01-3.623 3.26c-.031.013-.017.064.015.051v-.001zm-1.966-.377a4.847 4.847 0 014.422-3.579.043.043 0 00.027-.015.044.044 0 00-.027-.072 4.761 4.761 0 00-4.489 3.652.027.027 0 00.003.025.03.03 0 00.02.016.037.037 0 00.025-.003.035.035 0 00.016-.02l.003-.004zm17.543-.062a9.374 9.374 0 013.493-3.27.052.052 0 00.018-.069.052.052 0 00-.069-.018 7.798 7.798 0 00-3.495 3.326l-.004.011.001.012a.03.03 0 00.014.019.03.03 0 00.023.003.03.03 0 00.019-.014zm1.484-.705a5.124 5.124 0 002.729-2.422.037.037 0 00.001-.029.038.038 0 00-.018-.023.035.035 0 00-.028-.004.038.038 0 00-.025.016 5.794 5.794 0 01-2.674 2.411c-.031.013-.017.064.015.051z"/><path opacity=".62" d="M354.447 577.358a3.591 3.591 0 013.267-2.643.049.049 0 00.027-.015.044.044 0 000-.058.049.049 0 00-.027-.015 3.517 3.517 0 00-3.332 2.726.02.02 0 00.004.012.032.032 0 00.02.016.037.037 0 00.025-.003.039.039 0 00.016-.02zm-26.552 19.372a22.579 22.579 0 015.679-6.97.035.035 0 00.008-.022.04.04 0 00-.008-.023.036.036 0 00-.043-.011 18.839 18.839 0 00-5.687 6.998c-.017.035.034.066.052.031l-.001-.003z"/><path opacity=".62" d="M327.599 596.836a6.6 6.6 0 011.127-4.777 6.585 6.585 0 014.111-2.674.038.038 0 00.023-.018.045.045 0 00.004-.03.038.038 0 00-.018-.023.037.037 0 00-.029-.005 6.572 6.572 0 00-5.289 7.547c.006.048.079.028.072-.02h-.001zm.602-.167a6.346 6.346 0 004.029-1.899 6.364 6.364 0 001.792-4.082c0-.043-.06-.04-.065 0a6.458 6.458 0 01-1.811 3.996 6.435 6.435 0 01-3.945 1.913c-.045.005-.046.078 0 .073v-.001zm14.45-7.26a9.333 9.333 0 015.28 6.435.028.028 0 00.014.018.026.026 0 00.024.003.031.031 0 00.018-.014.03.03 0 00.003-.023 9.07 9.07 0 00-5.31-6.466c-.031-.014-.06.032-.028.047h-.001z"/><path opacity=".62" d="M343.011 589.557c2.916.434 6.178 1.457 6.049 5.037 0 .01.004.02.011.028a.043.043 0 00.028.011.04.04 0 00.04-.039c.282-3.617-3.199-4.691-6.115-5.096-.039-.005-.056.053-.016.06l.003-.001zm-.154.492c-.597 2.739 2.134 4.275 4.311 5.045a.033.033 0 00.022-.001c.006-.003.012-.008.014-.015a.033.033 0 00.001-.022.036.036 0 00-.014-.016c-2.027-.941-4.856-2.203-4.271-4.975.008-.04-.054-.058-.063-.016zm1.247-8.896c.062 3.978 5.841 5.225 8.937 5.222a.028.028 0 00.02-.008.027.027 0 00.009-.02.025.025 0 00-.009-.02.028.028 0 00-.02-.008c-3.092-.111-8.739-1.206-8.905-5.166a.016.016 0 00-.005-.011.016.016 0 00-.011-.005.016.016 0 00-.011.005.016.016 0 00-.005.011z"/><path opacity=".62" d="M344.87 581.639a40.877 40.877 0 008.771 4.744c.042.016.06-.051.019-.067a42.96 42.96 0 01-8.769-4.709c-.021-.016-.042.02-.021.035v-.003zm.068-.628a15.014 15.014 0 018.817 5.199c.041.047.106-.02.068-.067a14.395 14.395 0 00-8.87-5.181c-.033-.005-.049.046-.014.052l-.001-.003z"/><path opacity=".62" d="M345.314 580.057c4.393-.25 8.152 1.406 8.636 6.232a.031.031 0 00.011.019.034.034 0 00.021.008.035.035 0 00.022-.008.031.031 0 00.011-.019 6.37 6.37 0 00-2.352-4.885c-1.836-1.486-4.098-1.563-6.354-1.404-.037 0-.038.06 0 .058l.005-.001zm13.955-2.395c.314 2.844 4.544 3.391 6.782 3.202a.028.028 0 00.02-.008.028.028 0 00.008-.02.03.03 0 00-.008-.02.028.028 0 00-.02-.008c-2.244.072-6.334-.317-6.751-3.149a.024.024 0 00-.006-.009c-.002-.002-.006-.003-.009-.003a.017.017 0 00-.01.003.024.024 0 00-.006.009v.003z"/><path opacity=".62" d="M359.852 577.967a29.995 29.995 0 006.634 2.87c.008.002.017 0 .025-.004a.036.036 0 00.015-.021.036.036 0 00-.002-.025.035.035 0 00-.019-.017 32.176 32.176 0 01-6.631-2.839.026.026 0 00-.015-.001.023.023 0 00-.012.01c-.003.004-.003.009-.002.015a.02.02 0 00.008.012h-.001zm.026-.442a11.088 11.088 0 016.679 3.184c.01.008.021.012.034.012a.043.043 0 00.032-.014.045.045 0 00.014-.032.046.046 0 00-.012-.034 10.516 10.516 0 00-6.742-3.169c-.035 0-.034.051 0 .054l-.005-.001z"/><path opacity=".62" d="M360.096 576.833c3.117-.397 5.943.513 6.607 3.918a.031.031 0 00.035.022.03.03 0 00.02-.01.037.037 0 00.009-.02 4.418 4.418 0 00-1.967-3.331 6.47 6.47 0 00-4.712-.636.026.026 0 00-.017.012.028.028 0 00-.004.02.031.031 0 00.009.018.03.03 0 00.02.007zm1.27 8.67a2.21 2.21 0 001.365 1.024c.576.149 1.187.075 1.774.178a6.78 6.78 0 012.422.972h.004l.003-.003v-.003l-.001-.004a6.532 6.532 0 00-2.787-1.064c-1.045-.127-2.14-.08-2.744-1.12a.02.02 0 00-.013-.009.02.02 0 00-.015.002.02.02 0 00-.009.013.02.02 0 00.002.015l-.001-.001zm.377-.519a6.472 6.472 0 015.03 2.499.011.011 0 00.008.003c.003 0 .007-.001.009-.003.003-.002.004-.005.005-.008a.01.01 0 00-.001-.009 6.24 6.24 0 00-5.052-2.529.02.02 0 00-.016.007c-.005.004-.007.01-.007.017a.02.02 0 00.007.016.02.02 0 00.016.007h.001z"/><path opacity=".62" d="M362.33 584.643a3.37 3.37 0 012.727.223 3.37 3.37 0 011.655 2.181.03.03 0 00.013.016.027.027 0 00.02.002.031.031 0 00.016-.012.028.028 0 00.002-.02 3.356 3.356 0 00-1.668-2.234 3.356 3.356 0 00-2.778-.206c-.031.011-.018.061.014.05h-.001z"/></g><path d="M325.224 583.335c-.699-.602-3.455-1.678-5.296-.398a10.068 10.068 0 00-4.151 7.107c1.783.333 3.602.421 5.409.262 5.754-.499 5.334-5.855 4.038-6.971zm31.942-6.016c-.587-.407-2.798-1.015-4.114.119a6.936 6.936 0 00-2.402 5.576c1.314.19 2.648.19 3.962 0 4.399-.841 3.645-4.939 2.554-5.695zm-13.872-6.345a2.054 2.054 0 00-1.248 1.44 1.65 1.65 0 001.261 1.751c.717.188 3.47-.118 4.443.761.001-3.773-3.098-4.585-4.456-3.952zm12.882 18.074c.653-.365 3.263-1.235 4.756-.141 2.722 1.997 1.588 4.56 1.578 5.376-1.48.144-2.972.11-4.444-.102-4.947-.904-4.197-4.197-1.89-5.133z" fill="#93BC6C"/><path d="M316.121 589.809a15.67 15.67 0 003.145-2.554 15.22 15.22 0 015.181-3.339c.049-.019.03-.094-.022-.08-3.53 1.088-5.277 4.163-8.349 5.897a.049.049 0 00-.013.012.041.041 0 00-.007.015.037.037 0 00-.001.018.03.03 0 00.005.016c.003.005.007.01.012.013.005.004.01.006.016.008.005.001.011.002.017.001a.044.044 0 00.016-.006v-.001z" fill="#709E3E"/><path d="M316.121 589.425a38.757 38.757 0 012.729-3.993c1.491-1.654 3.253-2.052 5.414-1.977.076 0 .094-.125.018-.137-4.447-.695-6.198 2.854-8.202 6.08a.025.025 0 000 .017.02.02 0 00.011.014.025.025 0 00.032-.006l-.002.002zm1.115.576c3.336-.169 8.958-.865 8.03-5.579a.065.065 0 00-.071-.044.064.064 0 00-.039.02.064.064 0 00-.018.041c.017 1.461-.223 2.985-1.463 3.924-1.656 1.254-4.462 1.412-6.44 1.548-.057 0-.058.094 0 .089l.001.001z" fill="#709E3E"/><path d="M316.469 589.875c1.721-.565 3.552-.905 5.214-1.645 1.637-.73 2.332-2.152 3.156-3.664a.045.045 0 00.004-.034.043.043 0 00-.02-.027.045.045 0 00-.034-.005.04.04 0 00-.027.021c-1.108 1.836-1.983 3.168-4.079 3.949-1.386.517-2.836.848-4.233 1.318-.052.018-.03.101.023.083l-.004.004zm26.599-17.859a9.274 9.274 0 014.307 2.478.032.032 0 00.021.008.032.032 0 00.021-.008.032.032 0 00.008-.021.032.032 0 00-.008-.021 8.12 8.12 0 00-4.337-2.479.022.022 0 00-.016.003.026.026 0 00-.01.013c-.001.006-.001.011.002.016.002.006.006.009.012.011zm-.635.473a1.386 1.386 0 001.066.856c1.015.338 2.043.659 3.079.922l.013.001a.056.056 0 00.012-.004l.01-.009a.024.024 0 00.006-.011l.001-.013a.05.05 0 00-.004-.013.028.028 0 00-.009-.01 35.491 35.491 0 00-2-.653c-.672-.203-1.806-.353-2.086-1.09-.021-.055-.109-.032-.089.024h.001z" fill="#709E3E"/><path d="M343.097 571.724a4.028 4.028 0 014.452 2.572c.015.034.068.009.058-.025a3.903 3.903 0 00-4.536-2.637c-.062.011-.035.104.025.094l.001-.004zm8.026 11.144c2.006-1.344 3.935-2.826 5.86-4.287a.018.018 0 00.007-.01c0-.004 0-.008-.002-.012s-.006-.006-.01-.008a.017.017 0 00-.012.001c-2.07 1.249-3.874 2.911-5.865 4.278-.022.016 0 .053.022.037v.001zm.521-.079c2.223-.34 4.749-1.726 5.631-3.907a.034.034 0 00-.003-.02.033.033 0 00-.015-.014.03.03 0 00-.037.011 7.477 7.477 0 01-5.583 3.904c-.017 0-.01.028.006.026h.001zm-.62-.206a8.799 8.799 0 015.339-4.405.03.03 0 00.019-.014.033.033 0 00.003-.024.033.033 0 00-.015-.018.03.03 0 00-.023-.003 8.33 8.33 0 00-5.388 4.427.036.036 0 00-.002.027.036.036 0 00.017.021.038.038 0 00.027.005.039.039 0 00.023-.016z" fill="#709E3E"/><path d="M352.078 582.87a7.122 7.122 0 004.393-1.1 2.127 2.127 0 00.953-2.576c-.014-.033-.068-.009-.058.025.964 2.947-3.377 3.562-5.288 3.61a.02.02 0 00-.014.006.02.02 0 000 .029c.004.003.009.006.014.006zm-1.229-.697c.65-2.614 2.34-4.742 5.278-4.557.058 0 .055-.083 0-.089-2.943-.334-4.755 2.03-5.345 4.628a.038.038 0 00.005.025.034.034 0 00.045.012.03.03 0 00.017-.018v-.001zm6.053 7.158a23.37 23.37 0 015.287 4.753c.023.026.058-.011.038-.037a21.537 21.537 0 00-5.303-4.753.02.02 0 00-.015 0 .02.02 0 00-.011.009.02.02 0 00-.003.015.024.024 0 00.007.013z" fill="#709E3E"/><path d="M357.144 589.175a6.302 6.302 0 015.183 4.607.032.032 0 00.039.022.034.034 0 00.018-.015.026.026 0 00.003-.024 6.14 6.14 0 00-5.231-4.63c-.027 0-.038.036-.012.04z" fill="#709E3E"/><path d="M357.661 589.024a4.66 4.66 0 013.581 1.036 3.861 3.861 0 011.082 3.036c0 .009.004.018.01.024.007.006.015.01.024.01a.033.033 0 00.023-.01.031.031 0 00.01-.024 3.725 3.725 0 00-1.089-3.097 4.648 4.648 0 00-3.64-1.014c-.023 0-.024.041 0 .038l-.001.001zm-.946.335c-1.516 2.161 3.914 4.441 5.307 4.739a.036.036 0 00.026-.007.036.036 0 00.015-.021.039.039 0 00-.021-.046c-1.317-.368-6.65-2.5-5.28-4.638.019-.03-.028-.055-.047-.027z" fill="#709E3E"/><path d="M356.11 589.575a1.741 1.741 0 00-.195 2.706c1.173 1.35 3.393 1.828 5.092 1.821a.04.04 0 00.03-.012.043.043 0 00.013-.03.043.043 0 00-.013-.03.042.042 0 00-.03-.013 9.653 9.653 0 01-3.079-.604c-1.273-.501-3.951-2.362-1.792-3.794a.023.023 0 00.007-.007c.003-.002.004-.006.005-.009a.017.017 0 000-.01.016.016 0 00-.003-.009l-.007-.008c-.002-.002-.006-.003-.009-.004l-.01-.001a.036.036 0 00-.009.004z" fill="#709E3E"/><path d="M278.104 617.881h-9.432v185.735h9.432V617.881zm388.15 0h-9.433v185.735h9.433V617.881z" fill="#4C2311"/><path d="M685.388 612.471H249.536v8.193h435.852v-8.193z" fill="#4C2311"/><path d="M689.96 610.833H244.965v3.672H689.96v-3.672z" fill="#66341B"/><path d="M416.343 608.938h-94.066v1.895h94.066v-1.895z" fill="#525252"/><path d="M412.37 606.492s-37.183-2.204-42.65 1.638c-7.501-3.423-43.472-1.638-43.472-1.638v2.448h86.122v-2.448z" fill="#D6D6D6"/><path d="M412.37 608.13a421.16 421.16 0 00-10.707-.706c-3.572-.192-7.144-.377-10.719-.471-3.575-.094-7.149-.127-10.724 0-1.788.069-3.568.18-5.335.394-.883.101-1.759.248-2.626.439a7.683 7.683 0 00-2.427.911l-.094.064-.108-.046a13.576 13.576 0 00-2.57-.753 35.862 35.862 0 00-2.68-.41c-1.802-.203-3.615-.313-5.43-.389-3.631-.146-7.269-.134-10.905-.062a357.62 357.62 0 00-10.905.4c-3.634.165-7.266.375-10.897.628 7.249-.654 14.517-1.114 21.796-1.301 3.639-.094 7.281-.131 10.924-.008 1.821.064 3.642.162 5.456.356.908.104 1.815.225 2.716.398a13.2 13.2 0 012.662.768l-.2.019a8.018 8.018 0 012.573-.959 26.738 26.738 0 012.668-.428c1.787-.205 3.574-.304 5.368-.362 3.582-.104 7.163-.05 10.74.068 7.161.236 14.304.749 21.424 1.45z" fill="#A5A5AF"/><path d="M412.371 608.129a826.605 826.605 0 00-10.677-.219 825.92 825.92 0 00-10.676-.149 372.308 372.308 0 00-10.674.064 150.09 150.09 0 00-5.328.208c-.887.056-1.773.116-2.652.217-.871.071-1.734.229-2.574.471l-.056.019-.056-.012a22.317 22.317 0 00-2.655-.282 83.296 83.296 0 00-2.694-.125 236.876 236.876 0 00-5.4-.109c-3.601-.033-7.204-.02-10.807.01l-21.617.312 10.805-.369 10.809-.216c3.603-.054 7.207-.095 10.813-.08 1.803.007 3.605.024 5.409.073.901.025 1.803.054 2.705.108a20.63 20.63 0 012.717.283l-.112.007a13.373 13.373 0 012.671-.47 53.348 53.348 0 012.672-.202 151.3 151.3 0 015.343-.175c3.562-.057 7.123-.039 10.684 0 3.561.038 7.119.119 10.678.221 3.558.119 7.115.257 10.672.415z" fill="#A5A5AF"/><path d="M551.132 608.938h-94.067v1.895h94.067v-1.895z" fill="#525252"/><path d="M547.16 606.492s-37.184-2.204-42.651 1.638c-7.501-3.423-43.472-1.638-43.472-1.638v2.448h86.123v-2.448z" fill="#D6D6D6"/><path d="M547.159 608.13a421.16 421.16 0 00-10.707-.706c-3.572-.192-7.144-.377-10.719-.471-3.574-.094-7.149-.127-10.724 0-1.788.069-3.568.18-5.335.394-.882.101-1.759.248-2.626.439a7.683 7.683 0 00-2.427.911l-.094.064-.108-.046a13.588 13.588 0 00-2.569-.753 35.888 35.888 0 00-2.681-.41c-1.801-.203-3.615-.313-5.43-.389-3.63-.146-7.269-.134-10.904-.062-3.636.072-7.272.217-10.905.4-3.638.165-7.27.375-10.898.628 7.249-.654 14.517-1.114 21.796-1.301 3.639-.094 7.281-.131 10.924-.008 1.821.064 3.642.162 5.457.356.907.104 1.814.225 2.716.398a13.2 13.2 0 012.662.768l-.2.019a8.018 8.018 0 012.573-.959 26.452 26.452 0 012.668-.428c1.787-.205 3.574-.304 5.367-.362 3.582-.104 7.163-.05 10.74.068 7.161.236 14.303.749 21.424 1.45z" fill="#A5A5AF"/><path d="M547.16 608.13c-3.559-.097-7.118-.17-10.677-.22-3.559-.07-7.118-.125-10.677-.149a372.308 372.308 0 00-10.674.064 150.09 150.09 0 00-5.328.208c-.887.056-1.773.116-2.651.217-.872.071-1.735.229-2.575.471l-.056.019-.056-.011a22.113 22.113 0 00-2.655-.283 83.296 83.296 0 00-2.694-.125 236.76 236.76 0 00-5.4-.109c-3.601-.033-7.204-.02-10.807.01l-21.618.312 10.808-.373 10.81-.217c3.604-.054 7.207-.094 10.813-.08 1.803.007 3.605.024 5.409.073.902.026 1.803.054 2.705.109.911.034 1.819.128 2.717.282l-.111.008a13.375 13.375 0 012.671-.471 54.52 54.52 0 012.671-.202 151.3 151.3 0 015.343-.175c3.562-.056 7.124-.038 10.684 0 3.56.039 7.119.12 10.677.221 3.557.122 7.114.262 10.671.421z" fill="#A5A5AF"/><path d="M596.406 769.874l1.564 9.402h7.161l3.081-.528-2.255-14.612-9.551 5.738z" fill="#FFE1BD"/><path d="M606.932 767.182c-.685.317-1.411.594-2.163.857a60.373 60.373 0 01-9.28 2.056c-8.561-14.062-30.775-82.559-30.775-82.559-2.043-8.653 10.936 2.427 16.339 2.097a11.446 11.446 0 014.98.725c5.165 2.19 12.741 16.818 12.741 16.818s2.306 5.052 4.717 15.499c2.411 10.448 3.441 44.507 3.441 44.507z" fill="#1A1A47"/><path opacity=".54" d="M606.932 767.182a24.31 24.31 0 01-2.164.858c-.54-4.169-1.343-10.817-2.529-21.41-2.649-23.743-17.682-50.93-21.187-56.998a11.446 11.446 0 014.98.725c5.165 2.19 12.741 16.818 12.741 16.818s2.306 5.052 4.717 15.5c2.411 10.447 3.442 44.507 3.442 44.507z" fill="#3D3D72"/><path d="M597.505 777.908c1.857.014 3.705-.27 5.472-.841a13.065 13.065 0 004.61-2.92s7.6 4.646 7.59 12.989a1.067 1.067 0 01-.695.979s-18.225 8.105-24.494 10.322a93.436 93.436 0 01-10.058 2.605.883.883 0 01-1.07-.482c-.33-.847-.493-2.334 1.366-3.761 2.822-2.167 5.914-3.94 8.058-5.737 2.144-1.797 4.335-6.753 6.071-8.163a11.513 11.513 0 003.15-4.991z" fill="#1A1A47"/><path d="M635.253 819.383l2.661-142.439h-9.466l2.662 142.439c.031 1.445.958 2.616 2.069 2.616s2.042-1.171 2.074-2.616zm-86.978-16.662l54.968-131.406-8.797-3.497-50.02 133.369c-.504 1.354-.073 2.785.961 3.196 1.034.412 2.327-.33 2.888-1.662zm169.813 0l-54.967-131.406 8.797-3.497 50.02 133.369c.504 1.354.074 2.785-.96 3.196-1.034.412-2.329-.33-2.89-1.662z" fill="#723E24"/><path d="M592.918 671.891l5.598 2.225-51.667 130.166a3.017 3.017 0 001.426-1.56l54.968-131.407-8.797-3.497-1.528 4.073zm35.601 8.801h7.056l-2.639 141.273c.082.018.165.029.249.033 1.113 0 2.04-1.171 2.07-2.616l2.661-142.439h-9.468l.071 3.749zm93.419 120.499l-50.021-133.368-8.797 3.496 1.011 2.417 5.444-2.166 49.733 132.6a1.87 1.87 0 001.668.213c1.035-.407 1.462-1.838.962-3.192z" fill="#000" opacity=".3"/><path d="M566.516 604.683h-86.972l-17.216-54.192a4.23 4.23 0 014.028-5.515h78.101a4.224 4.224 0 014.028 2.949l18.031 56.758z" fill="#fff"/><path d="M565.109 604.683h-83.273l-17.055-53.191a4.163 4.163 0 013.99-5.413h74.486a4.183 4.183 0 013.99 2.895l17.862 55.709z" fill="#E1EDF9"/><path d="M512.866 556.134h-37.943a1.025 1.025 0 010-2.05h37.938a1.023 1.023 0 01.726 1.748c-.191.192-.45.3-.721.302zm5.875 4.736h-42.305a1.023 1.023 0 01-.392-1.971c.124-.052.257-.078.392-.078h42.305a1.02 1.02 0 01.946.633 1.025 1.025 0 01-.946 1.416zm-3.919 4.737h-36.847a1.012 1.012 0 01-.724-.3 1.035 1.035 0 01-.3-.725 1.025 1.025 0 011.024-1.024h36.846a1.025 1.025 0 01.001 2.049zm-6.142 4.737h-29.204a1.025 1.025 0 010-2.05h29.204a1.023 1.023 0 01.724 1.75c-.192.192-.452.3-.724.3zm14.648 4.735h-42.305a1.012 1.012 0 01-.724-.3 1.019 1.019 0 01-.3-.724 1.026 1.026 0 011.024-1.025h42.305a1.025 1.025 0 010 2.049zm-3.945 4.739h-36.846a1.03 1.03 0 01-.724-.3 1.01 1.01 0 01-.221-.333 1.012 1.012 0 010-.784 1.016 1.016 0 01.554-.555 1.03 1.03 0 01.391-.078h36.846a1.023 1.023 0 110 2.05zm8.479 9.471h-42.309a1.01 1.01 0 01-.723-.3 1.019 1.019 0 01-.222-1.117 1.019 1.019 0 01.945-.632h42.306a1.01 1.01 0 01.723.3 1.019 1.019 0 01.3.725 1.022 1.022 0 01-1.02 1.024zm1.54 4.737h-42.306a1.02 1.02 0 01-1.023-1.025 1.025 1.025 0 011.023-1.024h42.306a1.001 1.001 0 01.726.3 1.026 1.026 0 01.221 1.119 1.022 1.022 0 01-.947.63zm22.495 0h-13.661a2.91 2.91 0 01-1.725-.565 2.91 2.91 0 01-1.058-1.477l-11.393-36.1a2.924 2.924 0 011.463-3.488 2.901 2.901 0 011.321-.315h13.665a2.91 2.91 0 012.784 2.042l11.392 36.1a2.925 2.925 0 01-1.465 3.49 2.92 2.92 0 01-1.323.313z" fill="#C2E0F2"/><path d="M573.804 608.628h-94.579a2.802 2.802 0 010-5.602h94.579a2.8 2.8 0 011.979 4.781 2.796 2.796 0 01-1.979.821z" fill="#fff"/><path d="M601.112 533.75a2.37 2.37 0 01-2.07-1.194l-3.146-5.54a2.367 2.367 0 01.952-3.266l8.758-4.632a2.375 2.375 0 013.183.962l2.989 5.494a2.372 2.372 0 01-.948 3.216l-8.6 4.676a2.334 2.334 0 01-1.118.284zm5.596-13.811c-.206 0-.408.05-.59.147l-8.758 4.63a1.285 1.285 0 00-.629.771 1.272 1.272 0 00.116.988l3.147 5.54a1.28 1.28 0 001.718.49l8.6-4.676a1.278 1.278 0 00.509-1.731l-2.987-5.494a1.283 1.283 0 00-1.126-.665z" fill="#1A1A47"/><path d="M565.218 591.026c-.345.449-.713.88-1.102 1.291 0 0-4.586-3.477-5.863-3.805-1.278-.327-3.996.689-5.551.776-1.555.088-1.68-.831-1.68-.831s-5.918 2.47-6.867 2.7c-.95.23-1.595-.088-1.005-1.595a6.379 6.379 0 011.092-1.487l.011-.011c2.02-2.285 6.18-5.934 7.675-6.657 1.911-.907 4.509-2.229 6.594-1.453s8.876 5.869 8.876 5.869c.2 1.748-1.153 3.885-2.18 5.203z" fill="#FFE1BD"/><path d="M566.628 586.128l-1.411 4.898c-.345.449-.713.879-1.103 1.29 0 0-4.585-3.476-5.863-3.804-1.277-.327-3.995.689-5.55.776-1.555.088-1.68-.831-1.68-.831s-5.919 2.47-6.868 2.7c-.949.23-1.594-.088-1.005-1.595a6.411 6.411 0 011.093-1.487c-.502.695-1.059 1.413-.729 2.297.4 1.078 6.751-1.954 11.34-4.724.071-.043.44-.226.564-.012a.687.687 0 01-.252.515c-.765.822-4.61 1.111-3.832 2.34 1.097 1.727 5.045-1.443 7.205-.733a22.25 22.25 0 014.87 2.689s1.244-3.685 3.221-4.319z" fill="#FFD19F"/><path d="M563.419 592.318s22.495 19.698 39.324 21.702c16.829 2.004 45.218-29.964 45.218-29.964s-1.788-17.031-12.282-15.029c-10.494 2.002-24.564 27.325-30.659 28.51-6.096 1.185-37.791-12.264-37.791-12.264a8.263 8.263 0 00-1.961 2.418 21.176 21.176 0 00-1.849 4.627z" fill="#006466"/><path d="M639.955 495.243c-6.155-7.054-15.255-7.817-22.278-7.036a23.266 23.266 0 00-12.369 5.085 23.296 23.296 0 00-7.531 11.061 20.762 20.762 0 00.418 13.297c5.732 15.849 11.736 25.96 17.332 28.965 2.136 1.147 6.219.383 10.582-1.152a1.233 1.233 0 011.498.574l1.841 3.448 16.194-3.506a55.25 55.25 0 01-3.188-9.259c2.353-2.975 8.769-28.571-2.499-41.477z" fill="#FFE1BD"/><path d="M607.228 517.855a4.637 4.637 0 014.704 2.766c1.331 3.172 3.387 7.61 5.003 9.053a1.649 1.649 0 001.78.017 1.392 1.392 0 00.813-1.384 37.665 37.665 0 00-1.871-6.316 4.258 4.258 0 011.426-5.156 4.248 4.248 0 011.764-.733 7.168 7.168 0 012.634.163c4.788 1.454 1.489 8.97 1.392 12.897-.067 2.767 3.241 9.181 4.704 9.757 4.81 1.89 12.1.183 15.967-4.6 3.866-4.783 4.704-20.767 2.593-30.328-2.111-9.561-9.758-14.96-12.282-15.575a8.894 8.894 0 00-2.996-.242 2.793 2.793 0 01-2.111-.69c-2.545-2.217-10.15-7.283-22.182-2.082a27.898 27.898 0 00-12.783 10.624 27.946 27.946 0 00-4.48 16.018c.178 4.085 3.382 3.784 5.603 3.072a3.701 3.701 0 013.528.763 8.981 8.981 0 006.794 1.976z" fill="#0B0B3A"/><path d="M628.947 552.081s-1.393-1.554-.864-2.505c.658-1.179 7.763-6.808 16.058-6.513 1.289.047 2.865.047 4.412 3.417a24.319 24.319 0 011.91 5.602h-21.516v-.001z" fill="#007D87"/><path d="M660.518 688.279c-.502.12-1.048.24-1.616.35-7.042 1.312-18.495 1.465-18.495 1.465-22.578-.405-33.99-21.463-37.658-27.748a23.549 23.549 0 01-1.801-3.683c1.289-.689 16.625-8.968 15.805-37.24-.171-5.858-.088-18.975-3.002-24.068-1.605-2.799-6.354-8.472-9.335-14.45-2.446-4.919-3.711-10.045-1.034-13.958 6.638-9.761 17.107-14.953 17.107-14.953s19.216-7.705 35.581-5.957c10.382 1.092 19.629 5.989 22.097 19.073 6.364 33.698-17.649 121.169-17.649 121.169z" fill="#007D87"/><path opacity=".18" d="M623.032 614.023c2.791 27.814-16.123 45.328-20.283 48.323a23.516 23.516 0 01-1.801-3.684c1.289-.688 15.711-13.22 15.805-37.239.024-5.861-.088-18.975-3.002-24.068-1.605-2.799-6.354-8.472-9.335-14.45l1.267-.491 7.707-1.279 3.909 3.192s3.926 11.678 5.733 29.696z" fill="#00B3B7"/><path opacity=".45" d="M660.518 688.279c-.502.12-1.048.24-1.616.35 1.441-7.597 10.563-55.304 13.533-72.606 5.863-34.157-.24-51.459-3.679-57.657-2.78-5.01-8.133-7.662-12.687-10.329 10.383 1.092 19.629 5.989 22.097 19.073 6.365 33.698-17.648 121.169-17.648 121.169z" fill="#00B3B7"/><path d="M549.742 790.207a14.982 14.982 0 01-5.37 1.036c-3.315 0-4.279-1.241-4.279-1.241v-7.569l10.922-1.407-1.273 9.181z" fill="#FFE1BD"/><path d="M635.548 684.358c-.066 4.92-1.37 12.768-8.735 14.985-10.988 3.296-19.105 1.425-31.845-.778-10.672-1.834-38.778-7.891-43.943-9.856a.892.892 0 00-1.199 1.015c2.437 11.925 4.385 17.079 5.965 34.974 1.327 15.034-4.442 57.588-4.442 57.588-1.194.357-2.409.64-3.637.848-.693.113-1.393.176-2.095.188a47.544 47.544 0 01-6.1-.514s-11.397-62.671-12.938-88.065c-1.541-25.393.884-27.49 12.412-32.871 11.528-5.381 63.064-3.39 63.064-3.39l.013.013c.145.448 3.044 8.376 11.595 15.552a48.859 48.859 0 0021.885 10.311z" fill="#3D3D72"/><path d="M604.208 662.864a29.113 29.113 0 01-2.139-4.374l-.013-.013s-.597-.023-1.63-.056a42.718 42.718 0 003.782 4.443zm24.237 19.517c-1.035 3.726-3.265 7.357-7.903 8.752-10.988 3.297-19.105 1.425-31.845-.778-10.672-1.833-38.779-7.89-43.944-9.856a.89.89 0 00-.9.151.89.89 0 00-.298.864c2.437 11.925 4.386 17.079 5.965 34.974 1.035 11.706.594 49.869.347 66.194a34.7 34.7 0 001.483-.397s5.77-42.554 4.442-57.588c-1.58-17.896-3.529-23.049-5.966-34.973a.895.895 0 011.199-1.016c5.165 1.966 33.271 8.023 43.943 9.856 12.741 2.203 20.857 4.076 31.845.779 7.366-2.216 8.67-10.065 8.735-14.985a55.302 55.302 0 01-7.103-1.977z" fill="#33305B"/><path d="M539.907 788.943a17.364 17.364 0 005.421 1.131 13.06 13.06 0 005.339-1.131s5.5 7.013 2.578 14.826a1.066 1.066 0 01-.994.674h-36.883a.823.823 0 01-.581-.23.822.822 0 01-.255-.571c-.012-.91.353-2.359 2.593-3.046 3.403-1.044 6.917-1.622 9.552-2.556 2.635-.934 6.418-4.809 8.537-5.524a11.493 11.493 0 004.693-3.573z" fill="#1A1A47"/><path d="M523.176 603.863s-3.283-.859-4.986-1.208a18.36 18.36 0 00-1.823-.266 9.441 9.441 0 00-2.164.068L496.57 604.9a.94.94 0 01-1.048-.804 2.032 2.032 0 01.685-1.827l1.723-1.485 5.15-4.444c2.55-2.196 4.571-2.589 7.943-2.758 1.225.173 2.44.419 3.636.738 3.455.634 4.243 1.036 6.546 1.507.635.143 1.278.246 1.926.307.255.045.517.035.768-.029a10.71 10.71 0 01-.723 7.758z" fill="#FFE1BD"/><path d="M550.096 605.617a.087.087 0 01-.047.035.086.086 0 01-.059-.006c-.451-.189-3.207-1.319-4.704-1.854a17.739 17.739 0 00-1.526-.455 11.878 11.878 0 00-2.405-.289h-17.701a.998.998 0 01-1.021-.978 2.036 2.036 0 01.927-1.678l1.911-1.235c-1.807 1.375-2.099 2.411-1.193 2.52.725.087 2.44-.103 6.785-1.314.094-.027.136.126.05.18a.97.97 0 00-.533 1.194.973.973 0 001.136.646c.73-.036 3.834-.232 4.549-.273 2.775-.159 6.819-.421 7.596-.283 1.359.245 2.671.7 3.889 1.349.76.397 1.484-.471 1.76-1.283.439-1.327.96-2.626 1.562-3.888.247.08.507.107.765.078a10.776 10.776 0 01-1.741 7.534z" fill="#F4F4F4"/><path d="M619.776 563.087c-2.333-1.426-9.389-5.35-18.487 8.853-9.099 14.204-16.376 24.865-19.561 26.776-3.184 1.91-11.007.546-13.829.546-2.822 0-44.11-3.225-44.11-3.225a29.153 29.153 0 00-2.32 7.959s37.832 9.931 61.282 10.021c23.449.091 41.282-35.432 42.1-39.714.818-4.281.5-7.808-5.075-11.216z" fill="#007D87"/><path d="M597.143 530.006a.545.545 0 01-.25-1.036l20.344-10.438c2.302-1.181 7.014-3.597 10.512 1.54a.547.547 0 01-.903.616c-2.728-4.008-5.979-2.792-9.073-1.202l-20.381 10.455a.543.543 0 01-.249.065z" fill="#1A1A47"/><path d="M617.574 519.836l2.457 7.856a2.476 2.476 0 001.939.72 2.5 2.5 0 001.814-.993c1.842-2.123 3.445-9.496.068-10.725-3.377-1.229-5.425.512-6.278 3.142z" fill="#FFE1BD"/><path d="M710.036 633.604c0-39.673-.932-67.626-26.032-71.834-34.15-5.722-60.868 23.882-55.399 80.604 3.132 32.501-10.179 43.656-21.517 50.004-7.33 4.104-21.52 3.224-21.52 3.224s-6.572-.78-10.983-1.197c2.728 1.261 61.202 30.109 102.927 8.794 36.985-18.893 32.524-46.254 32.524-69.595z" fill="#E8F6F7"/><path d="M710.037 633.604c0-39.673-.933-67.626-26.033-71.834a52.221 52.221 0 00-3.589-.471c-27.362 2.712-45.291 31.562-40.517 81.095 3.133 32.501-10.179 43.655-21.516 50.003-7.331 4.105-21.521 3.224-21.521 3.224s-.333-.104-.94-.288a70.394 70.394 0 01-10.349.271s-6.572-.779-10.983-1.196c2.728 1.26 61.202 30.109 102.927 8.793 36.981-18.895 32.521-46.256 32.521-69.597z" fill="#D0E0E2"/></g><defs><clipPath id="clip0"><path fill="#fff" d="M171 261h598v561H171z"/></clipPath></defs></svg>