<svg width="907" height="849" fill="none" xmlns="http://www.w3.org/2000/svg"><g fill-rule="evenodd" clip-rule="evenodd" fill="#343C4C"><path d="M1222.42 379.376c9.93 71.122-85.61 112.688-124.7 172.857-38.48 59.239-43.67 150.78-105.726 181.865-66.243 33.181-143.358-20.693-216.565-20.429-56.092.202-109.755 23.595-165.793 21.809-57.864-1.844-113.719-15.212-168.941-32.476-61.119-19.108-130.406-28.434-175.25-75.131-44.73-46.578-42.861-122.402-71.031-181.322-31.151-65.157-92.849-115.018-104.985-186.84-12.239-72.429 15.726-145.72 36.844-216.421 22.16-74.188 23.317-177.133 90.911-211.285 80.401-40.622 175.675 54.938 262.354 32.798 64.421-16.454 87.925-105.644 146.958-137.345 65.846-35.362 153.498-99.85 213.373-56.162 72.866 53.168 28.863 184.106 72.366 264.655 25.453 47.126 98.365 50.036 123.235 97.502 24.95 47.626-13.19 114.079 12.36 161.356 40.99 75.841 162.54 98.246 174.59 184.569z" fill-opacity=".3"/><path d="M1233.42 344.376c9.93 71.122-85.61 112.688-124.7 172.857-38.48 59.239-43.67 150.78-105.73 181.866-66.239 33.181-143.354-20.694-216.561-20.43-56.092.202-109.755 23.595-165.793 21.809-57.864-1.844-113.719-15.212-168.941-32.476-61.119-19.108-130.406-28.434-175.25-75.131-44.73-46.578-42.861-122.402-71.031-181.322-31.151-65.157-92.849-115.018-104.985-186.841-12.239-72.428 15.726-145.72 36.844-216.42 22.16-74.188 23.318-177.133 90.911-211.285 80.401-40.622 175.675 54.938 262.354 32.798 64.421-16.454 87.925-105.644 146.958-137.345 65.846-35.362 153.498-99.85 213.373-56.162 72.866 53.168 28.863 184.106 72.366 264.655C948.688-51.925 1021.6-49.015 1046.47-1.55c24.95 47.626-13.19 114.079 12.36 161.356 40.99 75.841 162.54 98.246 174.59 184.569z"/></g></svg>