<svg width="2670" height="1024" fill="none" xmlns="http://www.w3.org/2000/svg"><path d="M352.325 64.488l13.255 49.468c5.49 20.49 26.552 32.65 47.042 27.159 20.49-5.49 32.65-26.551 27.159-47.042l-13.254-49.467c-5.491-20.49-26.552-32.65-47.042-27.16-20.491 5.49-32.65 26.552-27.16 47.042z" fill="#D7492B" fill-opacity=".48"/><path d="M241.941 121.063l25.606 44.352c10.607 18.371 34.098 24.665 52.469 14.059 18.371-10.607 24.665-34.098 14.059-52.469l-25.606-44.351C297.862 64.283 274.371 57.988 256 68.594c-18.371 10.607-24.666 34.098-14.059 52.469z" fill="#D7492B" fill-opacity=".52"/><path d="M149.961 204.281l36.213 36.213c15 14.999 39.32 14.999 54.32 0 15-15 15-39.32 0-54.32l-36.213-36.213c-15-15-39.32-15-54.32 0s-15 39.32 0 54.32z" fill="#D7492B" fill-opacity=".56"/><path d="M82.654 308.469l44.351 25.606c18.372 10.606 41.863 4.312 52.469-14.059 10.607-18.371 4.312-41.862-14.059-52.469l-44.351-25.606c-18.371-10.606-41.862-4.312-52.469 14.059-10.606 18.371-4.312 41.862 14.059 52.469z" fill="#D7492B" fill-opacity=".59"/><path d="M113.956 365.58l-49.468-13.255c-20.49-5.49-41.552 6.669-47.042 27.16-5.49 20.49 6.67 41.551 27.16 47.042l49.467 13.255c20.491 5.49 41.552-6.67 47.042-27.16 5.491-20.49-6.669-41.552-27.159-47.042z" fill="#D7492B" fill-opacity=".63"/><path d="M89.622 473.59H38.41C17.197 473.59 0 490.787 0 512c0 21.213 17.197 38.41 38.41 38.41h51.212c21.213 0 38.41-17.197 38.41-38.41 0-21.213-17.197-38.41-38.41-38.41z" fill="#D7492B" fill-opacity=".67"/><path d="M94.073 584.219l-49.467 13.254c-20.49 5.491-32.65 26.552-27.16 47.042 5.49 20.491 26.552 32.651 47.042 27.16l49.468-13.255c20.49-5.49 32.65-26.551 27.16-47.042-5.491-20.49-26.552-32.65-47.043-27.159z" fill="#D7492B" fill-opacity=".71"/><path d="M127.005 689.925l-44.351 25.606C64.283 726.138 57.988 749.629 68.595 768c10.606 18.371 34.098 24.666 52.469 14.059l44.351-25.606c18.371-10.607 24.666-34.098 14.059-52.469-10.606-18.371-34.098-24.665-52.469-14.059z" fill="#D7492B" fill-opacity=".74"/><path d="M186.174 783.506l-36.213 36.213c-15 15-15 39.32 0 54.32s39.32 15 54.32 0l36.213-36.213c15-15 15-39.32 0-54.32s-39.32-15-54.32 0z" fill="#D7492B" fill-opacity=".78"/><path d="M267.547 858.585l-25.606 44.351c-10.606 18.371-4.312 41.862 14.059 52.469s41.862 4.312 52.469-14.059l25.606-44.351c10.606-18.371 4.312-41.862-14.059-52.469s-41.862-4.312-52.469 14.059z" fill="#D7492B" fill-opacity=".82"/><path d="M365.58 910.044l-13.255 49.468c-5.49 20.49 6.669 41.548 27.16 47.038 20.49 5.49 41.551-6.666 47.042-27.156l13.255-49.467c5.49-20.491-6.67-41.552-27.16-47.043-20.49-5.49-41.552 6.67-47.042 27.16z" fill="#D7492B" fill-opacity=".85"/><path d="M473.59 934.378v51.212c0 21.21 17.197 38.41 38.41 38.41 21.213 0 38.41-17.2 38.41-38.41v-51.212c0-21.213-17.197-38.41-38.41-38.41-21.213 0-38.41 17.197-38.41 38.41z" fill="#D7492B" fill-opacity=".89"/><path d="M584.219 929.927l13.254 49.467c5.491 20.49 26.552 32.646 47.042 27.156 20.491-5.49 32.651-26.548 27.16-47.038l-13.255-49.468c-5.49-20.49-26.551-32.65-47.042-27.16-20.49 5.491-32.65 26.552-27.159 47.043z" fill="#D7492B" fill-opacity=".93"/><path d="M689.925 896.995l25.606 44.351c10.607 18.371 34.098 24.666 52.469 14.059 18.371-10.607 24.665-34.098 14.059-52.469l-25.606-44.351c-10.607-18.371-34.098-24.666-52.469-14.059-18.371 10.606-24.666 34.098-14.059 52.469z" fill="#D7492B" fill-opacity=".96"/><path d="M783.506 837.826l36.213 36.212c15 15 39.32 15 54.32.001 15-15 15-39.32 0-54.32l-36.213-36.213c-15-15-39.32-15-54.32 0s-15 39.32 0 54.32z" fill="#D7492B"/><path d="M903.186 781.626l-44.351-25.607c-18.132-10.468-24.344-33.653-13.876-51.785 10.468-18.132 33.654-24.344 51.786-13.876l44.351 25.606c18.132 10.469 24.344 33.654 13.876 51.786-10.468 18.132-33.654 24.344-51.786 13.876zm26.611-196.925l49.468 13.255c20.223 5.419 32.225 26.206 26.805 46.43-5.42 20.224-26.205 32.225-46.429 26.806l-49.467-13.255c-20.224-5.419-32.225-26.206-26.807-46.429 5.419-20.224 26.207-32.225 46.43-26.807zm4.581-110.611h51.212c20.94 0 37.91 16.973 37.91 37.91 0 20.937-16.97 37.91-37.91 37.91h-51.212c-20.937 0-37.91-16.973-37.91-37.91 0-20.937 16.973-37.91 37.91-37.91zm-24.204-108.027l49.467-13.255c20.224-5.419 41.009 6.583 46.429 26.806 5.42 20.224-6.582 41.011-26.805 46.43l-49.468 13.255c-20.223 5.419-41.011-6.583-46.43-26.807-5.418-20.223 6.583-41.01 26.807-46.429zm-51.339-98.082l44.351-25.607c18.132-10.468 41.317-4.256 51.786 13.876 10.468 18.132 4.256 41.317-13.876 51.786l-44.351 25.606c-18.132 10.469-41.318 4.256-51.786-13.876-10.469-18.132-4.256-41.317 13.876-51.785z" stroke="#D7492B"/><path d="M819.719 149.961l-36.213 36.213c-15 15-15 39.32 0 54.32s39.32 15 54.32 0l36.213-36.213c14.999-15 14.999-39.32 0-54.32-15-15-39.32-15-54.32 0z" fill="#D7492B" fill-opacity=".3"/><path d="M715.531 82.654l-25.606 44.351c-10.606 18.371-4.312 41.862 14.059 52.469 18.371 10.606 41.862 4.312 52.469-14.059l25.606-44.352c10.606-18.371 4.312-41.862-14.059-52.468-18.371-10.607-41.862-4.312-52.469 14.059z" fill="#D7492B" fill-opacity=".37"/><path d="M597.473 44.606l-13.254 49.467c-5.491 20.491 6.669 41.552 27.159 47.042 20.49 5.491 41.552-6.669 47.042-27.159l13.255-49.468c5.49-20.49-6.669-41.552-27.16-47.042-20.49-5.49-41.551 6.67-47.042 27.16z" fill="#D7492B" fill-opacity=".41"/><path d="M473.59 38.41v51.213c0 21.213 17.197 38.409 38.41 38.409 21.213 0 38.41-17.196 38.41-38.41V38.41C550.41 17.197 533.213 0 512 0c-21.213 0-38.41 17.197-38.41 38.41z" fill="#D7492B" fill-opacity=".45"/><path d="M511.499 191.907c-46.976 0-82.953 13.333-107.927 40C379.191 258.573 367 296.204 367 344.796v334.222c0 48.593 12.191 86.222 36.572 112.889 24.974 26.666 60.951 40 107.927 40 46.978 0 82.657-13.334 107.038-40C643.512 765.24 656 727.611 656 679.018v-65.777h-92.766v72c0 38.518-16.352 57.777-49.059 57.777-32.705 0-49.057-19.259-49.057-57.777V337.685c0-37.926 16.352-56.889 49.057-56.889 32.707 0 49.059 18.963 49.059 56.889v95.111H656v-88c0-48.592-12.488-86.223-37.463-112.889-24.381-26.667-60.06-40-107.038-40zM1161.8 694c-21.07 0-37.2-6-48.4-18-10.93-12-16.4-28.933-16.4-50.8V474.8c0-21.867 5.47-38.8 16.4-50.8 11.2-12 27.33-18 48.4-18s37.07 6 48 18c11.2 12 16.8 28.933 16.8 50.8v29.6H1185V472c0-17.333-7.33-26-22-26s-22 8.667-22 26v156.4c0 17.067 7.33 25.6 22 25.6s22-8.533 22-25.6v-42.8h41.6v39.6c0 21.867-5.6 38.8-16.8 50.8-10.93 12-26.93 18-48 18zm155.51 0c-21.6 0-38.14-6.133-49.6-18.4-11.47-12.267-17.2-29.6-17.2-52V476.4c0-22.4 5.73-39.733 17.2-52 11.46-12.267 28-18.4 49.6-18.4s38.13 6.133 49.6 18.4c11.46 12.267 17.2 29.6 17.2 52v147.2c0 22.4-5.74 39.733-17.2 52-11.47 12.267-28 18.4-49.6 18.4zm0-40c15.2 0 22.8-9.2 22.8-27.6V473.6c0-18.4-7.6-27.6-22.8-27.6-15.2 0-22.8 9.2-22.8 27.6v152.8c0 18.4 7.6 27.6 22.8 27.6zm96.55-244h44v240h72.4v40h-116.4V410zm137.5 0h44v240h72.4v40h-116.4V410zm173.07 0h59.6l45.59 280h-44l-8-55.6v.8h-50l-8 54.8h-40.79l45.6-280zm48 187.2l-19.6-138.4h-.8l-19.2 138.4h39.6zm78.54-187.2h66.4c22.67 0 39.2 5.333 49.6 16 10.4 10.4 15.6 26.533 15.6 48.4v11.2c0 14.4-2.4 26.133-7.2 35.2-4.53 9.067-11.6 15.6-21.2 19.6v.8c21.87 7.467 32.8 26.933 32.8 58.4v24c0 21.6-5.73 38.133-17.2 49.6-11.2 11.2-27.73 16.8-49.6 16.8h-69.2V410zm61.2 114c8.8 0 15.34-2.267 19.6-6.8 4.54-4.533 6.8-12.133 6.8-22.8v-15.6c0-10.133-1.86-17.467-5.6-22-3.46-4.533-9.07-6.8-16.8-6.8h-21.2v74h17.2zm8 126c7.73 0 13.47-2 17.2-6 3.73-4.267 5.6-11.467 5.6-21.6V598c0-12.8-2.26-21.6-6.8-26.4-4.27-5.067-11.46-7.6-21.6-7.6h-19.6v86h25.2zm156.12 44c-21.6 0-38.13-6.133-49.6-18.4-11.47-12.267-17.2-29.6-17.2-52V476.4c0-22.4 5.73-39.733 17.2-52 11.47-12.267 28-18.4 49.6-18.4s38.13 6.133 49.6 18.4c11.47 12.267 17.2 29.6 17.2 52v147.2c0 22.4-5.73 39.733-17.2 52-11.47 12.267-28 18.4-49.6 18.4zm0-40c15.2 0 22.8-9.2 22.8-27.6V473.6c0-18.4-7.6-27.6-22.8-27.6-15.2 0-22.8 9.2-22.8 27.6v152.8c0 18.4 7.6 27.6 22.8 27.6zm96.56-244h116.4v40h-72.4v78h56.8v40h-56.8v122h-44V410zm137.5 0h44v280h-44V410zm76.95 0h67.2c21.87 0 38.27 5.867 49.2 17.6s16.4 28.933 16.4 51.6v141.6c0 22.667-5.47 39.867-16.4 51.6-10.93 11.733-27.33 17.6-49.2 17.6h-67.2V410zm66.4 240c7.2 0 12.67-2.133 16.4-6.4 4-4.267 6-11.2 6-20.8V477.2c0-9.6-2-16.533-6-20.8-3.73-4.267-9.2-6.4-16.4-6.4h-22.4v200h22.4zm96.1-240h120v40h-76v74h60.4v40h-60.4v86h76v40h-120V410z" fill="#D7492B"/></svg>