<svg width="1440" height="900" fill="none" xmlns="http://www.w3.org/2000/svg"><g clip-path="url(#clip0)"><path fill="#fff" d="M0 0h1440v900H0z"/><path fill-rule="evenodd" clip-rule="evenodd" d="M1755.42 379.376c9.93 71.122-85.61 112.688-124.7 172.857-38.48 59.239-43.67 150.78-105.73 181.865-66.24 33.182-143.35-20.693-216.56-20.429-56.09.202-109.76 23.595-165.79 21.809-57.87-1.844-113.72-15.212-168.945-32.476-61.119-19.108-130.406-28.435-175.25-75.131-44.73-46.578-42.861-122.402-71.031-181.322-31.151-65.157-92.849-115.018-104.985-186.84-12.239-72.429 15.726-145.72 36.844-216.421 22.16-74.188 23.317-177.133 90.911-211.285 80.401-40.622 175.675 54.938 262.356 32.798 64.42-16.454 87.92-105.644 146.96-137.345 65.84-35.362 153.49-99.85 213.37-56.162 72.87 53.168 28.86 184.106 72.37 264.655 25.45 47.126 98.36 50.036 123.23 97.502 24.95 47.626-13.19 114.079 12.36 161.356 40.99 75.841 162.54 98.246 174.59 184.569z" fill="#343C4C" fill-opacity=".3"/><path fill-rule="evenodd" clip-rule="evenodd" d="M1766.42 344.376c9.93 71.122-85.61 112.688-124.7 172.857-38.48 59.239-43.67 150.78-105.73 181.865-66.24 33.182-143.35-20.693-216.56-20.429-56.09.202-109.76 23.595-165.79 21.809-57.87-1.844-113.72-15.212-168.945-32.476-61.119-19.108-130.406-28.434-175.25-75.131-44.73-46.578-42.861-122.402-71.031-181.322-31.151-65.157-92.849-115.018-104.985-186.84-12.239-72.429 15.726-145.72 36.844-216.421 22.16-74.188 23.317-177.133 90.911-211.285 80.401-40.622 175.675 54.938 262.356 32.798 64.42-16.454 87.92-105.644 146.96-137.345 65.84-35.362 153.49-99.85 213.37-56.162 72.87 53.168 28.86 184.106 72.37 264.655 25.45 47.126 98.36 50.036 123.23 97.502 24.95 47.626-13.19 114.079 12.36 161.356 40.99 75.841 162.54 98.246 174.59 184.569z" fill="#343C4C"/><g clip-path="url(#clip1)"><path d="M1293.14 266.162H879.822v244.432h413.318V266.162z" fill="#D5DBDA"/><path d="M1281.66 270.943H891.294v234.87h390.366v-234.87z" fill="#fff"/><path d="M1250.38 281.811H919.917v15.686h330.463v-15.686z" fill="#EFEFEF"/><path d="M949.896 431.062h-17.974v45.177h17.974v-45.177z" fill="#FFD04D"/><path d="M990.399 391.401h-17.974v84.838h17.974v-84.838z" fill="#00BFD8"/><path d="M1030.9 400.174h-17.97v76.065h17.97v-76.065z" fill="#FFD04D"/><path d="M1071.41 357.228h-17.98V476.24h17.98V357.228z" fill="#00BFD8"/><g opacity=".15"><path d="M980.674 391.401h-8.249v84.838h8.249v-84.838z" fill="#000" opacity=".26"/></g><g opacity=".15"><path d="M940.171 431.062h-8.249v45.177h8.249v-45.177z" fill="#000" opacity=".26"/></g><g opacity=".62"><path d="M1061.68 357.228h-8.25V476.24h8.25V357.228z" fill="#000" opacity=".26"/></g><g opacity=".15"><path d="M1021.18 400.174h-8.25v76.065h8.25v-76.065z" fill="#000" opacity=".26"/></g><path d="M1080.92 488.675H920.052V317.181h2.453v169.038h158.415v2.456z" fill="#D5DBDA"/><path d="M936.574 409.904l-1.638-1.828 42.081-37.831 38.973 8.478 42.21-47.043 1.83 1.642-43.16 48.105-39.147-8.514-41.149 36.991z" fill="#D5DBDA"/><path d="M1063.33 340.272l-11.9-11.426 15.37-4.115-3.47 15.541z" fill="#D5DBDA"/><path d="M1111.24 420.307h-15.09v15.102h15.09v-15.102z" fill="#00BFD8"/><path d="M1111.24 446.767h-15.09v15.102h15.09v-15.102z" fill="#FFD04D"/><path d="M1163.21 453.288h-47.82v8.582h47.82v-8.582zm0-26.461h-47.82v8.582h47.82v-8.582z" fill="#EFEFEF"/><path d="M1199.95 420.307h-15.09v15.102h15.09v-15.102z" fill="#00BFD8"/><path d="M1199.95 446.767h-15.09v15.102h15.09v-15.102z" fill="#FFD04D"/><path d="M1251.92 453.288h-47.82v8.582h47.82v-8.582zm0-26.461h-47.82v8.582h47.82v-8.582zm-1.54-99.282h-141.35v3.224h141.35v-3.224zm0 7.807h-152.45v3.224h152.45v-3.224zm0 7.807h-152.45v3.224h152.45v-3.224zm0 7.806h-152.45v3.224h152.45v-3.224zm0 7.807h-152.45v3.224h152.45v-3.224zm0 7.807h-152.45v3.224h152.45v-3.224zm0 7.808h-152.45v3.224h152.45v-3.224zm0 7.807h-152.45v3.224h152.45v-3.224zm0 7.806h-130.7v3.224h130.7V390z" fill="#EFEFEF"/><path d="M1302 264.185c0 .845-.34 1.656-.93 2.253-.6.598-1.41.934-2.25.934H874.141a3.182 3.182 0 01-3.182-3.187 3.195 3.195 0 011.964-2.946c.386-.16.8-.243 1.218-.243h424.679c.84 0 1.65.336 2.25.933.59.598.93 1.408.93 2.254v.002zm0 248.384c0 .845-.34 1.655-.93 2.253-.6.597-1.41.933-2.25.933H874.141a3.17 3.17 0 01-2.94-1.967 3.209 3.209 0 010-2.439 3.2 3.2 0 011.722-1.724c.386-.16.8-.243 1.218-.243h424.679c.84 0 1.65.336 2.25.934.59.597.93 1.408.93 2.253z" fill="#66341B"/><path d="M809.421 793.006l2.305-123.355h-8.196l2.304 123.355a1.859 1.859 0 00.35 1.566 1.844 1.844 0 003.237-1.566zm-75.326-14.43l47.602-113.802-7.62-3.028-43.317 115.505a2.111 2.111 0 00.833 2.768 2.107 2.107 0 002.502-1.443zm147.06 0l-47.603-113.802 7.62-3.028 43.318 115.503a1.84 1.84 0 01.249 1.583 1.857 1.857 0 01-1.083 1.18 1.848 1.848 0 01-2.2-.671 1.834 1.834 0 01-.301-.765z" fill="#723E24"/><path d="M772.756 665.275l4.847 1.926-44.743 112.725a2.615 2.615 0 001.235-1.351l47.602-113.801-7.62-3.028-1.321 3.529zm30.833 7.623h6.107l-2.285 122.348c.071.015.143.025.215.028a2.11 2.11 0 001.795-2.269l2.305-123.354h-8.196l.059 3.247zm80.9 104.353l-43.318-115.503-7.621 3.028.875 2.093 4.714-1.873 43.07 114.84a1.633 1.633 0 001.445.188 2.11 2.11 0 00.835-2.773z" fill="#000" opacity=".3"/><path d="M864.1 675.48c-8.313 6.772-20.631 13.004-51.917 13.621-41.156.812-62.702-3.862-74.395-25.114-19.527-35.489 4.909-150.14 43.456-124.742 32.223 21.232 38.677 89.007 42.936 98.378 4.259 9.372 60.092 21.424 39.92 37.857z" fill="#E8F6F7"/><path d="M819.316 680.323c-41.155.811-62.7-3.862-74.394-25.114-13.33-24.223-6.176-85.325 11.968-113.601-23.221 21.549-34.062 95.193-19.101 122.378 11.693 21.249 33.238 25.926 74.395 25.114 31.286-.617 43.604-6.849 51.917-13.621 2.83-2.306 4.163-4.521 4.354-6.664-8.342 5.907-21.146 10.956-49.139 11.508z" fill="#D0E0E2"/><path d="M836.873 409.058c2.812-8.123 5.408-16.66 9.818-12.348 4.64 4.539 4.269 3.99 2.584 10.288-1.685 6.297-14.768 8.892-12.402 2.06z" fill="#FFE1BD"/><path d="M841.91 397.446c1.398-3.866 3.692-8.283 6.052-10.108 2.359-1.825-1.216 4.573-2.061 7.568-.845 2.995-5.166 5.792-3.991 2.54z" fill="#FFE1BD"/><path d="M838.115 441.473c3.306-12.42 4.958-28.652 4.958-28.652l-6.193-4.174s-12.607 25.942-19.419 45.635l-35.134-9.031-4.282-.874 11.432 22.87s33.839 4.933 35.918 3.768c2.079-1.166 9.354-16.898 12.72-29.542z" fill="#F4F4F4"/><path d="M825.394 471.014c-2.079 1.165-35.918-3.768-35.918-3.768l-11.432-22.868 4.281.874c3.157 1.333 8.271 6.451 12.423 11.889 2.998 3.925 4.65 5.322 9.18 7.023 6.929 2.602 14.291 4.447 17.058 4.645 4.677.311 5.134.54 6.132-.833a2.999 2.999 0 01-1.724 3.038z" fill="#EAEAEA"/><path d="M742.672 513.43a31.011 31.011 0 011.388 17.868c-2.629 11.843.363 12.638.363 12.638s16.032 10.188 29.367 14.352c9.556 2.977 17.701 2.473 17.475-8.09l-.008-.145-.047-1.853c-.451-23.741 4.494-24.949 5.713-51.534 1.258-27.272-6.021-42.485-13.234-49.082-7.225-6.583-17.084-6.828-35.63-2.439-13.932 3.286-18.521 6.988-18.408 17.309a80.991 80.991 0 001.499 12.705c2.301 12.988 7.793 28.581 11.522 38.271z" fill="#F4F4F4"/><path d="M776.317 455.021s14.452 47.426 11.561 70.145l-5.324 9.701-5.821-10.575s4.733-45.421-4.327-68.467l3.911-.804z" fill="#3A3A3A"/><path d="M742.672 513.43a31.003 31.003 0 011.387 17.868c-2.628 11.843.364 12.638.364 12.638s16.032 10.188 29.367 14.352l12.459-1.183 4.986-3.924.02-3.129-.047-1.853a92.172 92.172 0 01-18.815-.49 77.978 77.978 0 01-18.45-4.628 7.19 7.19 0 01-3.711-3.18 7.21 7.21 0 01-.825-4.82 103.442 103.442 0 001.725-16.561c-.037-5.227-2.455-14.062-4.432-20.438a41.267 41.267 0 01-1.66-15.109c.361-5.734.357-11.486-.014-17.22l-9.878-5.356-5.502 2.052c.165 4.27.668 8.52 1.503 12.71 2.301 12.988 7.794 28.581 11.523 38.271z" fill="#E2E2E2"/><path d="M742.468 563.815c-1.142.188-4.06-4.941-4.06-4.941l1.223-1.627a5.455 5.455 0 012.755-1.933l.198-.061a2.348 2.348 0 012.642.907c.838 1.243 2.131 2.662 3.634 2.607h.026a.337.337 0 00.159.027c1.33.027-5.436 4.834-6.577 5.021z" fill="#F4D5B5"/><path d="M787.476 398.797s1.237 3.46-.633 6.211l-7.647-10.361 5.333-.049 2.947 4.199z" fill="#632F00"/><path d="M745.948 412.502c.338 13.365 11.854 21.111 11.854 21.111l-.77 12.164 7.768 5.041 5.331 3.455 3.059-6.4.42-7.842a4.044 4.044 0 013.206-3.728 14.696 14.696 0 007.575-4.584c.176-.187.338-.387.483-.599l.018-.01c5.048-6.886 6.962-33.258-10.322-40.745-17.844-7.751-28.97 8.753-28.622 22.137z" fill="#FFE1BD"/><path d="M765.323 443.522l-.523 7.296 5.33 3.455 3.06-6.4.419-7.842a4.035 4.035 0 013.206-3.728 14.688 14.688 0 007.575-4.584c.176-.187.338-.388.484-.599a28.687 28.687 0 01-10.87 3.368 9.787 9.787 0 00-5.972 2.946 9.81 9.81 0 00-2.709 6.088z" fill="#E8C5A0"/><path d="M764.586 416.622c-.676.277-1.317-.769-1.317-.769s-3.747-8.425-5.037-9.716c-2.304-2.337-7.74-2.121-8.169 5.104-.337 5.595 6.265 17.526 8.292 21.031a1.328 1.328 0 01-.338 1.695c-.219.15-.472.245-.736.277h-.094a1.286 1.286 0 01-.86-.307c-4.268-3.751-23.064-21.8-8.139-38.772 0 0 11.854.769 13.667 6.488a119.684 119.684 0 013.104 13.497s.333 1.16-.373 1.472z" fill="#8C4200"/><path d="M787.476 398.797s-10.374-8.1-26.128 1.768l-12.901-3.297s-.542-.176-.256-2.11c.286-1.935 1.711-20.924 24.308-16.655 12.993 2.454 20.951 11.469 14.977 20.294z" fill="#8C4200"/><path d="M777.318 450.984l-.076.621a12.34 12.34 0 01-.924 3.415l-3.912.801-3.407-2.543 3.907-4.549.607.154a8.647 8.647 0 013.749 2.046l.056.055z" fill="#606060"/><path d="M757.126 440.108a12.411 12.411 0 00-3.744 3.862 49.066 49.066 0 014.798 2.514c2.04 1.247 11.845 8.181 11.845 8.181l2.883-5.928s-10.243-7.075-15.782-8.629zm15.78 8.624s3.431 1.174 4.485 3.74c0 0 1.754-3.366-.487-9.357a15.49 15.49 0 00-3.33-2.418l-.668 8.035z" fill="#E2E2E2"/><path d="M745.637 555.44a20.482 20.482 0 002.363 2.589c.54.297.633-.335.428-.782-.204-.446-2.708-2.414-2.791-1.807z" fill="#E5BB98"/><path d="M757.277 434.239h-.094a1.285 1.285 0 01-.86-.307c-4.268-3.751-23.063-21.799-8.138-38.772a17.497 17.497 0 00-.43 5.411s-9.519 15.405 9.522 33.668z" fill="#632F00"/><path d="M766.522 800.585c34.211 0 61.944-2.112 61.944-4.718 0-2.605-27.733-4.718-61.944-4.718s-61.944 2.113-61.944 4.718c0 2.606 27.733 4.718 61.944 4.718z" fill="#D8D8D8"/><path d="M735.918 777.864c.815 3.132.505 4.253.825 6.295.4 2.531 2.723 3.453 4.069 5.531 1.483 2.29 3.811 5.963-5.283 6.148-9.736.195-15.504-.479-13.853-5.989 1.651-5.511 1.976-7.938 1.861-9.733-.115-1.795.005-3.668 1.104-4.747 1.1-1.078 9.842-3.017 11.277 2.495z" fill="#8C4200"/><path d="M737.975 602.689s-15.37-24.557 6.448-58.756c0 0 17.003 7.62 30.619 8.54 10.725.724 16.166-.387 16.166-.387s.903 32.879.941 50.601h-54.174v.002zm10.357 71.363c4.205-17.751-13.245-20.877-18.754-8.034-7.793 18.163-7.173 97.944-6.756 109.534.053 1.517.846 1.233 1.693.926 2.483-.897 4.564-1.253 5.551-1.042a33.504 33.504 0 015.731 2.386c1.639-15.786 8.468-86.581 12.535-103.77z" fill="#3A3A3A"/><path d="M764.022 605.084c1.842-22.051-6.562-39.182-19.728-31.896-5.542 3.064-7.571 9.196-8.314 14.968-.743 5.773-4.823 65.769-6.252 76.61-3.221 24.44 15.355 17.854 17.37 11.082 5.084-17.102 15.921-58.749 16.924-70.764zm31.017 67.822c.689-16.547-13.134-15.589-18.713-2.731-12.05 27.777.088 86.918 2.562 114.813 2.701-4.49 7.82-6.011 9.023-5.915a4.286 4.286 0 013.01 1.695c-.396-34.221 3.378-90.169 4.118-107.862z" fill="#3A3A3A"/><path d="M776.946 674.702c2.06 6.756 19.811 14.575 17.956-10.019-.822-10.908-3.01-71.144-3.436-76.951-.426-5.806-1.392-14.293-4.196-15.352-14.017-5.297-27.61 12.024-23.921 33.827 2.462 14.576 9.322 54.481 13.597 68.495z" fill="#3A3A3A"/><path d="M790.87 781.266c.736 1.433 4.256 4.744 9.136 6.928 4.88 2.183 15.214 3.202 9.471 5.124-5.742 1.923-12.438.754-15.833.213a68.217 68.217 0 00-10.678-.645c-5.277-.036-5.317-.361-4.61-6.318.983-8.198 10.141-9.934 12.514-5.302z" fill="#8C4200"/><path d="M741.504 550.545l2.709 3.821a7.066 7.066 0 017.15 3.739c2.292 4.495-5.818 10.123-8.124 8.047-2.306-2.076-7.32-11.67-7.32-11.67l5.585-3.937z" fill="#FFE1BD"/><path d="M721.243 538.423a193.847 193.847 0 0115.01 17.801l1.398-.942 5.352-3.645s-10.979-23.019-14.098-34.258a39.982 39.982 0 00-6.462-13.061c.208-.201.403-.399.611-.614 7.958-8.483 14.161-19.422 18.879-26.125a26.939 26.939 0 004.516-10.797c.464-2.633.49-5.324.076-7.965-.673-4.202-2.438-8.073-6.499-9.072a7.21 7.21 0 00-4.463.337 8.094 8.094 0 00-3.822 3.243c-6.203 10.048-23.775 37.247-26.538 43.956a14.169 14.169 0 00-.941 3.435c-.082.389-.145.782-.188 1.178-1.067 11.004 9.846 29.135 17.169 36.529z" fill="#F4F4F4"/><path d="M721.243 538.423a193.847 193.847 0 0115.01 17.801l1.398-.942s-8.056-11.237-11.863-15.789c-5.833-6.97-9.935-12.408-13.415-18.81-3.48-6.402-5.119-18.743-3.275-22.208 1.829-3.464 12.107-18.766 14.311-21.708 2.205-2.927 20.242-20.945 15.064-25.966a3.643 3.643 0 00-2.909-.718 8.094 8.094 0 00-3.823 3.242c-6.203 10.048-23.775 37.247-26.538 43.956a14.169 14.169 0 00-.941 3.435c-.082.389-.145.782-.188 1.178-1.067 11.004 9.846 29.135 17.169 36.529z" fill="#EAEAEA"/><path d="M749.987 554.576s-2.479 8.754-13.494 13.786c-9.502 4.341 15.215 6.824 15.766 5.858.551-.965 5.301-16.941 5.301-16.941l-7.573-2.703z" fill="#3A3A3A"/><path d="M939.32 786.07l2.318-124.113h-8.246l2.318 124.113a1.862 1.862 0 00.354 1.573 1.842 1.842 0 001.451.701 1.842 1.842 0 001.451-.701 1.844 1.844 0 00.354-1.573zm-75.786-14.518l47.894-114.501-7.664-3.046-43.585 116.213a1.852 1.852 0 00-.252 1.594 1.846 1.846 0 001.09 1.189 1.84 1.84 0 001.608-.116 1.855 1.855 0 00.909-1.333zm147.966 0l-47.898-114.501 7.665-3.046 43.583 116.212c.16.229.27.492.31.768.04.276.03.559-.05.827-.08.267-.22.514-.41.72-.19.206-.43.366-.68.47a1.864 1.864 0 01-1.61-.116 1.82 1.82 0 01-.61-.563 1.804 1.804 0 01-.3-.771z" fill="#723E24"/><path d="M902.433 657.555l4.877 1.938-45.018 113.417a2.639 2.639 0 001.243-1.359l47.893-114.5-7.664-3.046-1.331 3.55zm31.02 7.669h6.145l-2.299 123.097c.071.015.144.024.217.028a2.125 2.125 0 001.804-2.279l2.318-124.113h-8.246l.061 3.267zm81.397 104.994l-43.584-116.212-7.665 3.046.882 2.105 4.742-1.884 43.335 115.545a1.62 1.62 0 001.45.188c.47-.271.82-.71.97-1.228a2.11 2.11 0 00-.13-1.56z" fill="#000" opacity=".3"/><path d="M997.55 619.489c0 47.602-26.879 59.001-60.035 59.001-33.156 0-60.035-11.397-60.035-59.001 0-47.603 26.879-93.607 60.035-93.607 33.156 0 60.035 46.005 60.035 93.607z" fill="#E8F6F7"/><path d="M942.336 667.773c-33.157 0-60.035-11.396-60.035-59a130.36 130.36 0 018.721-46.793c-8.467 16.439-13.541 36.827-13.541 57.51 0 47.602 26.879 59.001 60.035 59.001 25.995 0 48.129-7.01 56.478-32.977-10.461 17.245-29.678 22.259-51.658 22.259z" fill="#D0E0E2"/><path d="M908.734 607.018s-7.714 16.454-9.284 27.45c-2.294 16.053 1.095 23.007 21.581 23.647 20.486.641 26.458-3.356 36.227-3.356 9.769 0 21.123-18.541 8.543-40.557l-57.067-7.184z" fill="#09424C"/><path d="M917.533 741.819l-.376 6.227s-6.054 17.857-6.352 22.361c-.521 7.853 2.942 16.643 6.308 16.593 3.838-.056 9.126-4.98 11.483-14.82 1.6-6.664-.989-19.715-.069-22.778.92-3.063 2.776-9.001 2.776-9.001l-13.77 1.418z" fill="#FFE1BD"/><path d="M929.078 768.354c-2.653 2.681-8.049 8.322-10.191 8.214-2.223-.112-6.115-6.951-7.411-9.78a24.51 24.51 0 00-.669 3.616c-.521 7.852 2.942 16.642 6.308 16.593 3.838-.057 9.126-4.981 11.483-14.821.275-1.257.436-2.536.48-3.822z" fill="#8C4200"/><path d="M931.001 744.85s24.477-77.374 27.532-86.894c3.056-9.519 5.521-27.62-8.647-30.777-12.237-2.727-17.369 15.541-19.608 26.794-2.238 11.253-13.511 86.354-13.511 86.354s-1.33 4.223 5.976 5.432c7.306 1.208 8.258-.909 8.258-.909z" fill="#0C5A71"/><path d="M945.584 627.1c-5.315 7.275-8.011 20.847-9.516 28.403-2.238 11.25-13.397 87.89-13.397 87.89s1.881.965 5.952 2.788a14.186 14.186 0 00-1.945-.007c-7.877.565-9.797-4.309-9.797-4.309s11.16-76.641 13.398-87.889c1.956-9.829 6.122-25.02 15.305-26.876z" fill="#000" opacity=".1"/><path d="M886.839 738.839l-.814 6.184s-7.307 17.381-7.928 21.85c-1.076 7.795 1.753 16.81 5.114 17 3.832.217 9.457-4.318 12.506-13.965 2.07-6.534.413-19.736 1.55-22.726 1.136-2.991 3.408-8.776 3.408-8.776l-13.836.433z" fill="#FFE1BD"/><path d="M896.47 766.132c-2.836 2.485-8.62 7.728-10.748 7.468-2.209-.27-5.61-7.369-6.697-10.283a24.523 24.523 0 00-.928 3.556c-1.076 7.796 1.753 16.81 5.114 17 3.832.217 9.457-4.318 12.506-13.965a21.2 21.2 0 00.753-3.776z" fill="#8C4200"/><path d="M900.058 742.824s29.911-75.436 33.636-84.713c3.724-9.278 7.468-27.157-6.44-31.316-12.012-3.591-18.43 14.269-21.461 25.331-3.031 11.062-19.611 85.173-19.611 85.173s-1.627 4.118 5.575 5.84c7.203 1.721 8.301-.315 8.301-.315z" fill="#0C5A71"/><path d="M922.972 626.406c-5.819 6.876-9.472 20.224-11.51 27.656-3.032 11.061-19.606 86.712-19.606 86.712s1.807 1.097 5.738 3.203a14.295 14.295 0 00-1.94-.145c-7.897 0-9.466-4.992-9.466-4.992s16.575-75.652 19.607-86.713c2.647-9.665 7.882-24.519 17.177-25.721z" fill="#000" opacity=".1"/><path d="M921.932 450.57s2.711-11.656 22.117-7.911c18.523 3.573 17.355 29.444 19.51 36.481a163.693 163.693 0 006.624 16.549 1.401 1.401 0 01.013 1.15 1.397 1.397 0 01-.34.479 1.433 1.433 0 01-.505.3c-6.846 2.278-35.909 10.813-55.73-1.091a9.43 9.43 0 01-3.951-4.481 6.67 6.67 0 01-.534-2.767c.134-3.101 1.881-6.875.539-15.917-1.343-9.042.267-23.062 12.257-22.792z" fill="#0B0B3A"/><path d="M916.229 475.566a10.64 10.64 0 00-1.571 8.183 5.49 5.49 0 005.449 4.952l.614-5.086-1.348-8.948-3.144.899zm43.338 0a10.626 10.626 0 011.572 8.183 5.494 5.494 0 01-5.449 4.952l-.613-5.086 1.347-8.948 3.143.899z" fill="#FFE1BD"/><path d="M962.712 574.563a74.307 74.307 0 00.334 13.909c.565 5.913 2.54 27.574 2.54 27.574a71.97 71.97 0 01-12.264 3.302c-10.4 1.985-28.312-3.345-44.929-9 0 0 6.1-15.002 6.187-27.347a77.145 77.145 0 00-.108-5.201 110.042 110.042 0 00-1.778-11.373 252.46 252.46 0 01-.518-2.913c-.624-3.615-1.25-7.585-1.693-11.631a90.658 90.658 0 01-.603-12.127c-1.505-10.855 1.811-21.537 1.811-21.537s13.697-5.729 19.485-6.506c0 0 10.26-2.355 17.47.043 9.43 3.129 14.592 4.952 18.828 7.272.452.249 3.198 8.298 1.994 15.386-1.768 10.391-4.375 24.644-5.776 33.211-.56 3.421-.926 5.936-.98 6.938z" fill="#FFD04D"/><path opacity=".39" d="M965.589 618.584a41.68 41.68 0 00-12.265.764c-2.888-7.456-1.981-34.533-1.981-34.533-8.083-1.348-20.379-6.204-20.379-6.204-3.234 1.533-13.235 3.723-16.382 4.392a77.145 77.145 0 00-.108-5.201 110.042 110.042 0 00-1.778-11.373c3.783-2.644 10.809 3.194 10.809 3.194l35.479-5.578a28.505 28.505 0 014.71 3.58c-.565 3.42-.927 5.933-.981 6.937a74.222 74.222 0 00.334 13.909c.559 5.914 2.542 30.113 2.542 30.113z" fill="#CE9006"/><path d="M958.034 469.718c0 5.212-1.045 17.331-4.311 25.356a22.557 22.557 0 01-9.182 10.984c-.043 2.083-.086 4.824 1.369 5.051.421.928.949 1.165.668 2.622-.981 5.18-7.005 10.909-8.482 12.343-1.477 1.435-2.403 0-2.403 0a33.234 33.234 0 01-4.398-6.506 41.913 41.913 0 01-1.693-3.572 4.488 4.488 0 01.409-4.122c1.6-.194 1.013-3.625.884-5.462-3.082-2.201-5.992-5.967-8.159-10.391-4.343-8.88-4.58-20.166-4.58-26.305a19.973 19.973 0 015.841-14.116 19.924 19.924 0 0128.198.002 19.977 19.977 0 015.839 14.116z" fill="#FFE1BD"/><path d="M944.272 506.156c-1.175.432-5.971 2.299-6.897 4.316-1.045 2.32-1.638 6.074-2.619 7.132a11.621 11.621 0 01-3.459 1.964 41.662 41.662 0 01-1.694-3.572 4.484 4.484 0 01.409-4.121c1.6-.194 1.014-3.626.884-5.463a16.337 16.337 0 006.303 1.154 37.08 37.08 0 007.073-1.41z" fill="#E8C5A0"/><path d="M951.559 558.952a39.439 39.439 0 014.176-.607c1.01 0-1.882 9.07-1.882 9.07a4.74 4.74 0 00-2.29-1.318c-1.245-.203-.774-7.047-.774-7.047l.77-.098z" fill="#FFE1BD"/><path d="M967.479 519.025s9.017 4.64 8.478 11.654c-.54 7.014-11.092 45.323-12.909 50.363-1.816 5.04-47.803-10.25-47.803-10.25s1.438-6.157 2.694-7.845c0 0 31.434 3.349 35.561 4.968 0 0 6.377-30.393 8.353-35.787 1.975-5.394 5.626-13.103 5.626-13.103z" fill="#D69507"/><path d="M952.194 566.741c-4.775 2.698-41.083 17.801-44.446 16.864-3.362-.937-7.415-3.916-7.954-12.818-.47-7.898 4.095-39.027 5.162-46.234a6.376 6.376 0 011.359-3.108c.219-.237.453-.46.7-.669a18.661 18.661 0 014.677-2.557c.453 1.025.334 5.233.895 12.621.065.838.01 1.681-.162 2.503-.905 4.306-2.005 9.916-1.94 12.895.001.18.012.36.033.539.312 3.129 2.634 9.064 2.673 11.567.075 5.913.053 6.744.043 6.841 1.304-.216 5.833-1.025 11.36-2.007 11.413-2.05 27.062-4.867 27.062-4.867 1.356 2.895.538 8.43.538 8.43z" fill="#EFAF11"/><path d="M914.118 477.545s6.308-1.067 9.948-5.801a33.025 33.025 0 004.417-8.789s2.205 4.743 9.614 8.115a76.591 76.591 0 0022.955 6.475s.49-17.265-5.168-24.278c-5.657-7.013-20.342-11.059-30.311-4.992-9.969 6.068-11.455 29.27-11.455 29.27z" fill="#0B0B3A"/><path d="M930.077 511.747s1.035 9.306 5.616 14.33c0 0-1.52-.502-4.341 2.9a.732.732 0 01-1.076.049.73.73 0 01-.194-.349c-.876-3.784-3.746-13.047-2.15-16.268a2.272 2.272 0 012.145-.662zm15.692-.685a61.323 61.323 0 01-2.799 7.967 28.27 28.27 0 01-5.102 7.252s3.528.655 5.161 2.981a.569.569 0 00.821.12.58.58 0 00.183-.246c1.06-2.046 1.665-3.9 2.845-8.115 1.345-4.803 1.399-7.441 1.242-9.427a2.041 2.041 0 00-2.351-.532z" fill="#CE9006"/><path opacity=".39" d="M910.658 567.68c-3.678-3.141.711-9.136.399-11.233-.312-2.096-.302-2.448-.571-4.563a17.6 17.6 0 01.033-5.104c.312 3.129 2.634 9.064 2.673 11.567.075 5.913.053 6.744.043 6.841 1.304-.216 13.481-2.4 19.01-3.382 1.292.682-19.111 7.989-21.587 5.874z" fill="#CE9006"/><path d="M917.131 564.508l-3.892.685a62.286 62.286 0 00-7.293-.205 23.358 23.358 0 00-5.579 1.192.76.76 0 01-.823-.344.762.762 0 01-.106-.297 11.132 11.132 0 01-.471-3.99c.16-1.324.502-2.619 1.015-3.849a1.582 1.582 0 01.931-.854c1.446-.511 3.167-.456 5.687-.241a7.315 7.315 0 015.726 2.954l1.599 1.906a3.614 3.614 0 002.01 1.189l1.925.402s-.214.342-.396.699a6.918 6.918 0 00-.333.753z" fill="#FFE1BD"/><path d="M838.999 602.384l1.803-34.871h-17.048l1.802 34.871h13.443z" fill="#FAFEFF"/><path d="M827.086 600.746l-1.583-31.595h13.549l-1.583 31.595h-10.383z" fill="#B4EFF9"/><path d="M826.023 576.878l1.063 23.868h10.383l1.064-23.868h-12.51z" fill="#75D9EF"/><path opacity=".5" d="M828.182 597.337h2.834l-1.675-24.894c-.343-3.008-3.152-3.172-2.709.257l1.55 24.637z" fill="#fff"/><path d="M863.206 607.154h-78.991v4.952h78.991v-4.952z" fill="#282C2D"/><path d="M856.533 602.232h-71.552v3.973h71.552v-3.973z" fill="#D6D6D6"/><path d="M860.253 605.259h-78.991v1.896h78.991v-1.896z" fill="#525252"/><path d="M855.064 603.756h-68.613v.41h68.613v-.41zm0 .889h-68.613v.409h68.613v-.409zm0-1.817h-68.613v.409h68.613v-.409z" fill="#A5A5AF"/><path d="M1173.42 603.071h-32.62v8.103h32.62v-8.103z" fill="#F1F2F2"/><path d="M1173.42 603.071h-10.29v8.103h10.29v-8.103z" fill="#A7A9AC"/><path d="M1171.41 603.071h-32.62v.93h32.62v-.93zm0 7.173h-32.62v.93h32.62v-.93z" fill="#A7A9AC"/><path d="M1206.58 603.071h-42.57v8.103h42.57v-8.103z" fill="#383838"/><path d="M1191.36 604.955h-22.77v4.336h22.77v-4.336z" fill="#A7A9AC"/><path d="M1190.14 605.188h-20.32v3.868h20.32v-3.868z" fill="#E6E7E8"/><path d="M1200.64 609.297c1.47 0 2.66-.972 2.66-2.171 0-1.199-1.19-2.171-2.66-2.171-1.47 0-2.66.972-2.66 2.171 0 1.199 1.19 2.171 2.66 2.171zm-39.29-4.751h-18.61v.819h18.61v-.819zm0 3.155h-18.61v.818h18.61v-.818zm0 1.18h-18.61v.819h18.61v-.819zm-1.18-2.523h-11.6v.818h11.6v-.818zm-12.53 0h-4.9v.818h4.9v-.818z" fill="#A7A9AC"/><path d="M1167.28 595.159h-32.62v8.104h32.62v-8.104z" fill="#F1F2F2"/><path d="M1167.28 595.159h-10.3v8.104h10.3v-8.104z" fill="#A7A9AC"/><path d="M1165.27 595.159h-32.63v.932h32.63v-.932zm0 7.173h-32.63v.931h32.63v-.931z" fill="#A7A9AC"/><path d="M1200.44 595.159h-42.57v8.104h42.57v-8.104z" fill="#58595B"/><path d="M1185.22 597.044h-22.77v4.335h22.77v-4.335z" fill="#A7A9AC"/><path d="M1183.99 597.277h-20.32v3.869h20.32v-3.869z" fill="#E6E7E8"/><path d="M1194.5 601.387c1.47 0 2.66-.972 2.66-2.171 0-1.199-1.19-2.171-2.66-2.171-1.47 0-2.66.972-2.66 2.171 0 1.199 1.19 2.171 2.66 2.171zm-39.3-4.753h-18.6v.818h18.6v-.818zm0 3.155h-18.6v.819h18.6v-.819zm0 1.181h-18.6v.82h18.6v-.82zm-1.18-2.523h-11.59v.819h11.59v-.819zm-12.52 0h-4.9v.819h4.9v-.819z" fill="#A7A9AC"/><path d="M1173.42 587.248h-32.62v8.104h32.62v-8.104z" fill="#F1F2F2"/><path d="M1173.42 587.248h-10.29v8.104h10.29v-8.104z" fill="#A7A9AC"/><path d="M1171.41 587.248h-32.62v.931h32.62v-.931zm0 7.174h-32.62v.93h32.62v-.93z" fill="#A7A9AC"/><path d="M1206.58 587.248h-42.57v8.104h42.57v-8.104z" fill="#594A42"/><path d="M1191.36 589.133h-22.77v4.335h22.77v-4.335z" fill="#A7A9AC"/><path d="M1190.14 589.367h-20.32v3.868h20.32v-3.868z" fill="#E6E7E8"/><path d="M1200.64 593.476c1.47 0 2.66-.972 2.66-2.172 0-1.2-1.19-2.172-2.66-2.172-1.47 0-2.66.972-2.66 2.172 0 1.2 1.19 2.172 2.66 2.172zm-39.29-4.752h-18.61v.819h18.61v-.819zm0 3.155h-18.61v.819h18.61v-.819zm0 1.18h-18.61v.819h18.61v-.819zm-1.18-2.524h-11.6v.819h11.6v-.819zm-12.53 0h-4.9v.819h4.9v-.819z" fill="#A7A9AC"/><path d="M1209.4 610.957l1.8-26.825h-17.05l1.81 26.825h13.44z" fill="#FAFEFF"/><path d="M1197.49 609.319l-1.59-23.549h13.55l-1.58 23.549h-10.38z" fill="#B4EFF9"/><path d="M1196.42 593.498l1.07 15.821h10.38l1.06-15.821h-12.51z" fill="#75D9EF"/><path opacity=".5" d="M1198.58 605.908h2.84l-1.68-16.849c-.34-3.008-3.15-3.172-2.71.259l1.55 16.59z" fill="#fff"/><path d="M865.093 583.708a16.376 16.376 0 0010.271 13.272.086.086 0 00.102-.049.083.083 0 00.002-.06.087.087 0 00-.039-.047c-5.418-2.554-9.434-7.021-10.192-13.117-.011-.094-.155-.094-.144 0v.001z" fill="#81553A"/><path d="M874.89 574.704a19.897 19.897 0 01-3.692 21.549.09.09 0 00-.026.063c0 .023.01.046.026.063a.09.09 0 00.127 0 19.535 19.535 0 003.678-21.74c-.034-.078-.146-.011-.113.066v-.001zm15.655 3.362c2.916 3.712 1.279 7.989-.565 11.773-1.628 3.34-4.944 4.91-8.174 6.319a.114.114 0 00-.055.065.121.121 0 00.003.086.125.125 0 00.06.062.122.122 0 00.086.005c4.144-1.473 7.252-3.781 8.963-7.876 1.528-3.654 2.498-7.226-.176-10.57-.08-.1-.217.041-.14.139l-.002-.003z" fill="#81553A"/><path d="M888.856 589.896a7.527 7.527 0 007.217-2.956.089.089 0 00.002-.058.09.09 0 00-.033-.048.1.1 0 00-.055-.02.102.102 0 00-.056.017 8.375 8.375 0 01-7.055 2.94.06.06 0 00-.041.016.06.06 0 00-.021.039.06.06 0 00.01.043c.008.013.02.022.035.027h-.003zm-7.55-13.929c-.453 4.003-1.548 10.892-5.594 12.866a.096.096 0 00-.04.119.098.098 0 00.046.048c.021.01.045.012.067.006 4.269-1.587 5.295-9.23 5.672-13.039.009-.095-.139-.095-.15 0h-.001zm-23.571 5.624a9.074 9.074 0 003.152 5.757 9.05 9.05 0 006.208 2.117.061.061 0 00.043-.017.06.06 0 00.018-.044.058.058 0 00-.018-.043.062.062 0 00-.043-.018 9.271 9.271 0 01-9.228-7.788c-.015-.087-.144-.049-.131.036h-.001z" fill="#81553A"/><path d="M895.471 592.428h-33.818s-2.742 6.612-2.742 8.246c0 1.634 3.736 4.978 7.758 4.978h23.787c4.022 0 7.758-3.345 7.758-4.978 0-1.634-2.743-8.246-2.743-8.246z" fill="#FFD04D"/><path d="M891.876 607.353h-26.628l.931-1.701h24.766l.931 1.701zm-22.685-6.679c0-1.634 2.741-8.246 2.741-8.246h-10.279s-2.742 6.612-2.742 8.246c0 1.634 3.736 4.978 7.758 4.978h10.279c-4.025 0-7.757-3.345-7.757-4.978z" fill="#EFAF11"/><path d="M866.179 605.652l-.93 1.701h10.28l.93-1.701h-10.28z" fill="#EFAF11" opacity=".55"/><path d="M877.297 580.121c.769-.602 3.799-1.677 5.823-.398a8.716 8.716 0 014.207 6.833 21.45 21.45 0 01-5.59.535c-6.331-.497-5.866-5.854-4.44-6.97zm15.411-3.373c.511-.439 2.565-1.277 4-.46a6.018 6.018 0 013.117 4.574c-1.249.35-2.538.534-3.835.548-4.378-.141-4.229-3.846-3.282-4.662zm-1.389-2.186a2.835 2.835 0 00-2.753.204 4.163 4.163 0 00-1.505 3.509 10.09 10.09 0 002.654-.123c2.927-.661 2.348-3.159 1.604-3.59zm-30.074 3.146a3.816 3.816 0 00-2.145-.326 2.91 2.91 0 00-2.179 3.888 2.605 2.605 0 002.242 1.319c1.729.217 3.799-1.137 5.521-1.695a7.366 7.366 0 00-3.439-3.186zm4.491 4.459a2.324 2.324 0 00-1.259 1.915 2.098 2.098 0 002.115 1.695c.991.047 4.528-.921 6.036-.146-2.622-4.976-5.274-4.489-6.892-3.464zm29.823 1.735a2.051 2.051 0 00-1.247 1.439 1.647 1.647 0 001.261 1.751c.717.188 3.47-.118 4.442.761.002-3.772-3.098-4.584-4.456-3.951zm-18.813 4.864c.806-.233 3.857-.499 5.119 1.137 2.305 2.984.323 5.557.068 6.467a19.364 19.364 0 01-4.714-1.325c-5.005-2.366-3.215-5.859-.473-6.279zm-11.046.533c-.735-.247-3.221-.211-4.25 1.369a7.523 7.523 0 00-.817 6.535c1.425-.198 2.815-.6 4.127-1.194 4.325-2.215 2.302-6.252.94-6.71zm8.061-14.902a2.36 2.36 0 011.771 1.318 1.915 1.915 0 01-1.02 2.294c-.774.388-3.993.732-4.892 1.967.119-5.48 2.438-5.956 4.141-5.579z" fill="#709E3E"/><g opacity=".62" fill="#93BC6C"><path opacity=".62" d="M856.774 579.74a16.042 16.042 0 017.816 1.362c.041.018.077-.042.036-.061a15.137 15.137 0 00-7.852-1.36c-.037 0-.038.062 0 .059zm.934-.624a7.564 7.564 0 015.978.612.03.03 0 00.026.003.039.039 0 00.02-.016.04.04 0 00.004-.026.04.04 0 00-.015-.021 6.921 6.921 0 00-6.028-.604c-.006.002-.01.007-.013.013a.028.028 0 00-.001.018.023.023 0 00.01.015c.006.004.012.006.018.005l.001.001zm-.447.969c.847 1.87 3.908 1.614 5.521 1.188a.052.052 0 00.031-.025.05.05 0 00.005-.04.05.05 0 00-.025-.032.055.055 0 00-.04-.005c-1.567.388-4.596.684-5.437-1.118-.018-.037-.072-.004-.056.032h.001zm7.973 2.819a5.418 5.418 0 016.882 2.345.03.03 0 00.018.013.034.034 0 00.022-.002.031.031 0 00.014-.018.028.028 0 00-.003-.022 5.339 5.339 0 00-6.954-2.368.025.025 0 00-.014.016.026.026 0 000 .021.028.028 0 00.015.015.026.026 0 00.021.001l-.001-.001z"/><path opacity=".62" d="M865.568 583.246c2.131.262 4.211.841 6.172 1.716.021.01.04-.02.018-.031a17.917 17.917 0 00-6.191-1.744c-.038 0-.037.056 0 .059h.001zm-.683.579a11.316 11.316 0 006.586 1.497c.055-.004.056-.094 0-.087a12.305 12.305 0 01-6.565-1.449.022.022 0 00-.016 0c-.005.001-.009.005-.012.01a.02.02 0 00-.003.015c.001.005.004.01.009.014h.001zm4.934-4.089a12.315 12.315 0 014.718-4.427.051.051 0 00.024-.03.05.05 0 00-.006-.038.048.048 0 00-.03-.024.05.05 0 00-.038.006 10.745 10.745 0 00-4.726 4.494.025.025 0 00.001.012.03.03 0 00.014.019.03.03 0 00.023.003.03.03 0 00.019-.014l.001-.001zm2.015-.954a7.021 7.021 0 003.678-3.269.04.04 0 00-.017-.052.04.04 0 00-.028-.005.042.042 0 00-.025.016 7.678 7.678 0 01-3.623 3.26c-.031.013-.017.064.015.051v-.001zm-1.966-.377a4.847 4.847 0 014.422-3.579.043.043 0 00.027-.015.044.044 0 00-.027-.072 4.761 4.761 0 00-4.489 3.652.027.027 0 00.003.025.03.03 0 00.02.016.037.037 0 00.025-.003.035.035 0 00.016-.02l.003-.004zm17.543-.062a9.374 9.374 0 013.493-3.27.052.052 0 00.018-.069.052.052 0 00-.069-.018 7.798 7.798 0 00-3.499 3.337l.001.012a.03.03 0 00.014.019.03.03 0 00.023.003.03.03 0 00.019-.014zm1.484-.705a5.124 5.124 0 002.729-2.422.037.037 0 00.001-.029.038.038 0 00-.018-.023.035.035 0 00-.028-.004.038.038 0 00-.025.016 5.794 5.794 0 01-2.674 2.411c-.031.013-.017.064.015.051z"/><path opacity=".62" d="M887.447 577.358a3.591 3.591 0 013.267-2.643.049.049 0 00.027-.015.044.044 0 000-.058.049.049 0 00-.027-.015 3.517 3.517 0 00-3.332 2.726.02.02 0 00.004.012.032.032 0 00.02.016.037.037 0 00.025-.003.039.039 0 00.016-.02zm-26.552 19.372a22.579 22.579 0 015.679-6.97.035.035 0 00.008-.022.04.04 0 00-.008-.023.036.036 0 00-.043-.011 18.839 18.839 0 00-5.687 6.998c-.017.035.034.066.052.031l-.001-.003z"/><path opacity=".62" d="M860.599 596.836a6.6 6.6 0 011.127-4.777 6.585 6.585 0 014.111-2.674.038.038 0 00.023-.018.045.045 0 00.004-.03.038.038 0 00-.018-.023.037.037 0 00-.029-.005 6.572 6.572 0 00-5.289 7.547c.006.048.079.028.072-.02h-.001zm.602-.167a6.346 6.346 0 004.029-1.899 6.364 6.364 0 001.792-4.082c0-.043-.06-.04-.065 0a6.458 6.458 0 01-1.811 3.996 6.435 6.435 0 01-3.945 1.913c-.045.005-.046.078 0 .073v-.001zm14.45-7.26a9.333 9.333 0 015.28 6.435.028.028 0 00.014.018.026.026 0 00.024.003.031.031 0 00.018-.014.03.03 0 00.003-.023 9.07 9.07 0 00-5.31-6.466c-.031-.014-.06.032-.028.047h-.001z"/><path opacity=".62" d="M876.011 589.557c2.916.434 6.178 1.457 6.049 5.037 0 .01.004.02.011.028a.043.043 0 00.028.011.04.04 0 00.04-.039c.282-3.617-3.199-4.691-6.115-5.096-.039-.005-.056.053-.016.06l.003-.001zm-.154.492c-.597 2.739 2.134 4.275 4.311 5.045a.033.033 0 00.022-.001c.006-.003.012-.008.014-.015a.033.033 0 00.001-.022.036.036 0 00-.014-.016c-2.027-.941-4.856-2.203-4.271-4.975.008-.04-.054-.058-.063-.016zm1.247-8.896c.062 3.978 5.841 5.225 8.937 5.222a.028.028 0 00.02-.008.027.027 0 00.009-.02.025.025 0 00-.009-.02.028.028 0 00-.02-.008c-3.092-.111-8.739-1.206-8.905-5.166a.016.016 0 00-.005-.011.016.016 0 00-.011-.005.016.016 0 00-.011.005.016.016 0 00-.005.011z"/><path opacity=".62" d="M877.87 581.639a40.877 40.877 0 008.771 4.744c.042.016.06-.051.019-.067a42.96 42.96 0 01-8.769-4.709c-.021-.016-.042.02-.021.035v-.003zm.068-.628a15.014 15.014 0 018.817 5.199c.041.047.106-.02.068-.067a14.395 14.395 0 00-8.87-5.181c-.033-.005-.049.046-.014.052l-.001-.003z"/><path opacity=".62" d="M878.314 580.057c4.393-.25 8.152 1.406 8.636 6.232a.031.031 0 00.011.019.034.034 0 00.021.008.035.035 0 00.022-.008.031.031 0 00.011-.019 6.37 6.37 0 00-2.352-4.885c-1.836-1.486-4.098-1.563-6.354-1.404-.037 0-.038.06 0 .058l.005-.001zm13.955-2.395c.314 2.844 4.544 3.391 6.782 3.202a.028.028 0 00.02-.008.028.028 0 00.008-.02.03.03 0 00-.008-.02.028.028 0 00-.02-.008c-2.244.072-6.334-.317-6.751-3.149a.024.024 0 00-.006-.009c-.002-.002-.006-.003-.009-.003a.017.017 0 00-.01.003.024.024 0 00-.006.009v.003z"/><path opacity=".62" d="M892.852 577.967a29.995 29.995 0 006.634 2.87c.008.002.017 0 .025-.004a.036.036 0 00.015-.021.036.036 0 00-.002-.025.035.035 0 00-.019-.017 32.176 32.176 0 01-6.631-2.839.026.026 0 00-.015-.001.023.023 0 00-.012.01c-.003.004-.003.009-.002.015a.02.02 0 00.008.012h-.001zm.026-.442a11.088 11.088 0 016.679 3.184c.01.008.021.012.034.012a.043.043 0 00.032-.014.045.045 0 00.014-.032.046.046 0 00-.012-.034 10.516 10.516 0 00-6.742-3.169c-.035 0-.034.051 0 .054l-.005-.001z"/><path opacity=".62" d="M893.096 576.833c3.117-.397 5.943.513 6.607 3.918a.031.031 0 00.014.018.03.03 0 00.021.004.03.03 0 00.02-.01.037.037 0 00.009-.02 4.418 4.418 0 00-1.967-3.331 6.47 6.47 0 00-4.712-.636.026.026 0 00-.017.012.028.028 0 00-.004.02.031.031 0 00.009.018.03.03 0 00.02.007zm1.27 8.67a2.21 2.21 0 001.365 1.024c.576.149 1.187.075 1.774.178a6.78 6.78 0 012.422.972h.004l.003-.003v-.003l-.001-.004a6.532 6.532 0 00-2.787-1.064c-1.045-.127-2.14-.08-2.744-1.12a.02.02 0 00-.013-.009.02.02 0 00-.015.002.02.02 0 00-.009.013.02.02 0 00.002.015l-.001-.001zm.377-.519a6.472 6.472 0 015.03 2.499.011.011 0 00.008.003c.003 0 .007-.001.009-.003.003-.002.004-.005.005-.008a.01.01 0 00-.001-.009 6.24 6.24 0 00-5.052-2.529.02.02 0 00-.016.007c-.005.004-.007.01-.007.017a.02.02 0 00.007.016.02.02 0 00.016.007h.001z"/><path opacity=".62" d="M895.33 584.643a3.37 3.37 0 012.727.223 3.37 3.37 0 011.655 2.181.03.03 0 00.013.016.027.027 0 00.02.002.031.031 0 00.016-.012.028.028 0 00.002-.02 3.356 3.356 0 00-1.668-2.234 3.356 3.356 0 00-2.778-.206c-.031.011-.018.061.014.05h-.001z"/></g><path d="M858.224 583.335c-.699-.602-3.455-1.678-5.296-.398a10.068 10.068 0 00-4.151 7.107c1.783.333 3.602.421 5.409.262 5.754-.499 5.334-5.855 4.038-6.971zm31.942-6.016c-.587-.407-2.798-1.015-4.114.119a6.936 6.936 0 00-2.402 5.576c1.314.19 2.648.19 3.962 0 4.399-.841 3.645-4.939 2.554-5.695zm-13.872-6.345a2.054 2.054 0 00-1.248 1.44 1.65 1.65 0 001.261 1.751c.717.188 3.47-.118 4.443.761.001-3.773-3.098-4.585-4.456-3.952zm12.882 18.074c.653-.365 3.263-1.235 4.756-.141 2.722 1.997 1.588 4.56 1.578 5.376-1.48.144-2.972.11-4.444-.102-4.947-.904-4.197-4.197-1.89-5.133z" fill="#93BC6C"/><path d="M849.121 589.809a15.67 15.67 0 003.145-2.554 15.22 15.22 0 015.181-3.339c.049-.019.03-.094-.022-.08-3.53 1.088-5.277 4.163-8.349 5.897a.049.049 0 00-.013.012.041.041 0 00-.007.015.037.037 0 00-.001.018.03.03 0 00.005.016c.003.005.007.01.012.013.005.004.01.006.016.008.005.001.011.002.017.001a.044.044 0 00.016-.006v-.001z" fill="#709E3E"/><path d="M849.121 589.425a38.757 38.757 0 012.729-3.993c1.491-1.654 3.253-2.052 5.414-1.977.076 0 .094-.125.018-.137-4.447-.695-6.198 2.854-8.202 6.08a.025.025 0 000 .017.02.02 0 00.011.014c.005.003.011.004.017.003a.024.024 0 00.015-.009l-.002.002zm1.115.576c3.336-.169 8.958-.865 8.03-5.579a.065.065 0 00-.071-.044.064.064 0 00-.039.02.064.064 0 00-.018.041c.017 1.461-.223 2.985-1.463 3.924-1.656 1.254-4.462 1.412-6.44 1.548-.057 0-.058.094 0 .089l.001.001z" fill="#709E3E"/><path d="M849.469 589.875c1.721-.565 3.552-.905 5.214-1.645 1.637-.73 2.332-2.152 3.156-3.664a.045.045 0 00.004-.034.043.043 0 00-.02-.027.045.045 0 00-.034-.005.04.04 0 00-.027.021c-1.108 1.836-1.983 3.168-4.079 3.949-1.386.517-2.836.848-4.233 1.318-.052.018-.03.101.023.083l-.004.004zm26.599-17.859a9.274 9.274 0 014.307 2.478.032.032 0 00.021.008.032.032 0 00.021-.008.032.032 0 00.008-.021.032.032 0 00-.008-.021 8.12 8.12 0 00-4.337-2.479.022.022 0 00-.016.003.026.026 0 00-.01.013c-.001.006-.001.011.002.016.002.006.006.009.012.011zm-.635.473a1.386 1.386 0 001.066.856c1.015.338 2.043.659 3.079.922l.013.001a.056.056 0 00.012-.004l.01-.009a.024.024 0 00.006-.011l.001-.013a.05.05 0 00-.004-.013.028.028 0 00-.009-.01 35.491 35.491 0 00-2-.653c-.672-.203-1.806-.353-2.086-1.09-.021-.055-.109-.032-.089.024h.001z" fill="#709E3E"/><path d="M876.097 571.724a4.028 4.028 0 014.452 2.572c.015.034.068.009.058-.025a3.903 3.903 0 00-4.536-2.637c-.062.011-.035.104.025.094l.001-.004zm8.026 11.144c2.006-1.344 3.935-2.826 5.86-4.287a.018.018 0 00.007-.01c0-.004 0-.008-.002-.012s-.006-.006-.01-.008a.017.017 0 00-.012.001c-2.07 1.249-3.874 2.911-5.865 4.278-.022.016 0 .053.022.037v.001zm.521-.079c2.223-.34 4.749-1.726 5.631-3.907a.034.034 0 00-.003-.02.033.033 0 00-.015-.014.03.03 0 00-.037.011 7.477 7.477 0 01-5.583 3.904c-.017 0-.01.028.006.026h.001zm-.62-.206a8.799 8.799 0 015.339-4.405.03.03 0 00.019-.014.033.033 0 00.003-.024.033.033 0 00-.015-.018.03.03 0 00-.023-.003 8.33 8.33 0 00-5.388 4.427.036.036 0 00-.002.027.036.036 0 00.017.021c.009.005.018.007.027.005a.039.039 0 00.023-.016z" fill="#709E3E"/><path d="M885.078 582.87a7.122 7.122 0 004.393-1.1 2.127 2.127 0 00.953-2.576c-.014-.033-.068-.009-.058.025.964 2.947-3.377 3.562-5.288 3.61a.02.02 0 00-.014.006.02.02 0 000 .029c.004.003.009.006.014.006zm-1.229-.697c.65-2.614 2.34-4.742 5.278-4.557.058 0 .055-.083 0-.089-2.943-.334-4.755 2.03-5.345 4.628a.038.038 0 00.005.025.034.034 0 00.045.012.03.03 0 00.017-.018v-.001zm6.053 7.158a23.37 23.37 0 015.287 4.753c.023.026.058-.011.038-.037a21.537 21.537 0 00-5.303-4.753.02.02 0 00-.015 0 .02.02 0 00-.011.009.02.02 0 00-.003.015.024.024 0 00.007.013z" fill="#709E3E"/><path d="M890.144 589.175a6.302 6.302 0 015.183 4.607.032.032 0 00.039.022.034.034 0 00.018-.015.026.026 0 00.003-.024 6.14 6.14 0 00-5.231-4.63c-.027 0-.038.036-.012.04z" fill="#709E3E"/><path d="M890.661 589.024a4.66 4.66 0 013.581 1.036 3.861 3.861 0 011.082 3.036c0 .009.004.018.01.024.007.006.015.01.024.01a.033.033 0 00.023-.01.031.031 0 00.01-.024 3.725 3.725 0 00-1.089-3.097 4.648 4.648 0 00-3.64-1.014c-.023 0-.024.041 0 .038l-.001.001zm-.946.335c-1.516 2.161 3.914 4.441 5.307 4.739a.036.036 0 00.026-.007.036.036 0 00.015-.021.039.039 0 00-.021-.046c-1.317-.368-6.65-2.5-5.28-4.638.019-.03-.028-.055-.047-.027z" fill="#709E3E"/><path d="M889.11 589.575a1.741 1.741 0 00-.195 2.706c1.173 1.35 3.393 1.828 5.092 1.821a.04.04 0 00.03-.012.043.043 0 00.013-.03.043.043 0 00-.013-.03.042.042 0 00-.03-.013 9.653 9.653 0 01-3.079-.604c-1.273-.501-3.951-2.362-1.792-3.794a.023.023 0 00.007-.007c.003-.002.004-.006.005-.009a.017.017 0 000-.01.016.016 0 00-.003-.009.027.027 0 00-.007-.008c-.002-.002-.006-.003-.009-.004l-.01-.001a.036.036 0 00-.009.004z" fill="#709E3E"/><path d="M811.104 617.881h-9.432v185.735h9.432V617.881zm388.146 0h-9.43v185.735h9.43V617.881z" fill="#4C2311"/><path d="M1218.39 612.471H782.536v8.193h435.854v-8.193z" fill="#4C2311"/><path d="M1222.96 610.833H777.965v3.672h444.995v-3.672z" fill="#66341B"/><path d="M949.343 608.938h-94.066v1.895h94.066v-1.895z" fill="#525252"/><path d="M945.37 606.492s-37.183-2.204-42.65 1.638c-7.501-3.423-43.472-1.638-43.472-1.638v2.448h86.122v-2.448z" fill="#D6D6D6"/><path d="M945.37 608.13a421.16 421.16 0 00-10.707-.706c-3.572-.192-7.144-.377-10.719-.471-3.575-.094-7.149-.127-10.724 0-1.788.069-3.568.18-5.335.394-.883.101-1.759.248-2.626.439a7.683 7.683 0 00-2.427.911l-.094.064-.108-.046a13.576 13.576 0 00-2.57-.753 35.862 35.862 0 00-2.68-.41c-1.802-.203-3.615-.313-5.43-.389-3.631-.146-7.269-.134-10.905-.062a357.62 357.62 0 00-10.905.4c-3.634.165-7.266.375-10.897.628 7.249-.654 14.517-1.114 21.796-1.301 3.639-.094 7.281-.131 10.924-.008 1.821.064 3.642.162 5.456.356.908.104 1.815.225 2.716.398a13.2 13.2 0 012.662.768l-.2.019a8.018 8.018 0 012.573-.959 26.738 26.738 0 012.668-.428c1.787-.205 3.574-.304 5.368-.362 3.582-.104 7.163-.05 10.74.068 7.161.236 14.304.749 21.424 1.45z" fill="#A5A5AF"/><path d="M945.371 608.129a826.605 826.605 0 00-10.677-.219 825.92 825.92 0 00-10.676-.149 372.308 372.308 0 00-10.674.064 150.09 150.09 0 00-5.328.208c-.887.056-1.773.116-2.652.217-.871.071-1.734.229-2.574.471l-.056.019-.056-.012a22.317 22.317 0 00-2.655-.282 83.296 83.296 0 00-2.694-.125 236.876 236.876 0 00-5.4-.109c-3.601-.033-7.204-.02-10.807.01l-21.617.312 10.805-.369 10.809-.216c3.603-.054 7.207-.095 10.813-.08 1.803.007 3.605.024 5.409.073.901.025 1.803.054 2.705.108a20.63 20.63 0 012.717.283l-.112.007a13.373 13.373 0 012.671-.47 53.348 53.348 0 012.672-.202 151.3 151.3 0 015.343-.175c3.562-.057 7.123-.039 10.684 0 3.561.038 7.119.119 10.678.221 3.558.119 7.115.257 10.672.415z" fill="#A5A5AF"/><path d="M1084.13 608.938h-94.065v1.895h94.065v-1.895z" fill="#525252"/><path d="M1080.16 606.492s-37.18-2.204-42.65 1.638c-7.5-3.423-43.473-1.638-43.473-1.638v2.448h86.123v-2.448z" fill="#D6D6D6"/><path d="M1080.16 608.13a422.92 422.92 0 00-10.71-.706c-3.57-.192-7.14-.377-10.72-.471-3.57-.094-7.15-.127-10.72 0-1.79.069-3.57.18-5.34.394-.88.101-1.75.248-2.62.439-.86.164-1.68.472-2.43.911l-.09.064-.11-.046c-.83-.335-1.69-.587-2.57-.753-.89-.176-1.78-.301-2.68-.41-1.8-.203-3.62-.313-5.43-.389-3.63-.146-7.27-.134-10.91-.062-3.63.072-7.27.217-10.9.4-3.64.165-7.27.375-10.898.628 7.248-.654 14.518-1.114 21.798-1.301 3.64-.094 7.28-.131 10.92-.008 1.82.064 3.64.162 5.46.356.91.104 1.81.225 2.71.398.92.162 1.81.419 2.67.768l-.2.019c.79-.465 1.66-.79 2.57-.959a26.22 26.22 0 012.67-.428c1.78-.205 3.57-.304 5.36-.362 3.59-.104 7.17-.05 10.75.068 7.16.236 14.3.749 21.42 1.45z" fill="#A5A5AF"/><path d="M1080.16 608.13c-3.56-.097-7.12-.17-10.68-.22-3.56-.07-7.12-.125-10.67-.149-3.56-.023-7.12-.015-10.68.064-1.78.043-3.55.102-5.33.208-.88.056-1.77.116-2.65.217-.87.071-1.73.229-2.57.471l-.06.019-.05-.011c-.88-.148-1.77-.242-2.66-.283-.89-.06-1.79-.094-2.69-.125-1.8-.061-3.6-.089-5.4-.109-3.6-.033-7.21-.02-10.81.01l-21.618.312 10.808-.373 10.81-.217c3.6-.054 7.21-.094 10.81-.08 1.81.007 3.61.024 5.41.073.9.026 1.8.054 2.71.109.91.034 1.82.128 2.71.282l-.11.008c.88-.247 1.77-.405 2.67-.471a54.48 54.48 0 012.67-.202c1.79-.094 3.57-.144 5.35-.175 3.56-.056 7.12-.038 10.68 0 3.56.039 7.12.12 10.68.221 3.56.122 7.11.262 10.67.421z" fill="#A5A5AF"/><path d="M1129.41 769.874l1.56 9.402h7.16l3.08-.528-2.25-14.612-9.55 5.738z" fill="#FFE1BD"/><path d="M1139.93 767.182c-.68.317-1.41.594-2.16.857a60.556 60.556 0 01-9.28 2.056c-8.56-14.062-30.78-82.559-30.78-82.559-2.04-8.653 10.94 2.427 16.34 2.097 1.7-.131 3.4.117 4.98.725 5.17 2.19 12.74 16.818 12.74 16.818s2.31 5.052 4.72 15.499c2.41 10.448 3.44 44.507 3.44 44.507z" fill="#1A1A47"/><path opacity=".54" d="M1139.93 767.182c-.68.317-1.41.594-2.16.858-.54-4.169-1.34-10.817-2.53-21.41-2.65-23.743-17.68-50.93-21.19-56.998 1.7-.131 3.4.117 4.98.725 5.17 2.19 12.74 16.818 12.74 16.818s2.31 5.052 4.72 15.5c2.41 10.447 3.44 44.507 3.44 44.507z" fill="#3D3D72"/><path d="M1130.5 777.908c1.86.014 3.71-.27 5.48-.841a13.164 13.164 0 004.61-2.92s7.6 4.646 7.59 12.989a1.07 1.07 0 01-.7.979s-18.22 8.105-24.49 10.322a93.29 93.29 0 01-10.06 2.605.894.894 0 01-.63-.036.913.913 0 01-.44-.446c-.33-.847-.49-2.334 1.37-3.761 2.82-2.167 5.91-3.94 8.05-5.737 2.15-1.797 4.34-6.753 6.08-8.163a11.465 11.465 0 003.14-4.991z" fill="#1A1A47"/><path d="M1168.25 819.383l2.66-142.439h-9.46l2.66 142.439c.03 1.445.96 2.616 2.07 2.616 1.11 0 2.04-1.171 2.07-2.616zm-86.97-16.662l54.96-131.406-8.79-3.497-50.02 133.369c-.51 1.354-.08 2.785.96 3.196 1.03.412 2.32-.33 2.89-1.662zm169.81 0l-54.97-131.406 8.8-3.497 50.02 133.369c.5 1.354.07 2.785-.96 3.196-1.04.412-2.33-.33-2.89-1.662z" fill="#723E24"/><path d="M1125.92 671.891l5.6 2.225-51.67 130.166a3.05 3.05 0 001.43-1.56l54.96-131.407-8.79-3.497-1.53 4.073zm35.6 8.801h7.05l-2.63 141.273c.08.018.16.029.25.033 1.11 0 2.03-1.171 2.06-2.616l2.67-142.439h-9.47l.07 3.749zm93.42 120.499l-50.02-133.368-8.8 3.496 1.01 2.417 5.44-2.166 49.74 132.6a1.882 1.882 0 001.67.213c1.03-.407 1.46-1.838.96-3.192z" fill="#000" opacity=".3"/><path d="M1099.52 604.683h-86.98l-17.212-54.192a4.23 4.23 0 014.028-5.515h78.104c.89 0 1.77.286 2.49.816.73.53 1.26 1.277 1.54 2.133l18.03 56.758z" fill="#fff"/><path d="M1098.11 604.683h-83.27l-17.059-53.191a4.163 4.163 0 013.989-5.413h74.49c.88-.002 1.75.277 2.46.797a4.22 4.22 0 011.53 2.098l17.86 55.709z" fill="#E1EDF9"/><path d="M1045.87 556.134h-37.95c-.27 0-.53-.108-.72-.3-.19-.193-.3-.453-.3-.725 0-.272.11-.532.3-.725.19-.192.45-.3.72-.3h37.94c.27 0 .53.108.73.3.19.193.29.453.29.725 0 .271-.1.531-.29.723-.19.192-.45.3-.72.302zm5.87 4.736h-42.3c-.28 0-.54-.108-.73-.3-.19-.192-.3-.453-.3-.724a1.052 1.052 0 01.3-.725c.1-.095.21-.171.33-.222.13-.052.26-.078.4-.078h42.3c.14 0 .27.026.39.078.13.051.24.127.33.222a.95.95 0 01.3.725c0 .271-.1.532-.3.724-.19.192-.45.3-.72.3zm-3.92 4.737h-36.85c-.13 0-.26-.026-.39-.078a1.115 1.115 0 01-.33-.222 1.061 1.061 0 01-.3-.725c0-.271.11-.532.3-.724.19-.192.45-.3.72-.3h36.85c.27 0 .53.108.72.3.2.192.3.453.3.724 0 .272-.1.532-.3.725-.19.192-.45.3-.72.3zm-6.14 4.737h-29.2c-.28 0-.54-.108-.73-.3-.19-.193-.3-.453-.3-.725 0-.272.11-.532.3-.725.19-.192.45-.3.73-.3h29.2c.27 0 .53.108.72.3.2.193.3.453.3.725 0 .272-.1.532-.3.725-.19.192-.45.3-.72.3zm14.65 4.735h-42.31a1 1 0 01-.72-.3 1.06 1.06 0 01-.3-.724c0-.272.11-.533.3-.725.19-.192.45-.3.72-.3h42.31c.27 0 .53.108.72.3.19.192.3.453.3.725a.89.89 0 01-.08.392 1.016 1.016 0 01-.94.632zm-3.95 4.739h-36.84a1.059 1.059 0 01-.73-.3 1.052 1.052 0 01-.3-.725 1.056 1.056 0 01.3-.724 1.045 1.045 0 01.73-.301h36.84c.27 0 .54.108.73.301.19.192.3.452.3.724 0 .272-.11.533-.3.725-.19.192-.46.3-.73.3zm8.48 9.471h-42.31a1 1 0 01-.72-.3 1.06 1.06 0 01-.3-.724 1.061 1.061 0 01.3-.725 1 1 0 01.72-.3h42.31a1.006 1.006 0 01.72.3c.1.095.17.208.22.332.06.125.08.258.08.393 0 .271-.11.531-.3.723-.19.192-.45.301-.72.301zm1.54 4.737h-42.3c-.28 0-.54-.108-.73-.3-.19-.192-.3-.453-.3-.725 0-.271.11-.532.3-.724.19-.192.45-.3.73-.3h42.3a1.045 1.045 0 01.73.3 1.066 1.066 0 01.3.727 1.052 1.052 0 01-.3.724c-.1.095-.21.17-.34.221a.987.987 0 01-.39.077zm22.5 0h-13.66a2.925 2.925 0 01-2.79-2.042l-11.39-36.1a2.966 2.966 0 01-.1-1.356c.08-.453.26-.883.53-1.253a2.897 2.897 0 012.35-1.194h13.67c.62-.001 1.22.197 1.73.564.5.368.87.885 1.05 1.478l11.39 36.1c.14.438.18.903.1 1.356-.07.454-.25.884-.52 1.255-.28.37-.63.671-1.04.879-.41.207-.86.314-1.32.313z" fill="#C2E0F2"/><path d="M1106.8 608.628h-94.57a2.784 2.784 0 01-1.98-.821 2.78 2.78 0 01-.82-1.98c0-.743.29-1.455.82-1.981.52-.525 1.23-.82 1.98-.82h94.57c.75 0 1.46.295 1.98.82.53.525.82 1.238.82 1.981 0 .743-.29 1.455-.82 1.98-.52.526-1.23.821-1.98.821z" fill="#fff"/><path d="M1134.11 533.75c-.42.002-.83-.108-1.19-.318-.37-.21-.67-.512-.88-.876l-3.14-5.54c-.16-.276-.26-.58-.3-.896-.03-.315-.01-.634.08-.939a2.378 2.378 0 011.17-1.431l8.76-4.632a2.374 2.374 0 013.18.962l2.99 5.494c.15.273.24.574.27.883.04.31.01.623-.08.922-.09.298-.23.577-.43.819-.2.242-.44.443-.71.592l-8.6 4.676c-.34.187-.73.284-1.12.284zm5.6-13.811c-.21 0-.41.05-.59.147l-8.76 4.63a1.31 1.31 0 00-.63.771c-.05.164-.06.336-.04.506.02.17.07.334.16.482l3.14 5.54a1.286 1.286 0 001.72.49l8.6-4.676c.3-.162.52-.435.61-.76.1-.325.06-.674-.1-.971l-2.99-5.494c-.11-.202-.27-.37-.47-.487-.2-.117-.42-.179-.65-.178z" fill="#1A1A47"/><path d="M1098.22 591.026c-.35.449-.71.88-1.1 1.291 0 0-4.59-3.477-5.87-3.805-1.27-.327-3.99.689-5.55.776-1.55.088-1.68-.831-1.68-.831s-5.92 2.47-6.87 2.7c-.94.23-1.59-.088-1-1.595.29-.546.66-1.047 1.09-1.487l.01-.011c2.02-2.285 6.18-5.934 7.68-6.657 1.91-.907 4.51-2.229 6.59-1.453 2.09.776 8.88 5.869 8.88 5.869.2 1.748-1.16 3.885-2.18 5.203z" fill="#FFE1BD"/><path d="M1099.63 586.128l-1.41 4.898c-.35.449-.72.879-1.11 1.29 0 0-4.58-3.476-5.86-3.804-1.28-.327-3.99.689-5.55.776-1.55.088-1.68-.831-1.68-.831s-5.92 2.47-6.87 2.7c-.95.23-1.59-.088-1-1.595.29-.546.66-1.047 1.09-1.487-.5.695-1.06 1.413-.73 2.297.4 1.078 6.75-1.954 11.34-4.724.07-.043.44-.226.57-.012a.917.917 0 01-.07.285.743.743 0 01-.19.23c-.76.822-4.61 1.111-3.83 2.34 1.1 1.727 5.05-1.443 7.21-.733 1.73.689 3.36 1.592 4.87 2.689 0 0 1.24-3.685 3.22-4.319z" fill="#FFD19F"/><path d="M1096.42 592.318s22.49 19.698 39.32 21.702c16.83 2.004 45.22-29.964 45.22-29.964s-1.79-17.031-12.28-15.029c-10.5 2.002-24.57 27.325-30.66 28.51-6.1 1.185-37.79-12.264-37.79-12.264a8.197 8.197 0 00-1.96 2.418 20.884 20.884 0 00-1.85 4.627z" fill="#006466"/><path d="M1172.96 495.243c-6.16-7.054-15.26-7.817-22.28-7.036a23.278 23.278 0 00-19.9 16.146 20.675 20.675 0 00.42 13.297c5.73 15.849 11.73 25.96 17.33 28.965 2.13 1.147 6.22.383 10.58-1.152.28-.099.58-.096.85.009.28.106.51.306.65.565l1.84 3.448 16.19-3.506a55.985 55.985 0 01-3.19-9.259c2.36-2.975 8.77-28.571-2.49-41.477z" fill="#FFE1BD"/><path d="M1140.23 517.855c.97-.095 1.95.121 2.8.618a4.651 4.651 0 011.9 2.148c1.33 3.172 3.39 7.61 5.01 9.053.26.173.57.267.88.27.32.003.63-.085.9-.253a1.411 1.411 0 00.81-1.384 38.522 38.522 0 00-1.87-6.316 4.252 4.252 0 01.16-3.723 4.33 4.33 0 011.26-1.433 4.277 4.277 0 011.77-.733 7.148 7.148 0 012.63.163c4.79 1.454 1.49 8.97 1.39 12.897-.06 2.767 3.24 9.181 4.71 9.757 4.81 1.89 12.1.183 15.96-4.6 3.87-4.783 4.71-20.767 2.6-30.328s-9.76-14.96-12.29-15.575a8.852 8.852 0 00-2.99-.242c-.38.036-.77-.007-1.13-.125-.36-.119-.7-.311-.98-.565-2.55-2.217-10.15-7.283-22.18-2.082a27.946 27.946 0 00-12.79 10.624 28.03 28.03 0 00-4.48 16.018c.18 4.085 3.39 3.784 5.61 3.072a3.686 3.686 0 013.52.763 8.986 8.986 0 006.8 1.976z" fill="#0B0B3A"/><path d="M1161.95 552.081s-1.4-1.554-.87-2.505c.66-1.179 7.77-6.808 16.06-6.513 1.29.047 2.87.047 4.41 3.417a24.13 24.13 0 011.91 5.602h-21.51v-.001z" fill="#007D87"/><path d="M1193.52 688.279c-.5.12-1.05.24-1.62.35-7.04 1.312-18.49 1.465-18.49 1.465-22.58-.405-33.99-21.463-37.66-27.748a23.025 23.025 0 01-1.8-3.683c1.29-.689 16.62-8.968 15.8-37.24-.17-5.858-.08-18.975-3-24.068-1.6-2.799-6.35-8.472-9.33-14.45-2.45-4.919-3.71-10.045-1.04-13.958 6.64-9.761 17.11-14.953 17.11-14.953s19.21-7.705 35.58-5.957c10.38 1.092 19.63 5.989 22.1 19.073 6.36 33.698-17.65 121.169-17.65 121.169z" fill="#007D87"/><path opacity=".18" d="M1156.03 614.023c2.79 27.814-16.12 45.328-20.28 48.323a22.994 22.994 0 01-1.8-3.684c1.29-.688 15.71-13.22 15.8-37.239.03-5.861-.08-18.975-3-24.068-1.6-2.799-6.35-8.472-9.33-14.45l1.26-.491 7.71-1.279 3.91 3.192s3.93 11.678 5.73 29.696z" fill="#00B3B7"/><path opacity=".45" d="M1193.52 688.279c-.5.12-1.05.24-1.62.35 1.44-7.597 10.56-55.304 13.53-72.606 5.87-34.157-.23-51.459-3.67-57.657-2.78-5.01-8.14-7.662-12.69-10.329 10.38 1.092 19.63 5.989 22.1 19.073 6.36 33.698-17.65 121.169-17.65 121.169z" fill="#00B3B7"/><path d="M1082.74 790.207a14.97 14.97 0 01-5.37 1.036c-3.31 0-4.28-1.241-4.28-1.241v-7.569l10.92-1.407-1.27 9.181z" fill="#FFE1BD"/><path d="M1168.55 684.358c-.07 4.92-1.37 12.768-8.74 14.985-10.98 3.296-19.1 1.425-31.84-.778-10.67-1.834-38.78-7.891-43.94-9.856a.923.923 0 00-.48-.049.97.97 0 00-.43.199.885.885 0 00-.26.392.767.767 0 00-.03.473c2.43 11.925 4.38 17.079 5.96 34.974 1.33 15.034-4.44 57.588-4.44 57.588-1.2.357-2.41.64-3.64.848-.69.113-1.39.176-2.09.188-2.05-.04-4.08-.212-6.1-.514 0 0-11.4-62.671-12.94-88.065-1.54-25.393.88-27.49 12.41-32.871 11.53-5.381 63.07-3.39 63.07-3.39l.01.013c.14.448 3.04 8.376 11.59 15.552a48.901 48.901 0 0021.89 10.311z" fill="#3D3D72"/><path d="M1137.21 662.864a28.555 28.555 0 01-2.14-4.374l-.01-.013s-.6-.023-1.63-.056a41.745 41.745 0 003.78 4.443zm24.23 19.517c-1.03 3.726-3.26 7.357-7.9 8.752-10.99 3.297-19.1 1.425-31.84-.778-10.67-1.833-38.78-7.89-43.95-9.856a.885.885 0 00-.47-.048.913.913 0 00-.43.199.882.882 0 00-.26.391.85.85 0 00-.04.473c2.44 11.925 4.39 17.079 5.97 34.974 1.03 11.706.59 49.869.35 66.194.86-.212 1.48-.397 1.48-.397s5.77-42.554 4.44-57.588c-1.58-17.896-3.53-23.049-5.96-34.973a.767.767 0 01.03-.473.882.882 0 01.26-.391.972.972 0 01.43-.2c.16-.027.33-.01.48.048 5.16 1.966 33.27 8.023 43.94 9.856 12.74 2.203 20.86 4.076 31.84.779 7.37-2.216 8.67-10.065 8.74-14.985-2.41-.5-4.78-1.161-7.11-1.977z" fill="#33305B"/><path d="M1072.91 788.943c1.73.665 3.56 1.046 5.42 1.131 1.84.003 3.66-.382 5.34-1.131 0 0 5.5 7.013 2.57 14.826a.99.99 0 01-.39.491c-.18.12-.38.184-.6.183h-36.88a.804.804 0 01-.58-.23.828.828 0 01-.26-.571c-.01-.91.35-2.359 2.59-3.046 3.41-1.044 6.92-1.622 9.56-2.556 2.63-.934 6.42-4.809 8.53-5.524a11.52 11.52 0 004.7-3.573z" fill="#1A1A47"/><path d="M1056.18 603.863s-3.29-.859-4.99-1.208c-.6-.119-1.21-.208-1.82-.266a9.5 9.5 0 00-2.17.068l-17.63 2.443a.947.947 0 01-.69-.187.992.992 0 01-.36-.617 2.032 2.032 0 01.69-1.827l1.72-1.485 5.15-4.444c2.55-2.196 4.57-2.589 7.94-2.758 1.23.173 2.44.419 3.64.738 3.45.634 4.24 1.036 6.54 1.507.64.143 1.28.246 1.93.307.26.045.52.035.77-.029a10.75 10.75 0 01-.72 7.758z" fill="#FFE1BD"/><path d="M1083.1 605.617c-.02.017-.03.029-.05.035a.09.09 0 01-.06-.006c-.45-.189-3.21-1.319-4.7-1.854-.56-.194-1.08-.341-1.53-.455-.79-.178-1.6-.275-2.41-.289h-17.7a.995.995 0 01-.71-.278c-.19-.183-.3-.435-.31-.7.01-.335.09-.663.26-.956.16-.292.39-.54.67-.722l1.91-1.235c-1.81 1.375-2.1 2.411-1.19 2.52.72.087 2.44-.103 6.78-1.314.1-.027.14.126.05.18a.932.932 0 00-.49.494c-.1.221-.12.47-.04.7.07.23.23.423.44.543.21.119.46.156.7.103.73-.036 3.83-.232 4.54-.273 2.78-.159 6.82-.421 7.6-.283 1.36.245 2.67.7 3.89 1.349.76.397 1.48-.471 1.76-1.283.44-1.327.96-2.626 1.56-3.888.25.08.51.107.77.078.37 2.64-.25 5.325-1.74 7.534z" fill="#F4F4F4"/><path d="M1152.78 563.087c-2.34-1.426-9.39-5.35-18.49 8.853-9.1 14.204-16.38 24.865-19.56 26.776-3.19 1.91-11.01.546-13.83.546-2.82 0-44.11-3.225-44.11-3.225a29.083 29.083 0 00-2.32 7.959s37.83 9.931 61.28 10.021c23.45.091 41.28-35.432 42.1-39.714.82-4.281.5-7.808-5.07-11.216z" fill="#007D87"/><path d="M1130.14 530.006a.549.549 0 01-.54-.418.63.63 0 01.04-.359.533.533 0 01.25-.259l20.35-10.438c2.3-1.181 7.01-3.597 10.51 1.54.08.119.11.267.08.409a.542.542 0 01-.22.35.549.549 0 01-.76-.143c-2.73-4.008-5.98-2.792-9.08-1.202l-20.38 10.455a.516.516 0 01-.25.065z" fill="#1A1A47"/><path d="M1150.57 519.836l2.46 7.856a2.498 2.498 0 001.94.72c.36-.026.7-.128 1.01-.299.32-.171.59-.408.8-.694 1.85-2.123 3.45-9.496.07-10.725-3.38-1.229-5.42.512-6.28 3.142z" fill="#FFE1BD"/><path d="M1243.04 633.604c0-39.673-.94-67.626-26.04-71.834-34.15-5.722-60.86 23.882-55.4 80.604 3.14 32.501-10.17 43.656-21.51 50.004-7.33 4.104-21.52 3.224-21.52 3.224s-6.57-.78-10.99-1.197c2.73 1.261 61.21 30.109 102.93 8.794 36.99-18.893 32.53-46.254 32.53-69.595z" fill="#E8F6F7"/><path d="M1243.04 633.604c0-39.673-.94-67.626-26.04-71.834a51.45 51.45 0 00-3.59-.471c-27.36 2.712-45.29 31.562-40.51 81.095 3.13 32.501-10.18 43.655-21.52 50.003-7.33 4.105-21.52 3.224-21.52 3.224s-.33-.104-.94-.288c-3.44.344-6.9.435-10.35.271 0 0-6.57-.779-10.98-1.196 2.73 1.26 61.2 30.109 102.93 8.793 36.98-18.895 32.52-46.256 32.52-69.597z" fill="#D0E0E2"/></g></g><defs><clipPath id="clip0"><path fill="#fff" d="M0 0h1440v900H0z"/></clipPath><clipPath id="clip1"><path fill="#fff" d="M704 261h598v561H704z"/></clipPath></defs></svg>