<svg width="1440" height="900" fill="none" xmlns="http://www.w3.org/2000/svg"><g clip-path="url(#clip0)"><path fill="#fff" d="M0 0h1440v900H0z"/><path fill-rule="evenodd" clip-rule="evenodd" d="M1755.42 379.376c9.93 71.122-85.61 112.688-124.7 172.857-38.48 59.239-43.67 150.78-105.73 181.865-66.24 33.182-143.35-20.693-216.56-20.429-56.09.202-109.76 23.595-165.79 21.809-57.87-1.844-113.72-15.212-168.945-32.476-61.119-19.108-130.406-28.435-175.25-75.131-44.73-46.578-42.861-122.402-71.031-181.322-31.151-65.157-92.849-115.018-104.985-186.84-12.239-72.429 15.726-145.72 36.844-216.421 22.16-74.188 23.317-177.133 90.911-211.285 80.401-40.622 175.675 54.938 262.356 32.798 64.42-16.454 87.92-105.644 146.96-137.345 65.84-35.362 153.49-99.85 213.37-56.162 72.87 53.168 28.86 184.106 72.37 264.655 25.45 47.126 98.36 50.036 123.23 97.502 24.95 47.626-13.19 114.079 12.36 161.356 40.99 75.841 162.54 98.246 174.59 184.569z" fill="#343C4C" fill-opacity=".3"/><path fill-rule="evenodd" clip-rule="evenodd" d="M1766.42 344.376c9.93 71.122-85.61 112.688-124.7 172.857-38.48 59.239-43.67 150.78-105.73 181.865-66.24 33.182-143.35-20.693-216.56-20.429-56.09.202-109.76 23.595-165.79 21.809-57.87-1.844-113.72-15.212-168.945-32.476-61.119-19.108-130.406-28.434-175.25-75.131-44.73-46.578-42.861-122.402-71.031-181.322-31.151-65.157-92.849-115.018-104.985-186.84-12.239-72.429 15.726-145.72 36.844-216.421 22.16-74.188 23.317-177.133 90.911-211.285 80.401-40.622 175.675 54.938 262.356 32.798 64.42-16.454 87.92-105.644 146.96-137.345 65.84-35.362 153.49-99.85 213.37-56.162 72.87 53.168 28.86 184.106 72.37 264.655 25.45 47.126 98.36 50.036 123.23 97.502 24.95 47.626-13.19 114.079 12.36 161.356 40.99 75.841 162.54 98.246 174.59 184.569z" fill="#343C4C"/></g><defs><clipPath id="clip0"><path fill="#fff" d="M0 0h1440v900H0z"/></clipPath></defs></svg>