<svg width="410" height="471" fill="none" xmlns="http://www.w3.org/2000/svg"><path fill-rule="evenodd" clip-rule="evenodd" d="M208.618.654c46.771-1.966 99.401-1.461 133.55 30.503 33.315 31.185 24.667 84.325 36.242 128.428 10.663 40.628 40.793 79.233 28.827 119.498-12.036 40.499-59.241 55.915-89.679 85.262-37.431 36.089-57.187 100.816-108.94 106.238-51.29 5.373-93.675-42.174-126.924-81.529-27.972-33.11-29.114-78.241-42.782-119.349-13.79-41.476-45.866-79.368-37.558-122.275 8.655-44.692 44.451-79.041 81.642-105.378 36.868-26.109 80.459-39.5 125.622-41.398z" fill="#868698"/><path fill-rule="evenodd" clip-rule="evenodd" d="M209.53 6.638c45.63-1.917 96.976-1.425 130.293 29.74 32.502 30.404 24.065 82.216 35.357 125.216 10.403 39.612 39.799 77.252 28.124 116.51-11.742 39.486-57.796 54.516-87.491 83.129-36.518 35.186-55.792 98.295-106.283 103.581-50.039 5.238-91.391-41.119-123.828-79.49-27.29-32.282-28.404-76.284-41.739-116.364C30.509 228.521-.785 191.576 7.321 149.743 15.765 106.168 50.688 72.679 86.971 47 122.942 21.544 165.469 8.49 209.53 6.638z" fill="#343C4C"/><g clip-path="url(#clip0)"><path d="M403.16 68.405H130.843v161.211H403.16V68.405z" fill="#D5DBDA"/><path d="M395.602 71.558H138.401v154.905h257.201V71.558z" fill="#fff"/><path d="M374.988 78.725H157.26v10.346h217.728V78.725z" fill="#EFEFEF"/><path d="M177.012 177.162h-11.843v29.796h11.843v-29.796z" fill="#FFD04D"/><path d="M203.698 151.004h-11.843v55.954h11.843v-55.954z" fill="#00BFD8"/><path d="M230.385 156.79h-11.843v50.168h11.843V156.79z" fill="#FFD04D"/><path d="M257.071 128.466h-11.842v78.493h11.842v-78.493z" fill="#00BFD8"/><g opacity=".15"><path d="M197.291 151.004h-5.436v55.954h5.436v-55.954z" fill="#000" opacity=".26"/></g><g opacity=".15"><path d="M170.604 177.162h-5.435v29.796h5.435v-29.796z" fill="#000" opacity=".26"/></g><g opacity=".62"><path d="M250.664 128.466h-5.435v78.493h5.435v-78.493z" fill="#000" opacity=".26"/></g><g opacity=".15"><path d="M223.977 156.79h-5.435v50.168h5.435V156.79z" fill="#000" opacity=".26"/></g><path d="M263.337 215.16H157.349V102.054h1.616V213.54h104.372v1.62z" fill="#D5DBDA"/><path d="M168.235 163.208l-1.08-1.206 27.726-24.951 25.681 5.592 27.809-31.027 1.203 1.083-28.437 31.727-25.791-5.615-27.111 24.397z" fill="#D5DBDA"/><path d="M251.752 117.283l-7.842-7.536 10.123-2.714-2.281 10.25z" fill="#D5DBDA"/><path d="M283.312 170.069h-9.939v9.96h9.939v-9.96z" fill="#00BFD8"/><path d="M283.312 187.52h-9.939v9.96h9.939v-9.96z" fill="#FFD04D"/><path d="M317.555 191.821h-31.504v5.66h31.504v-5.66zm0-17.452h-31.504v5.66h31.504v-5.66z" fill="#EFEFEF"/><path d="M341.761 170.069h-9.939v9.96h9.939v-9.96z" fill="#00BFD8"/><path d="M341.761 187.52h-9.939v9.96h9.939v-9.96z" fill="#FFD04D"/><path d="M376.002 191.821h-31.504v5.66h31.504v-5.66zm0-17.452h-31.504v5.66h31.504v-5.66zm-1.013-65.48h-93.132v2.126h93.132v-2.126zm0 5.149H274.546v2.126h100.443v-2.126zm0 5.149H274.546v2.126h100.443v-2.126zm0 5.148H274.546v2.127h100.443v-2.127zm0 5.149H274.546v2.127h100.443v-2.127zm0 5.149H274.546v2.127h100.443v-2.127zm0 5.15H274.546v2.126h100.443v-2.126zm0 5.149H274.546v2.126h100.443v-2.126zm0 5.148h-86.111v2.126h86.111v-2.126z" fill="#EFEFEF"/><path d="M409 67.1c0 .558-.221 1.093-.614 1.487a2.093 2.093 0 01-1.483.615H127.1a2.09 2.09 0 01-1.482-.615 2.108 2.108 0 01-.614-1.486 2.115 2.115 0 01.613-1.487 2.103 2.103 0 011.483-.617h279.803c.557 0 1.09.222 1.483.616s.614.929.614 1.486v.002zm0 163.819c0 .557-.221 1.092-.614 1.486a2.093 2.093 0 01-1.483.615H127.1a2.083 2.083 0 01-1.482-.615 2.108 2.108 0 01-.614-1.486 2.111 2.111 0 01.614-1.486 2.091 2.091 0 011.482-.616h279.803a2.103 2.103 0 012.097 2.102z" fill="#66341B"/><path d="M84.459 415.877l1.518-81.357h-5.4l1.518 81.357a1.221 1.221 0 00.654 1.372 1.209 1.209 0 001.712-.829c.04-.179.04-.364-.002-.543zm-49.631-9.517l31.363-75.056-5.02-1.997-28.54 76.179a1.397 1.397 0 00.548 1.826 1.387 1.387 0 001.649-.952zm96.892 0l-31.364-75.056 5.021-1.997 28.541 76.178a1.218 1.218 0 01-1.084 1.905 1.213 1.213 0 01-1.114-1.03z" fill="#723E24"/><path d="M60.3 331.634l3.194 1.271-29.48 74.346c.37-.189.66-.506.814-.891l31.364-75.056-5.021-1.997-.87 2.327zm20.316 5.028h4.024l-1.506 80.693c.047.01.094.016.142.019a1.392 1.392 0 001.183-1.497l1.518-81.357h-5.4l.039 2.142zm53.301 68.824l-28.541-76.178-5.021 1.997.577 1.38 3.106-1.235 28.377 75.741a1.065 1.065 0 00.952.124 1.39 1.39 0 00.55-1.829z" fill="#000" opacity=".3"/><path d="M120.484 338.364c-5.477 4.467-13.593 8.577-34.206 8.984-27.117.536-41.312-2.547-49.017-16.563-12.865-23.406 3.235-99.023 28.632-82.272 21.23 14.003 25.483 58.703 28.29 64.884 2.805 6.181 39.591 14.129 26.301 24.967z" fill="#E8F6F7"/><path d="M90.977 341.559c-27.116.535-41.31-2.547-49.016-16.564-8.782-15.976-4.069-56.275 7.886-74.924-15.3 14.213-22.443 62.783-12.586 80.713 7.705 14.015 21.9 17.099 49.017 16.564 20.613-.407 28.729-4.518 34.206-8.984 1.865-1.521 2.743-2.982 2.868-4.395-5.496 3.896-13.932 7.226-32.375 7.59z" fill="#D0E0E2"/><path d="M102.545 162.649c1.853-5.357 3.564-10.987 6.47-8.143 3.057 2.993 2.812 2.632 1.702 6.785-1.11 4.153-9.731 5.865-8.172 1.358z" fill="#FFE1BD"/><path d="M105.864 154.991c.921-2.55 2.433-5.462 3.987-6.666 1.555-1.204-.8 3.016-1.357 4.991-.557 1.975-3.404 3.82-2.63 1.675z" fill="#FFE1BD"/><path d="M103.363 184.028c2.178-8.191 3.266-18.896 3.266-18.896l-4.08-2.753s-8.306 17.109-12.794 30.098l-23.148-5.957-2.822-.576 7.532 15.083s22.295 3.254 23.665 2.485c1.37-.768 6.163-11.145 8.381-19.484z" fill="#F4F4F4"/><path d="M94.982 203.512c-1.37.768-23.665-2.485-23.665-2.485l-7.532-15.083 2.821.577c2.08.879 5.449 4.255 8.185 7.841 1.975 2.589 3.064 3.51 6.048 4.632 4.565 1.716 9.416 2.933 11.24 3.063 3.08.206 3.382.357 4.04-.549a1.982 1.982 0 01-1.137 2.004z" fill="#EAEAEA"/><path d="M40.48 231.487a20.47 20.47 0 01.914 11.784c-1.732 7.811.24 8.335.24 8.335s10.563 6.72 19.348 9.466c6.296 1.964 11.663 1.631 11.514-5.335l-.005-.096-.031-1.222c-.297-15.658 2.96-16.455 3.764-33.989.829-17.987-3.967-28.02-8.72-32.371-4.76-4.342-11.256-4.503-23.475-1.609-9.18 2.168-12.203 4.609-12.128 11.416a53.53 53.53 0 00.987 8.38c1.516 8.566 5.135 18.85 7.592 25.241z" fill="#F4F4F4"/><path d="M62.648 192.964s9.52 31.279 7.616 46.263l-3.507 6.399-3.835-6.975s3.118-29.957-2.852-45.157l2.578-.53z" fill="#3A3A3A"/><path d="M40.48 231.487a20.47 20.47 0 01.914 11.784c-1.732 7.811.24 8.335.24 8.335s10.563 6.72 19.348 9.466l8.21-.78 3.284-2.588.013-2.064-.03-1.221a60.73 60.73 0 01-12.397-.324 51.345 51.345 0 01-12.156-3.052 4.744 4.744 0 01-2.989-5.276 68.356 68.356 0 001.137-10.923c-.025-3.448-1.618-9.274-2.92-13.48a27.233 27.233 0 01-1.094-9.964 89.194 89.194 0 00-.01-11.358l-6.508-3.532-3.624 1.353c.108 2.816.44 5.619.99 8.382 1.516 8.567 5.135 18.851 7.592 25.242z" fill="#E2E2E2"/><path d="M40.344 264.717c-.751.125-2.674-3.258-2.674-3.258l.806-1.073a3.588 3.588 0 011.815-1.275l.13-.04a1.542 1.542 0 011.74.598c.553.82 1.405 1.755 2.395 1.719h.018a.22.22 0 00.104.018c.876.018-3.582 3.188-4.334 3.311z" fill="#F4D5B5"/><path d="M70 155.882s.814 2.282-.418 4.096l-5.038-6.833 3.514-.032 1.941 2.769z" fill="#632F00"/><path d="M42.638 164.921c.223 8.815 7.81 13.924 7.81 13.924l-.507 8.022 5.118 3.325 3.512 2.278 2.016-4.221.276-5.172a2.668 2.668 0 012.112-2.458 9.68 9.68 0 004.991-3.024 3.28 3.28 0 00.319-.395l.012-.007c3.326-4.541 4.587-21.934-6.801-26.872-11.757-5.112-19.087 5.773-18.858 14.6z" fill="#FFE1BD"/><path d="M55.403 185.38l-.344 4.812 3.512 2.278 2.015-4.221.277-5.172a2.668 2.668 0 012.112-2.458 9.68 9.68 0 004.991-3.024 3.28 3.28 0 00.319-.395 18.899 18.899 0 01-7.162 2.222 6.441 6.441 0 00-3.935 1.943 6.47 6.47 0 00-1.785 4.015z" fill="#E8C5A0"/><path d="M54.918 167.638c-.445.183-.868-.507-.868-.507s-2.469-5.556-3.318-6.408c-1.518-1.541-5.1-1.399-5.383 3.366-.222 3.691 4.128 11.56 5.464 13.871a.88.88 0 01-.223 1.118 1.093 1.093 0 01-.485.183h-.062a.846.846 0 01-.567-.203c-2.812-2.474-15.195-14.377-5.362-25.571 0 0 7.81.507 9.005 4.279a78.938 78.938 0 012.045 8.902s.22.765-.246.97z" fill="#8C4200"/><path d="M70 155.882s-6.836-5.342-17.216 1.166l-8.5-2.174s-.357-.116-.169-1.392c.189-1.276 1.128-13.8 16.016-10.985 8.56 1.619 13.804 7.565 9.868 13.385z" fill="#8C4200"/><path d="M63.306 190.301l-.05.41a8.155 8.155 0 01-.608 2.252l-2.578.529-2.245-1.677 2.575-3.001.4.102c.923.236 1.772.7 2.47 1.349l.036.036z" fill="#606060"/><path d="M50.003 183.128a8.203 8.203 0 00-2.467 2.547 32.71 32.71 0 013.161 1.658c1.345.823 7.805 5.396 7.805 5.396l1.9-3.91s-6.75-4.666-10.399-5.691zm10.397 5.688s2.26.775 2.954 2.467c0 0 1.156-2.22-.32-6.172a10.184 10.184 0 00-2.194-1.594l-.44 5.299z" fill="#E2E2E2"/><path d="M42.434 259.194c.469.613.99 1.184 1.557 1.707.355.197.416-.221.282-.515-.135-.295-1.785-1.592-1.84-1.192z" fill="#E5BB98"/><path d="M50.103 179.258h-.062a.846.846 0 01-.566-.203c-2.813-2.474-15.196-14.377-5.363-25.571a11.552 11.552 0 00-.283 3.568s-6.272 10.16 6.274 22.206z" fill="#632F00"/><path d="M56.193 420.876c22.54 0 40.813-1.393 40.813-3.112 0-1.718-18.272-3.111-40.813-3.111-22.54 0-40.812 1.393-40.812 3.111 0 1.719 18.272 3.112 40.812 3.112z" fill="#D8D8D8"/><path d="M36.03 405.891c.536 2.065.332 2.805.543 4.151.264 1.67 1.794 2.278 2.68 3.649.978 1.51 2.512 3.932-3.48 4.054-6.415.129-10.215-.315-9.127-3.95 1.088-3.635 1.301-5.235 1.226-6.419-.076-1.184.003-2.419.727-3.131.725-.711 6.485-1.989 7.43 1.646z" fill="#8C4200"/><path d="M37.385 290.357s-10.126-16.197 4.248-38.752c0 0 11.203 5.026 20.174 5.632 7.066.478 10.651-.255 10.651-.255s.595 21.685.62 33.373H37.385v.002zm6.825 47.066c2.77-11.707-8.727-13.769-12.357-5.299-5.135 11.98-4.726 64.598-4.452 72.242.036 1.001.558.813 1.116.61 1.636-.591 3.007-.826 3.657-.687a22.07 22.07 0 013.776 1.574c1.08-10.411 5.58-57.103 8.26-68.44z" fill="#3A3A3A"/><path d="M54.546 291.936c1.214-14.544-4.324-25.842-12.998-21.037-3.652 2.021-4.988 6.065-5.478 9.873-.49 3.807-3.178 43.376-4.12 50.526-2.122 16.12 10.118 11.776 11.445 7.309 3.35-11.279 10.49-38.747 11.151-46.671zm20.437 44.731c.454-10.913-8.654-10.281-12.33-1.801-7.94 18.32.058 57.326 1.688 75.723 1.78-2.961 5.153-3.964 5.945-3.901a2.838 2.838 0 011.983 1.118c-.26-22.57 2.226-59.47 2.713-71.139z" fill="#3A3A3A"/><path d="M63.062 337.851c1.357 4.456 13.052 9.613 11.83-6.607-.541-7.194-1.983-46.922-2.264-50.752-.28-3.83-.917-9.427-2.764-10.126-9.236-3.493-18.191 7.931-15.761 22.311 1.622 9.613 6.142 35.932 8.959 45.174z" fill="#3A3A3A"/><path d="M72.235 408.135c.485.945 2.804 3.129 6.02 4.569 3.214 1.439 10.023 2.112 6.24 3.379-3.784 1.268-8.196.497-10.432.141a44.87 44.87 0 00-7.036-.426c-3.476-.023-3.503-.238-3.037-4.167.648-5.407 6.681-6.551 8.245-3.496z" fill="#8C4200"/><path d="M39.71 255.965l1.785 2.521a4.642 4.642 0 012.74.493 4.662 4.662 0 011.97 1.973c1.511 2.964-3.833 6.676-5.352 5.307-1.519-1.369-4.823-7.697-4.823-7.697l3.68-2.597z" fill="#FFE1BD"/><path d="M26.36 247.971a127.86 127.86 0 019.89 11.74l.921-.621 3.527-2.404s-7.234-15.182-9.29-22.595a26.377 26.377 0 00-4.257-8.614c.138-.132.266-.263.403-.405 5.243-5.595 9.33-12.81 12.439-17.23a17.777 17.777 0 002.975-7.121 16.01 16.01 0 00.05-5.253c-.443-2.772-1.606-5.325-4.282-5.984a4.748 4.748 0 00-2.94.222 5.33 5.33 0 00-2.518 2.14c-4.088 6.626-15.665 24.565-17.485 28.99a9.314 9.314 0 00-.62 2.266 7.697 7.697 0 00-.124.776c-.703 7.258 6.487 19.216 11.312 24.093z" fill="#F4F4F4"/><path d="M26.36 247.971a127.86 127.86 0 019.89 11.74l.921-.621s-5.307-7.412-7.816-10.414c-3.843-4.597-6.546-8.183-8.839-12.406-2.292-4.222-3.372-12.361-2.157-14.647 1.205-2.284 7.976-12.377 9.429-14.317 1.453-1.93 13.337-13.814 9.925-17.125a2.397 2.397 0 00-1.916-.474 5.33 5.33 0 00-2.52 2.139c-4.087 6.626-15.664 24.565-17.484 28.99a9.314 9.314 0 00-.62 2.266 7.697 7.697 0 00-.124.776c-.703 7.258 6.487 19.216 11.312 24.093z" fill="#EAEAEA"/><path d="M45.3 258.624s-1.634 5.773-8.891 9.092c-6.26 2.864 10.024 4.501 10.388 3.864.363-.636 3.492-11.173 3.492-11.173l-4.99-1.783z" fill="#3A3A3A"/><path d="M170.044 411.303l1.527-81.857h-5.433l1.527 81.857a1.223 1.223 0 002.146 1.038 1.238 1.238 0 00.233-1.038zm-49.933-9.575l31.556-75.518-5.05-2.009-28.716 76.647a1.227 1.227 0 00.552 1.836 1.224 1.224 0 001.06-.077 1.221 1.221 0 00.598-.879zm97.488 0l-31.557-75.518 5.05-2.009 28.717 76.646a1.234 1.234 0 01.167 1.052 1.227 1.227 0 01-.718.785 1.224 1.224 0 01-1.659-.956z" fill="#723E24"/><path d="M145.74 326.542l3.213 1.279-29.66 74.802c.372-.19.662-.508.819-.896l31.555-75.517-5.05-2.009-.877 2.341zm20.438 5.059h4.049l-1.515 81.186c.047.01.095.017.143.019a1.397 1.397 0 001.189-1.503l1.527-81.857h-5.433l.04 2.155zm53.631 69.247l-28.717-76.646-5.05 2.009.581 1.388 3.124-1.242 28.552 76.205a1.072 1.072 0 00.958.125 1.405 1.405 0 00.552-1.839z" fill="#000" opacity=".3"/><path d="M208.409 301.437c0 31.395-17.709 38.913-39.554 38.913-21.846 0-39.555-7.517-39.555-38.913 0-31.397 17.709-61.738 39.555-61.738 21.845 0 39.554 30.343 39.554 61.738z" fill="#E8F6F7"/><path d="M172.03 333.282c-21.845 0-39.554-7.517-39.554-38.913a86.052 86.052 0 015.746-30.862c-5.579 10.843-8.922 24.289-8.922 37.93 0 31.396 17.709 38.913 39.555 38.913 17.127 0 31.71-4.623 37.211-21.749-6.893 11.374-19.554 14.681-34.036 14.681z" fill="#D0E0E2"/><path d="M149.892 293.212s-5.083 10.852-6.118 18.104c-1.511 10.587.722 15.174 14.219 15.596 13.498.422 17.433-2.213 23.869-2.213 6.437 0 13.917-12.229 5.629-26.75l-37.599-4.737z" fill="#09424C"/><path d="M155.689 382.118l-.248 4.106s-3.988 11.778-4.185 14.749c-.343 5.179 1.939 10.976 4.157 10.943 2.528-.037 6.012-3.284 7.565-9.774 1.054-4.395-.652-13.003-.045-15.023.606-2.02 1.829-5.936 1.829-5.936l-9.073.935z" fill="#FFE1BD"/><path d="M163.295 399.619c-1.747 1.768-5.303 5.488-6.714 5.417-1.465-.074-4.029-4.584-4.883-6.45a16.32 16.32 0 00-.441 2.384c-.343 5.179 1.939 10.977 4.157 10.944 2.528-.037 6.012-3.285 7.565-9.775.181-.829.287-1.672.316-2.52z" fill="#8C4200"/><path d="M164.563 384.117s16.127-51.032 18.14-57.31c2.013-6.278 3.637-18.216-5.698-20.299-8.062-1.798-11.444 10.25-12.918 17.672-1.475 7.422-8.902 56.954-8.902 56.954s-.877 2.785 3.937 3.582c4.813.797 5.441-.599 5.441-.599z" fill="#0C5A71"/><path d="M174.171 306.456c-3.502 4.798-5.279 13.75-6.27 18.733-1.474 7.42-8.827 57.967-8.827 57.967s1.24.636 3.922 1.838a9.457 9.457 0 00-1.282-.004c-5.19.373-6.454-2.842-6.454-2.842s7.352-50.547 8.827-57.966c1.289-6.482 4.034-16.502 10.084-17.726z" fill="#000" opacity=".1"/><path d="M135.466 380.152l-.537 4.079s-4.814 11.464-5.223 14.41c-.709 5.142 1.154 11.088 3.369 11.213 2.525.143 6.231-2.848 8.24-9.21 1.364-4.31.272-13.017 1.021-14.989.749-1.973 2.246-5.789 2.246-5.789l-9.116.286z" fill="#FFE1BD"/><path d="M141.811 398.153c-1.869 1.639-5.679 5.097-7.082 4.926-1.455-.179-3.696-4.861-4.412-6.782a16.195 16.195 0 00-.611 2.345c-.709 5.141 1.154 11.087 3.369 11.212 2.525.143 6.231-2.848 8.24-9.21.24-.814.406-1.647.496-2.491z" fill="#8C4200"/><path d="M144.176 382.781s19.707-49.753 22.161-55.872c2.454-6.119 4.921-17.911-4.243-20.654-7.914-2.368-12.142 9.411-14.139 16.707-1.997 7.296-12.921 56.175-12.921 56.175s-1.073 2.715 3.673 3.851c4.745 1.136 5.469-.207 5.469-.207z" fill="#0C5A71"/><path d="M159.272 305.999c-3.834 4.535-6.24 13.338-7.583 18.239-1.998 7.296-12.918 57.191-12.918 57.191s1.191.723 3.781 2.112a9.416 9.416 0 00-1.278-.096c-5.204 0-6.237-3.292-6.237-3.292s10.92-49.895 12.918-57.191c1.744-6.374 5.193-16.17 11.317-16.963z" fill="#000" opacity=".1"/><path d="M158.587 190.029s1.786-7.688 14.572-5.218c12.205 2.356 11.435 19.419 12.855 24.06a108.019 108.019 0 004.364 10.915.927.927 0 01.009.758.943.943 0 01-.224.317.946.946 0 01-.333.197c-4.511 1.503-23.659 7.132-36.718-.719a6.217 6.217 0 01-2.604-2.955 4.436 4.436 0 01-.352-1.826c.089-2.045 1.24-4.534.355-10.498-.884-5.963.177-15.21 8.076-15.031z" fill="#0B0B3A"/><path d="M154.829 206.514a7.023 7.023 0 00-1.035 5.397 3.628 3.628 0 001.169 2.325 3.612 3.612 0 002.421.941l.405-3.354-.888-5.902-2.072.593zm28.555 0a7.01 7.01 0 011.036 5.397 3.624 3.624 0 01-3.591 3.266l-.403-3.354.887-5.902 2.071.593z" fill="#FFE1BD"/><path d="M185.456 271.806c-.213 3.058-.14 6.13.22 9.174.372 3.899 1.674 18.186 1.674 18.186a47.58 47.58 0 01-8.081 2.178c-6.852 1.309-18.653-2.207-29.602-5.936 0 0 4.02-9.895 4.077-18.036a51.24 51.24 0 00-.072-3.431 72.478 72.478 0 00-1.171-7.5c-.114-.62-.227-1.26-.341-1.922-.412-2.384-.824-5.002-1.116-7.671a59.866 59.866 0 01-.397-7.998c-.992-7.16 1.193-14.205 1.193-14.205s9.025-3.778 12.838-4.291c0 0 6.76-1.553 11.511.029 6.213 2.063 9.614 3.266 12.404 4.796.298.164 2.108 5.473 1.314 10.148-1.164 6.853-2.883 16.253-3.805 21.904-.369 2.256-.61 3.914-.646 4.575z" fill="#FFD04D"/><path opacity=".39" d="M187.351 300.84a27.412 27.412 0 00-8.081.504c-1.903-4.918-1.305-22.776-1.305-22.776-5.325-.889-13.427-4.092-13.427-4.092-2.13 1.011-8.72 2.455-10.793 2.897a51.196 51.196 0 00-.072-3.43 72.497 72.497 0 00-1.171-7.501c2.492-1.744 7.122 2.106 7.122 2.106L183 264.87a18.772 18.772 0 013.103 2.36c-.372 2.256-.611 3.914-.647 4.576a49.07 49.07 0 00.22 9.173c.369 3.9 1.675 19.861 1.675 19.861z" fill="#CE9006"/><path d="M182.374 202.657c0 3.438-.689 11.43-2.84 16.724a14.874 14.874 0 01-6.05 7.244c-.028 1.374-.057 3.181.902 3.331.277.612.625.768.44 1.729-.646 3.417-4.615 7.195-5.588 8.141-.973.946-1.584 0-1.584 0a21.888 21.888 0 01-2.897-4.291 27.86 27.86 0 01-1.116-2.356 2.967 2.967 0 01.27-2.718c1.054-.128.667-2.391.582-3.603-2.031-1.452-3.948-3.935-5.375-6.853-2.862-5.857-3.018-13.3-3.018-17.349a13.18 13.18 0 013.848-9.31 13.118 13.118 0 0118.579.001 13.186 13.186 0 013.847 9.31z" fill="#FFE1BD"/><path d="M173.306 226.69c-.774.284-3.934 1.515-4.544 2.846-.689 1.53-1.08 4.006-1.726 4.704a7.668 7.668 0 01-2.279 1.295 27.548 27.548 0 01-1.116-2.356 2.967 2.967 0 01.27-2.718c1.053-.128.667-2.391.582-3.603a10.75 10.75 0 004.153.762c1.579-.158 3.14-.47 4.66-.93z" fill="#E8C5A0"/><path d="M178.108 261.51a26.002 26.002 0 012.751-.4c.666 0-1.24 5.982-1.24 5.982a3.122 3.122 0 00-1.508-.87c-.821-.133-.51-4.647-.51-4.647l.507-.065z" fill="#FFE1BD"/><path d="M188.597 235.177s5.94 3.06 5.585 7.686c-.355 4.626-7.308 29.893-8.505 33.217-1.197 3.324-31.495-6.761-31.495-6.761s.947-4.061 1.775-5.174c0 0 20.71 2.209 23.43 3.276 0 0 4.201-20.044 5.503-23.602 1.301-3.557 3.707-8.642 3.707-8.642z" fill="#D69507"/><path d="M178.526 266.647c-3.146 1.78-27.068 11.741-29.283 11.123-2.216-.618-4.886-2.583-5.241-8.454-.31-5.209 2.698-25.74 3.401-30.493.108-.752.417-1.46.895-2.05.145-.156.299-.303.461-.441a12.307 12.307 0 013.082-1.687c.298.676.22 3.452.589 8.324a5.863 5.863 0 01-.106 1.651c-.597 2.84-1.321 6.54-1.278 8.505 0 .119.007.237.021.356.206 2.063 1.736 5.977 1.761 7.628.05 3.9.036 4.448.029 4.512.859-.142 3.843-.676 7.484-1.324 7.52-1.352 17.831-3.209 17.831-3.209.893 1.909.354 5.559.354 5.559z" fill="#EFAF11"/><path d="M153.439 207.819s4.156-.703 6.555-3.825a21.823 21.823 0 002.91-5.797s1.453 3.128 6.334 5.352a50.447 50.447 0 0015.124 4.27s.323-11.387-3.404-16.012c-3.728-4.625-13.403-7.294-19.971-3.292-6.569 4.001-7.548 19.304-7.548 19.304z" fill="#0B0B3A"/><path d="M163.954 230.377s.682 6.137 3.7 9.451c0 0-1.001-.331-2.86 1.913a.48.48 0 01-.836-.199c-.577-2.495-2.469-8.604-1.417-10.729a1.498 1.498 0 011.413-.436zm10.339-.452a40.504 40.504 0 01-1.844 5.255 18.639 18.639 0 01-3.362 4.783s2.325.431 3.4 1.966a.382.382 0 00.356.156.376.376 0 00.306-.239c.698-1.35 1.097-2.573 1.875-5.353.885-3.168.921-4.907.818-6.217a1.344 1.344 0 00-1.549-.351z" fill="#CE9006"/><path opacity=".39" d="M151.16 267.267c-2.424-2.072.468-6.026.262-7.409-.205-1.382-.198-1.615-.376-3.009a11.653 11.653 0 01.022-3.367c.206 2.064 1.735 5.978 1.761 7.629.049 3.9.035 4.448.028 4.512.86-.142 8.883-1.583 12.525-2.231.851.45-12.591 5.269-14.222 3.875z" fill="#CE9006"/><path d="M155.424 265.175l-2.565.451a40.983 40.983 0 00-4.805-.135 15.405 15.405 0 00-3.675.786.503.503 0 01-.613-.422 7.393 7.393 0 01-.31-2.632 9.608 9.608 0 01.669-2.538 1.032 1.032 0 01.613-.564c.953-.337 2.087-.301 3.748-.159a4.824 4.824 0 013.772 1.949l1.054 1.256c.342.402.808.677 1.324.785l1.268.265s-.141.226-.26.461a4.314 4.314 0 00-.22.497z" fill="#FFE1BD"/><path d="M103.946 290.155l1.188-22.998H93.901l1.188 22.998h8.857z" fill="#FAFEFF"/><path d="M96.097 289.075l-1.042-20.838h8.927l-1.044 20.838h-6.84z" fill="#B4EFF9"/><path d="M95.397 273.333l.7 15.742h6.841l.701-15.742h-8.242z" fill="#75D9EF"/><path opacity=".5" d="M96.82 286.826h1.866l-1.103-16.418c-.227-1.984-2.077-2.092-1.785.17l1.021 16.248z" fill="#fff"/><path d="M119.894 293.301H67.851v3.266h52.043v-3.266z" fill="#282C2D"/><path d="M115.498 290.055H68.356v2.62h47.142v-2.62z" fill="#D6D6D6"/><path d="M117.949 292.051H65.905v1.251h52.044v-1.251z" fill="#525252"/><path d="M114.53 291.06H69.323v.271h45.207v-.271zm0 .586H69.323v.27h45.207v-.27zm0-1.198H69.323v.27h45.207v-.27z" fill="#A5A5AF"/><path d="M324.285 290.608h-21.493v5.345h21.493v-5.345z" fill="#F1F2F2"/><path d="M324.285 290.608h-6.783v5.345h6.783v-5.345z" fill="#A7A9AC"/><path d="M322.958 290.608h-21.493v.614h21.493v-.614zm0 4.731h-21.493v.614h21.493v-.614z" fill="#A7A9AC"/><path d="M346.132 290.608h-28.047v5.345h28.047v-5.345z" fill="#383838"/><path d="M336.106 291.851h-15.005v2.86h15.005v-2.86z" fill="#A7A9AC"/><path d="M335.297 292.005h-13.389v2.551h13.389v-2.551z" fill="#E6E7E8"/><path d="M342.219 294.715c.968 0 1.753-.641 1.753-1.432 0-.791-.785-1.432-1.753-1.432-.968 0-1.753.641-1.753 1.432 0 .791.785 1.432 1.753 1.432zm-25.891-3.134H304.07v.54h12.258v-.54zm0 2.081H304.07v.54h12.258v-.54zm0 .778H304.07v.54h12.258v-.54zm-.777-1.664h-7.638v.54h7.638v-.54zm-8.251 0h-3.23v.54h3.23v-.54z" fill="#A7A9AC"/><path d="M320.237 285.39h-21.493v5.345h21.493v-5.345z" fill="#F1F2F2"/><path d="M320.237 285.39h-6.783v5.345h6.783v-5.345z" fill="#A7A9AC"/><path d="M318.911 285.39h-21.493v.614h21.493v-.614zm0 4.731h-21.493v.614h21.493v-.614z" fill="#A7A9AC"/><path d="M342.086 285.39h-28.047v5.345h28.047v-5.345z" fill="#58595B"/><path d="M332.059 286.633h-15.005v2.859h15.005v-2.859z" fill="#A7A9AC"/><path d="M331.25 286.787h-13.389v2.551h13.389v-2.551z" fill="#E6E7E8"/><path d="M338.172 289.497c.968 0 1.753-.641 1.753-1.431 0-.791-.785-1.432-1.753-1.432-.968 0-1.753.641-1.753 1.432 0 .79.785 1.431 1.753 1.431zm-25.89-3.134h-12.258v.54h12.258v-.54zm0 2.081h-12.258v.54h12.258v-.54zm0 .779h-12.258v.54h12.258v-.54zm-.779-1.664h-7.638v.54h7.638v-.54zm-8.249 0h-3.23v.54h3.23v-.54z" fill="#A7A9AC"/><path d="M324.285 280.173h-21.493v5.344h21.493v-5.344z" fill="#F1F2F2"/><path d="M324.285 280.173h-6.783v5.344h6.783v-5.344z" fill="#A7A9AC"/><path d="M322.958 280.173h-21.493v.613h21.493v-.613zm0 4.731h-21.493v.613h21.493v-.613z" fill="#A7A9AC"/><path d="M346.132 280.173h-28.047v5.344h28.047v-5.344z" fill="#594A42"/><path d="M336.106 281.416h-15.005v2.859h15.005v-2.859z" fill="#A7A9AC"/><path d="M335.297 281.57h-13.389v2.551h13.389v-2.551z" fill="#E6E7E8"/><path d="M342.219 284.28c.968 0 1.753-.641 1.753-1.432 0-.792-.785-1.433-1.753-1.433-.968 0-1.753.641-1.753 1.433 0 .791.785 1.432 1.753 1.432zm-25.891-3.134H304.07v.54h12.258v-.54zm0 2.08H304.07v.541h12.258v-.541zm0 .779H304.07v.54h12.258v-.54zm-.777-1.664h-7.638v.539h7.638v-.539zm-8.251 0h-3.23v.539h3.23v-.539z" fill="#A7A9AC"/><path d="M347.989 295.809l1.188-17.692h-11.233l1.188 17.692h8.857z" fill="#FAFEFF"/><path d="M340.14 294.729l-1.043-15.532h8.927l-1.043 15.532h-6.841z" fill="#B4EFF9"/><path d="M339.438 284.294l.702 10.435h6.841l.701-10.435h-8.244z" fill="#75D9EF"/><path opacity=".5" d="M340.861 292.479h1.867l-1.103-11.112c-.226-1.984-2.077-2.092-1.785.17l1.021 10.942z" fill="#fff"/><path d="M121.138 277.838a10.802 10.802 0 006.767 8.753.055.055 0 00.04-.003.065.065 0 00.028-.029.061.061 0 00.001-.04.06.06 0 00-.026-.031c-3.569-1.684-6.215-4.631-6.715-8.651-.007-.062-.102-.062-.095 0v.001z" fill="#81553A"/><path d="M127.593 271.899a13.13 13.13 0 01-2.432 14.212.059.059 0 00-.017.042.058.058 0 00.058.059.059.059 0 00.042-.017 12.881 12.881 0 003.425-6.794 12.888 12.888 0 00-1.002-7.545c-.022-.051-.096-.007-.074.044v-.001zm10.314 2.218c1.922 2.448.843 5.269-.372 7.765-1.073 2.202-3.257 3.238-5.385 4.167a.076.076 0 00-.036.043.075.075 0 00.002.057.08.08 0 00.096.044c2.73-.972 4.778-2.494 5.905-5.195 1.007-2.41 1.646-4.766-.116-6.971-.053-.066-.143.027-.092.092l-.002-.002z" fill="#81553A"/><path d="M136.795 281.919a4.954 4.954 0 004.755-1.949.065.065 0 00.001-.039.06.06 0 00-.058-.044.056.056 0 00-.037.011 5.519 5.519 0 01-4.648 1.938.044.044 0 00-.041.037c-.001.01.001.02.006.028a.044.044 0 00.023.018h-.001zm-4.975-9.187c-.298 2.64-1.02 7.184-3.685 8.486a.067.067 0 00-.028.034.06.06 0 00.032.076.058.058 0 00.043.004c2.813-1.047 3.49-6.088 3.737-8.6.007-.062-.091-.062-.098 0h-.001zm-15.53 3.709a5.984 5.984 0 002.077 3.797 5.954 5.954 0 004.09 1.397c.01 0 .021-.004.028-.012a.04.04 0 000-.057.038.038 0 00-.028-.012 6.1 6.1 0 01-3.988-1.441 6.128 6.128 0 01-2.092-3.695c-.01-.058-.095-.033-.086.023h-.001z" fill="#81553A"/><path d="M141.153 283.589h-22.281s-1.807 4.36-1.807 5.438c0 1.078 2.462 3.284 5.112 3.284h15.672c2.65 0 5.111-2.207 5.111-3.284s-1.807-5.438-1.807-5.438z" fill="#FFD04D"/><path d="M138.784 293.433H121.24l.614-1.122h16.317l.613 1.122zm-14.946-4.406c0-1.077 1.807-5.438 1.807-5.438h-6.773s-1.807 4.36-1.807 5.438c0 1.078 2.462 3.284 5.112 3.284h6.773c-2.653 0-5.112-2.207-5.112-3.284z" fill="#EFAF11"/><path d="M121.854 292.311l-.613 1.122h6.773l.613-1.122h-6.773z" fill="#EFAF11" opacity=".55"/><path d="M129.179 275.472c.507-.397 2.503-1.106 3.836-.263a5.75 5.75 0 012.772 4.507 14.123 14.123 0 01-3.683.353c-4.171-.328-3.865-3.861-2.925-4.597zm10.153-2.224c.337-.29 1.69-.843 2.636-.304a3.967 3.967 0 012.053 3.017 9.718 9.718 0 01-2.526.361c-2.885-.093-2.787-2.536-2.163-3.074zm-.914-1.442a1.874 1.874 0 00-1.814.134 2.748 2.748 0 00-.992 2.315c.584.05 1.172.023 1.749-.082 1.929-.436 1.547-2.083 1.057-2.367zm-19.815 2.075a2.508 2.508 0 00-1.413-.215 1.904 1.904 0 00-1.315.946 1.92 1.92 0 00-.121 1.618 1.72 1.72 0 001.478.87c1.138.143 2.502-.75 3.637-1.119a4.859 4.859 0 00-2.266-2.1zm2.959 2.94a1.537 1.537 0 00-.83 1.263 1.38 1.38 0 001.394 1.118c.653.031 2.984-.607 3.977-.096-1.727-3.282-3.475-2.961-4.541-2.285zm19.649 1.145a1.352 1.352 0 00-.822.949 1.084 1.084 0 00.831 1.155c.472.124 2.286-.078 2.927.501.001-2.487-2.041-3.023-2.936-2.605zm-12.395 3.207c.531-.153 2.541-.328 3.372.751 1.519 1.968.214 3.665.045 4.265a12.746 12.746 0 01-3.105-.874c-3.298-1.56-2.119-3.865-.312-4.142zm-7.278.352c-.484-.163-2.122-.139-2.8.903a4.967 4.967 0 00-.539 4.31 9.85 9.85 0 002.72-.788c2.85-1.46 1.516-4.122.619-4.425zm5.312-9.828a1.556 1.556 0 011.166.869 1.266 1.266 0 01-.672 1.513c-.51.256-2.63.482-3.223 1.297.078-3.614 1.606-3.928 2.729-3.679z" fill="#709E3E"/><g opacity=".62" fill="#93BC6C"><path opacity=".62" d="M115.657 275.221a10.553 10.553 0 015.15.898c.027.012.05-.028.023-.041a9.975 9.975 0 00-5.173-.896c-.024 0-.025.04 0 .039zm.616-.412a4.99 4.99 0 013.938.404.026.026 0 00.017.002.026.026 0 00.014-.011.02.02 0 00.002-.017.026.026 0 00-.01-.014 4.561 4.561 0 00-3.971-.398.01.01 0 00-.008.008c-.002.004-.003.008-.001.012.001.005.003.008.007.01a.015.015 0 00.011.004h.001zm-.295.64c.558 1.233 2.575 1.064 3.637.783a.036.036 0 00.021-.017.034.034 0 00.004-.026.04.04 0 00-.017-.021.03.03 0 00-.026-.003c-1.033.256-3.029.451-3.583-.738-.012-.024-.047-.003-.036.022zm5.253 1.859a3.562 3.562 0 014.534 1.546c.003.004.007.008.012.009.005.001.01.001.014-.002.005-.002.008-.007.009-.012a.014.014 0 00-.002-.014 3.51 3.51 0 00-4.581-1.562.02.02 0 00-.01.01.026.026 0 00.001.015c.001.004.005.008.009.01.005.002.01.002.014 0z"/><path opacity=".62" d="M121.451 277.533c1.404.173 2.775.555 4.067 1.132.013.006.026-.014.012-.02a11.797 11.797 0 00-4.08-1.151c-.025 0-.024.037 0 .039h.001zm-.45.382a7.45 7.45 0 004.339.987c.036-.003.037-.062 0-.057-1.502.089-3-.242-4.325-.956a.02.02 0 00-.011 0 .016.016 0 00-.008.006c-.002.004-.002.007-.002.011a.024.024 0 00.006.009h.001zm3.251-2.697a8.13 8.13 0 013.109-2.92.028.028 0 00.015-.02c.003-.008.001-.017-.003-.025a.037.037 0 00-.02-.015.035.035 0 00-.025.003 7.084 7.084 0 00-3.114 2.965l.001.007c.001.006.004.01.009.013.004.003.01.003.015.002a.019.019 0 00.012-.009l.001-.001zm1.328-.629a4.626 4.626 0 002.423-2.156.027.027 0 00-.011-.035.03.03 0 00-.019-.003.036.036 0 00-.016.011 5.063 5.063 0 01-2.387 2.15c-.02.009-.012.042.01.033zm-1.295-.249a3.183 3.183 0 012.913-2.36.032.032 0 00.018-.01.032.032 0 00.007-.019.032.032 0 00-.007-.019.027.027 0 00-.018-.01 3.137 3.137 0 00-2.958 2.409c-.001.006-.001.012.002.017a.026.026 0 00.013.01.02.02 0 00.017-.002.021.021 0 00.01-.013l.003-.003zm11.557-.041a6.173 6.173 0 012.302-2.156.036.036 0 00.015-.021.032.032 0 00-.004-.025.031.031 0 00-.02-.015.037.037 0 00-.025.003 5.14 5.14 0 00-2.305 2.201v.008c.002.005.005.01.01.012a.02.02 0 00.015.003.023.023 0 00.012-.01zm.979-.465a3.374 3.374 0 001.798-1.597.025.025 0 00.001-.019.023.023 0 00-.012-.015.021.021 0 00-.019-.003.027.027 0 00-.016.01 3.819 3.819 0 01-1.762 1.59c-.02.009-.011.043.01.034z"/><path opacity=".62" d="M135.866 273.65a2.374 2.374 0 012.153-1.744.031.031 0 00.018-.009.034.034 0 00.007-.019.032.032 0 00-.007-.019.027.027 0 00-.018-.01 2.326 2.326 0 00-2.195 1.789l-.001.008.003.008a.028.028 0 00.013.011c.006.001.012.001.017-.002a.021.021 0 00.01-.013zm-17.494 12.776a14.887 14.887 0 013.742-4.597.024.024 0 00.005-.014.025.025 0 00-.005-.015.02.02 0 00-.013-.009.029.029 0 00-.016.001 12.433 12.433 0 00-3.747 4.616c-.011.023.023.043.035.02l-.001-.002z"/><path opacity=".62" d="M118.177 286.496a4.36 4.36 0 01.742-3.15 4.34 4.34 0 012.709-1.764.023.023 0 00.015-.012c.004-.006.004-.013.003-.02a.026.026 0 00-.012-.015.022.022 0 00-.019-.003 4.328 4.328 0 00-2.759 1.774 4.347 4.347 0 00-.726 3.204c.004.031.052.018.048-.014h-.001zm.397-.11a4.182 4.182 0 002.655-1.253 4.193 4.193 0 001.18-2.692c0-.028-.039-.026-.043 0a4.256 4.256 0 01-3.792 3.898c-.029.003-.03.051 0 .048v-.001zm9.521-4.788a6.158 6.158 0 013.478 4.244.023.023 0 00.01.012c.004.003.01.003.015.002a.019.019 0 00.012-.009.018.018 0 00.002-.016 5.981 5.981 0 00-3.499-4.264c-.02-.01-.039.021-.018.031z"/><path opacity=".62" d="M128.331 281.695c1.922.287 4.071.961 3.986 3.322 0 .007.002.014.007.019a.026.026 0 00.019.007.024.024 0 00.018-.007.027.027 0 00.008-.019c.186-2.385-2.108-3.093-4.029-3.36-.026-.004-.037.035-.011.039l.002-.001zm-.101.325c-.393 1.807 1.406 2.819 2.84 3.327.005.002.01.002.014 0a.018.018 0 00.01-.011.022.022 0 00.001-.014.02.02 0 00-.01-.01c-1.335-.621-3.199-1.453-2.814-3.281.006-.027-.035-.039-.041-.011zm.822-5.867c.041 2.623 3.848 3.446 5.888 3.444.005 0 .01-.002.013-.006a.016.016 0 00.006-.013.018.018 0 00-.006-.013.019.019 0 00-.013-.005c-2.037-.074-5.758-.796-5.867-3.407 0-.003-.001-.006-.003-.007-.002-.002-.005-.004-.008-.004s-.005.002-.007.004c-.002.001-.003.004-.003.007z"/><path opacity=".62" d="M129.556 276.473a26.942 26.942 0 005.78 3.129c.027.01.039-.034.012-.044a28.345 28.345 0 01-5.778-3.106c-.014-.01-.027.013-.013.023l-.001-.002zm.045-.414a9.89 9.89 0 015.809 3.429c.027.031.07-.014.045-.045a9.48 9.48 0 00-5.844-3.416c-.022-.004-.032.03-.009.034l-.001-.002z"/><path opacity=".62" d="M129.849 275.43c2.894-.165 5.371.927 5.69 4.11a.024.024 0 00.007.013.024.024 0 00.014.005c.005 0 .01-.002.014-.005.004-.004.007-.008.007-.013a4.197 4.197 0 00-1.549-3.222c-1.21-.98-2.7-1.031-4.186-.926-.025 0-.025.04 0 .039l.003-.001zm9.194-1.58c.207 1.876 2.994 2.237 4.468 2.112.005 0 .01-.002.014-.005a.021.021 0 00.005-.013.024.024 0 00-.005-.014.024.024 0 00-.014-.005c-1.478.048-4.173-.209-4.448-2.077a.005.005 0 00-.003-.005.01.01 0 00-.007-.003l-.006.003-.004.005v.002z"/><path opacity=".62" d="M139.428 274.051a19.75 19.75 0 004.371 1.893c.005.001.011 0 .016-.003a.021.021 0 00.01-.013.025.025 0 00-.001-.017.024.024 0 00-.013-.011 21.176 21.176 0 01-4.368-1.872.012.012 0 00-.01-.001c-.004.001-.007.003-.008.006-.002.003-.003.007-.002.01.001.004.003.007.006.008h-.001zm.017-.291a7.303 7.303 0 014.4 2.1.035.035 0 00.022.008.032.032 0 00.022-.01.031.031 0 00.009-.021.035.035 0 00-.008-.022 6.925 6.925 0 00-4.442-2.09c-.023 0-.023.033 0 .036l-.003-.001z"/><path opacity=".62" d="M139.589 273.304c2.053-.263 3.915.338 4.353 2.584.001.004.005.008.009.011a.017.017 0 00.014.003.02.02 0 00.013-.006.02.02 0 00.006-.014 2.916 2.916 0 00-1.296-2.196 4.252 4.252 0 00-3.104-.42.015.015 0 00-.011.008c-.003.003-.004.008-.004.013a.021.021 0 00.007.012.019.019 0 00.013.005zm.836 5.718a1.449 1.449 0 00.899.675c.38.098.783.05 1.169.117a4.47 4.47 0 011.598.641l.002-.001.001-.003-.001-.002a4.296 4.296 0 00-1.836-.702c-.689-.084-1.41-.053-1.808-.738a.016.016 0 00-.009-.007c-.003 0-.007 0-.01.002a.016.016 0 00-.006.008.012.012 0 00.002.01h-.001zm.248-.343a4.26 4.26 0 013.314 1.648c.002.002.004.002.006.002s.004 0 .006-.002l.003-.005-.001-.006a4.127 4.127 0 00-1.465-1.233 4.125 4.125 0 00-1.863-.435.016.016 0 00-.011.005.016.016 0 00-.005.011c0 .004.002.008.005.011a.015.015 0 00.011.004z"/><path opacity=".62" d="M141.06 278.454a2.219 2.219 0 011.797.148 2.218 2.218 0 011.091 1.438.016.016 0 00.008.01c.004.003.008.003.013.002a.016.016 0 00.01-.008c.003-.004.003-.009.002-.014a2.214 2.214 0 00-2.929-1.608c-.021.006-.012.039.009.032h-.001z"/></g><path d="M116.612 277.592c-.46-.397-2.276-1.107-3.489-.263a6.636 6.636 0 00-2.734 4.687c1.174.22 2.373.278 3.563.173 3.792-.329 3.515-3.861 2.66-4.597zm21.046-3.968c-.387-.268-1.843-.67-2.71.078a4.577 4.577 0 00-1.583 3.678 9.13 9.13 0 002.61 0c2.899-.555 2.402-3.257 1.683-3.756zm-9.14-4.185a1.351 1.351 0 00-.822.95 1.084 1.084 0 00.83 1.155c.473.124 2.287-.078 2.928.502.001-2.489-2.041-3.024-2.936-2.607zm8.487 11.921c.43-.241 2.15-.815 3.134-.093 1.793 1.317 1.046 3.007 1.039 3.545-.975.095-1.958.073-2.928-.067-3.259-.596-2.765-2.768-1.245-3.385z" fill="#93BC6C"/><path d="M110.616 281.862c.76-.47 1.456-1.036 2.071-1.685a10.04 10.04 0 013.414-2.202c.032-.013.02-.062-.015-.053-2.325.718-3.476 2.746-5.5 3.889a.065.065 0 00-.009.008.047.047 0 00-.005.01.024.024 0 000 .012c0 .004.001.007.003.011a.03.03 0 00.008.008c.003.003.007.004.01.005.004.001.008.002.012.001.004 0 .007-.002.011-.004z" fill="#709E3E"/><path d="M110.615 281.608a25.477 25.477 0 011.798-2.633c.982-1.091 2.143-1.354 3.567-1.304.05 0 .062-.082.012-.091-2.93-.458-4.084 1.883-5.404 4.01a.024.024 0 000 .012.016.016 0 00.007.009.017.017 0 00.012.002.02.02 0 00.01-.006l-.002.001zm.734.38c2.199-.111 5.903-.57 5.291-3.68a.043.043 0 00-.018-.022c-.009-.006-.019-.008-.029-.006a.043.043 0 00-.026.013.044.044 0 00-.011.027c.011.963-.147 1.968-.964 2.588-1.091.827-2.94.931-4.244 1.021-.037 0-.037.062 0 .058l.001.001z" fill="#709E3E"/><path d="M110.843 281.905c1.135-.373 2.341-.597 3.436-1.085 1.079-.481 1.536-1.419 2.079-2.416a.03.03 0 00.003-.023.034.034 0 00-.013-.018.03.03 0 00-.023-.003.031.031 0 00-.018.014c-.729 1.211-1.306 2.089-2.687 2.604-.913.341-1.869.559-2.789.87-.034.012-.02.067.015.055l-.003.002zm17.526-11.778a6.105 6.105 0 012.838 1.633.02.02 0 00.014.006c.005 0 .01-.002.013-.006a.016.016 0 00.006-.013.02.02 0 00-.006-.014 5.35 5.35 0 00-2.857-1.635c-.004-.001-.007 0-.011.002a.015.015 0 00-.006.009.012.012 0 00.001.01.016.016 0 00.008.008zm-.418.312a.924.924 0 00.702.564 29.358 29.358 0 002.037.608.019.019 0 00.008-.002l.007-.006.004-.007v-.009a.019.019 0 00-.002-.008l-.006-.007-.007-.003a23.875 23.875 0 00-1.311-.428c-.442-.133-1.19-.232-1.375-.719-.013-.036-.071-.021-.058.017h.001z" fill="#709E3E"/><path d="M128.388 269.934a2.656 2.656 0 012.933 1.696c.01.022.045.006.039-.016a2.567 2.567 0 00-2.989-1.739c-.041.007-.023.068.017.062v-.003zm5.289 7.35c1.321-.887 2.592-1.864 3.861-2.828.002-.001.003-.004.004-.006a.01.01 0 00-.001-.008.013.013 0 00-.006-.005.014.014 0 00-.009 0c-1.363.824-2.552 1.92-3.864 2.822-.014.01 0 .034.015.024v.001zm.343-.053c1.465-.224 3.129-1.138 3.71-2.576a.022.022 0 00-.002-.014.022.022 0 00-.01-.009c-.004-.001-.009-.002-.013 0a.015.015 0 00-.011.008 4.923 4.923 0 01-3.679 2.575c-.011 0-.006.018.004.016h.001zm-.409-.135a5.789 5.789 0 013.517-2.905c.005-.002.01-.005.012-.01.003-.005.004-.01.002-.015a.02.02 0 00-.009-.013.026.026 0 00-.015-.002 5.49 5.49 0 00-3.55 2.92.023.023 0 00-.001.018.02.02 0 00.011.014.028.028 0 00.018.003.025.025 0 00.015-.01z" fill="#709E3E"/><path d="M134.306 277.285a4.684 4.684 0 002.894-.726 1.404 1.404 0 00.628-1.698c-.009-.022-.044-.006-.038.016.635 1.944-2.225 2.349-3.484 2.381-.003 0-.007.001-.009.004-.003.002-.004.006-.004.009 0 .004.001.007.004.01a.015.015 0 00.009.004zm-.81-.46c.428-1.724 1.541-3.127 3.477-3.005.038 0 .036-.055 0-.059-1.939-.22-3.133 1.339-3.521 3.052-.002.006 0 .012.003.017a.022.022 0 00.013.01.026.026 0 00.017-.002.022.022 0 00.011-.012v-.001zm3.987 4.721a15.408 15.408 0 013.484 3.135c.015.017.038-.007.025-.025a14.205 14.205 0 00-3.494-3.134.017.017 0 00-.01 0 .016.016 0 00-.008.006.016.016 0 00-.001.01c0 .003.002.006.004.008z" fill="#709E3E"/><path d="M137.644 281.444a4.145 4.145 0 013.414 3.038c.002.005.005.01.01.012a.018.018 0 00.016.002c.005-.001.009-.005.012-.01.003-.004.003-.01.002-.015a4.051 4.051 0 00-3.447-3.054c-.017 0-.025.024-.007.027z" fill="#709E3E"/><path d="M137.984 281.344a3.068 3.068 0 012.359.683 2.544 2.544 0 01.713 2.003c0 .006.003.011.007.015s.01.007.015.007a.024.024 0 00.016-.007.02.02 0 00.006-.015 2.468 2.468 0 00-.717-2.043 3.062 3.062 0 00-2.398-.669c-.016 0-.017.027 0 .025l-.001.001zm-.623.221c-.999 1.425 2.579 2.929 3.496 3.125a.025.025 0 00.017-.004c.006-.003.009-.008.011-.014a.023.023 0 00-.002-.018.023.023 0 00-.012-.012c-.868-.243-4.382-1.649-3.479-3.059.012-.02-.018-.037-.031-.018z" fill="#709E3E"/><path d="M136.962 281.707a1.15 1.15 0 00-.128 1.785c.773.891 2.236 1.205 3.355 1.201a.03.03 0 00.02-.008.028.028 0 00.008-.02.032.032 0 00-.008-.02.03.03 0 00-.02-.008 6.346 6.346 0 01-2.029-.399c-.838-.33-2.603-1.558-1.18-2.502l.004-.004.003-.006.001-.007-.003-.006-.004-.005-.006-.003h-.007l-.006.002z" fill="#709E3E"/><path d="M85.567 300.376h-6.214v122.499h6.214V300.376zm255.738 0h-6.215v122.499h6.215V300.376z" fill="#4C2311"/><path d="M353.911 296.808H66.744v5.403h287.167v-5.403z" fill="#4C2311"/><path d="M356.923 295.727H63.733v2.422h293.19v-2.422z" fill="#66341B"/><path d="M176.648 294.478h-61.977v1.249h61.977v-1.249z" fill="#525252"/><path d="M174.03 292.864s-24.499-1.453-28.101 1.081c-4.942-2.258-28.642-1.081-28.642-1.081v1.615h56.743v-1.615z" fill="#D6D6D6"/><path d="M174.03 293.945c-2.35-.187-4.702-.339-7.055-.466-2.353-.126-4.706-.248-7.062-.31-2.355-.062-4.71-.084-7.066 0-1.177.045-2.35.118-3.515.259-.581.067-1.158.164-1.73.29a5.043 5.043 0 00-1.599.601l-.062.042-.071-.03a8.91 8.91 0 00-1.693-.497 23.727 23.727 0 00-1.766-.27 50.82 50.82 0 00-3.578-.257c-2.392-.096-4.789-.088-7.184-.041a232.91 232.91 0 00-7.185.264c-2.394.109-4.788.247-7.18.414 4.776-.431 9.565-.734 14.361-.858 2.397-.062 4.797-.086 7.197-.005 1.2.042 2.399.107 3.595.235.598.068 1.196.148 1.789.262a8.694 8.694 0 011.754.507l-.132.012a5.292 5.292 0 011.696-.632 17.7 17.7 0 011.757-.283 43.66 43.66 0 013.537-.238c2.36-.069 4.719-.033 7.077.045 4.718.155 9.424.493 14.115.956z" fill="#A5A5AF"/><path d="M174.03 293.945c-2.345-.064-4.69-.112-7.035-.145a531.934 531.934 0 00-7.034-.098 242.38 242.38 0 00-7.032.042 97.703 97.703 0 00-3.511.137c-.584.037-1.168.077-1.747.143a8.644 8.644 0 00-1.696.311l-.037.012-.037-.007a14.47 14.47 0 00-1.749-.187 55.186 55.186 0 00-1.775-.082c-1.185-.04-2.371-.059-3.558-.072a422.48 422.48 0 00-7.12.006l-14.243.206 7.119-.243 7.122-.143c2.374-.035 4.748-.062 7.124-.052 1.188.004 2.375.016 3.564.048.593.017 1.188.035 1.782.071.6.023 1.198.085 1.79.187l-.073.005a8.824 8.824 0 011.759-.311c.587-.062 1.174-.1 1.761-.133a98.425 98.425 0 013.52-.115c2.347-.038 4.693-.026 7.039 0 2.346.025 4.691.079 7.036.146 2.344.078 4.688.169 7.031.274z" fill="#A5A5AF"/><path d="M265.454 294.478h-61.976v1.249h61.976v-1.249z" fill="#525252"/><path d="M262.838 292.864s-24.499-1.453-28.101 1.081c-4.942-2.258-28.642-1.081-28.642-1.081v1.615h56.743v-1.615z" fill="#D6D6D6"/><path d="M262.838 293.945c-2.35-.187-4.702-.339-7.055-.466-2.353-.126-4.707-.248-7.062-.31-2.355-.062-4.711-.084-7.066 0a42.808 42.808 0 00-3.515.259c-.581.067-1.159.164-1.73.29a5.043 5.043 0 00-1.599.601l-.062.042-.071-.03a8.91 8.91 0 00-1.693-.497 23.727 23.727 0 00-1.766-.27 50.82 50.82 0 00-3.578-.257c-2.392-.096-4.789-.088-7.184-.041-2.396.047-4.791.143-7.185.264-2.397.109-4.79.247-7.18.414 4.776-.431 9.565-.734 14.36-.858 2.398-.062 4.798-.086 7.198-.005 1.2.042 2.399.107 3.595.235a23.65 23.65 0 011.789.262 8.694 8.694 0 011.754.507l-.132.012a5.269 5.269 0 011.696-.632 17.7 17.7 0 011.757-.283 43.66 43.66 0 013.537-.238c2.36-.069 4.719-.033 7.076.045 4.718.155 9.424.493 14.116.956z" fill="#A5A5AF"/><path d="M262.838 293.945c-2.345-.064-4.69-.112-7.035-.145-2.345-.046-4.69-.083-7.034-.098a242.45 242.45 0 00-7.033.042 97.793 97.793 0 00-3.511.137c-.584.037-1.168.077-1.747.143a8.658 8.658 0 00-1.696.311l-.037.012-.037-.007a14.47 14.47 0 00-1.749-.187 55.186 55.186 0 00-1.775-.082c-1.184-.04-2.371-.059-3.557-.072a422.589 422.589 0 00-7.121.006l-14.243.206 7.121-.246 7.122-.143c2.375-.035 4.748-.062 7.124-.053 1.188.005 2.376.017 3.564.049.594.017 1.188.035 1.782.071.601.023 1.199.085 1.79.187l-.073.005a8.834 8.834 0 011.76-.311c.586-.062 1.173-.1 1.76-.133a98.502 98.502 0 013.52-.115c2.347-.038 4.694-.026 7.039 0 2.346.025 4.691.078 7.035.146 2.344.08 4.687.172 7.031.277z" fill="#A5A5AF"/><path d="M295.284 400.621l1.031 6.201h4.718l2.03-.349-1.486-9.636-6.293 3.784z" fill="#FFE1BD"/><path d="M302.219 398.846c-.451.209-.929.391-1.425.565-2 .612-4.044 1.065-6.114 1.356-5.641-9.275-20.277-54.451-20.277-54.451-1.346-5.707 7.206 1.601 10.765 1.383a7.543 7.543 0 013.282.478c3.403 1.445 8.394 11.092 8.394 11.092s1.519 3.333 3.108 10.223c1.589 6.89 2.267 29.354 2.267 29.354z" fill="#1A1A47"/><path opacity=".54" d="M302.22 398.846c-.452.209-.93.391-1.426.565-.356-2.749-.885-7.134-1.667-14.12-1.745-15.66-11.65-33.591-13.959-37.593a7.539 7.539 0 013.281.479c3.403 1.444 8.395 11.092 8.395 11.092s1.519 3.332 3.108 10.222c1.588 6.891 2.268 29.355 2.268 29.355z" fill="#3D3D72"/><path d="M296.008 405.92a11.43 11.43 0 003.605-.555 8.609 8.609 0 003.038-1.926s5.007 3.064 5 8.567a.697.697 0 01-.458.645s-12.007 5.346-16.138 6.809a61.488 61.488 0 01-6.626 1.717.58.58 0 01-.706-.317c-.217-.559-.325-1.539.9-2.481 1.86-1.429 3.897-2.599 5.31-3.784 1.412-1.185 2.856-4.453 4-5.383a7.608 7.608 0 002.075-3.292z" fill="#1A1A47"/><path d="M320.879 433.274l1.753-93.944h-6.236l1.753 93.944c.02.953.632 1.725 1.364 1.725.732 0 1.345-.772 1.366-1.725zm-57.307-10.989l36.217-86.667-5.796-2.306-32.957 87.961c-.332.893-.048 1.837.634 2.108.681.272 1.532-.218 1.902-1.096zm111.883 0l-36.216-86.668 5.796-2.305 32.957 87.961c.332.893.048 1.837-.633 2.108-.681.272-1.534-.218-1.904-1.096z" fill="#723E24"/><path d="M292.986 335.998l3.688 1.467-34.041 85.849c.426-.218.76-.583.939-1.029l36.217-86.668-5.796-2.305-1.007 2.686zm23.456 5.804h4.649l-1.739 93.175c.054.012.109.019.164.022.734 0 1.344-.772 1.364-1.725l1.754-93.944h-6.238l.046 2.472zm61.55 79.474l-32.957-87.961-5.796 2.306.667 1.594 3.586-1.429 32.768 87.455a1.232 1.232 0 001.099.14c.681-.268.963-1.212.633-2.105z" fill="#000" opacity=".3"/><path d="M275.591 291.672h-57.303l-11.343-35.742a2.802 2.802 0 01.406-2.494 2.794 2.794 0 012.249-1.143h51.457a2.79 2.79 0 012.654 1.945l11.88 37.434z" fill="#fff"/><path d="M274.664 291.672h-54.865l-11.237-35.082a2.745 2.745 0 012.628-3.57h49.077a2.755 2.755 0 012.628 1.909l11.769 36.743z" fill="#E1EDF9"/><path d="M240.243 259.652h-24.999a.676.676 0 010-1.352h24.996a.674.674 0 01.674.676.674.674 0 01-.671.676zm3.871 3.124h-27.873a.676.676 0 010-1.352h27.873a.67.67 0 01.623.417.677.677 0 01-.623.935zm-2.582 3.124h-24.278a.675.675 0 010-1.352h24.277a.674.674 0 01.674.676.675.675 0 01-.673.676zm-4.047 3.123h-19.241a.675.675 0 110-1.351h19.241a.672.672 0 01.675.676.676.676 0 01-.675.675zm9.651 3.124h-27.874a.675.675 0 010-1.352h27.874a.674.674 0 01.623.935.689.689 0 01-.365.366.674.674 0 01-.258.051zm-2.599 3.125H220.26a.674.674 0 01-.258-1.3.675.675 0 01.258-.052h24.277a.678.678 0 01.674.676.674.674 0 01-.674.676zm5.586 6.247h-27.875a.668.668 0 01-.477-.198.677.677 0 01.477-1.154h27.873a.672.672 0 01.623.417.674.674 0 01-.621.935zm1.015 3.124h-27.874a.674.674 0 01-.674-.676.674.674 0 01.674-.676h27.874a.676.676 0 01.676.678.672.672 0 01-.418.623.674.674 0 01-.258.051zm14.821 0h-9a1.923 1.923 0 01-1.834-1.347l-7.507-23.809a1.934 1.934 0 01.964-2.301c.27-.137.568-.208.87-.207h9.004a1.923 1.923 0 011.834 1.346l7.506 23.809a1.939 1.939 0 01-.282 1.722 1.922 1.922 0 01-1.555.787z" fill="#C2E0F2"/><path d="M280.393 294.273h-62.315a1.842 1.842 0 01-1.843-1.847 1.847 1.847 0 011.843-1.848h62.315a1.842 1.842 0 011.843 1.848 1.847 1.847 0 01-1.843 1.847z" fill="#fff"/><path d="M298.385 244.889a1.57 1.57 0 01-1.364-.788l-2.072-3.654a1.55 1.55 0 01-.142-1.21 1.552 1.552 0 01.769-.944l5.77-3.054a1.561 1.561 0 012.097.634l1.97 3.623a1.555 1.555 0 01.126 1.19 1.567 1.567 0 01-.751.931l-5.666 3.084c-.226.123-.48.188-.737.188zm3.687-9.109a.816.816 0 00-.389.097l-5.77 3.053a.845.845 0 00-.338 1.161l2.074 3.654a.844.844 0 001.131.323l5.666-3.085a.838.838 0 00.336-1.141l-1.968-3.624a.841.841 0 00-.742-.438z" fill="#1A1A47"/><path d="M274.736 282.664c-.228.296-.47.58-.727.851 0 0-3.021-2.292-3.862-2.509-.842-.216-2.633.454-3.657.512-1.025.058-1.107-.548-1.107-.548s-3.9 1.629-4.525 1.781c-.626.151-1.051-.058-.662-1.053.191-.36.434-.69.719-.98l.008-.007c1.331-1.507 4.072-3.914 5.056-4.391 1.259-.598 2.971-1.47 4.345-.958 1.373.511 5.848 3.871 5.848 3.871.132 1.153-.76 2.562-1.436 3.431z" fill="#FFE1BD"/><path d="M275.665 279.434l-.93 3.23c-.228.296-.47.58-.727.851 0 0-3.021-2.292-3.862-2.509-.842-.216-2.633.454-3.657.512-1.025.058-1.107-.548-1.107-.548s-3.9 1.629-4.525 1.781c-.626.151-1.051-.058-.662-1.053.191-.36.434-.69.719-.98-.33.459-.697.932-.48 1.515.264.711 4.449-1.289 7.472-3.116.047-.028.29-.149.371-.008a.448.448 0 01-.166.34c-.504.542-3.037.733-2.524 1.543.722 1.139 3.323-.952 4.747-.483a14.644 14.644 0 013.208 1.773s.82-2.43 2.123-2.848z" fill="#FFD19F"/><path d="M273.551 283.517s14.821 12.991 25.909 14.313c11.088 1.321 29.792-19.763 29.792-19.763s-1.177-11.233-8.092-9.912c-6.914 1.321-16.184 18.022-20.2 18.804-4.016.781-24.899-8.089-24.899-8.089a5.446 5.446 0 00-1.292 1.595c-.524.965-.933 1.99-1.218 3.052z" fill="#006466"/><path d="M323.977 219.492c-4.056-4.653-10.051-5.156-14.678-4.64a15.308 15.308 0 00-8.149 3.353 15.37 15.37 0 00-4.963 7.295 13.713 13.713 0 00.276 8.77c3.777 10.453 7.733 17.121 11.419 19.104 1.407.756 4.098.252 6.972-.76a.81.81 0 01.987.378l1.213 2.274 10.67-2.312a36.555 36.555 0 01-2.101-6.107c1.55-1.962 5.778-18.843-1.646-27.355z" fill="#FFE1BD"/><path d="M302.415 234.406a3.055 3.055 0 013.099 1.823c.877 2.093 2.231 5.02 3.296 5.971a1.078 1.078 0 001.173.011.92.92 0 00.535-.912 24.87 24.87 0 00-1.232-4.166 2.806 2.806 0 012.101-3.884 4.72 4.72 0 011.736.107c3.154.959.981 5.917.917 8.506-.044 1.825 2.136 6.056 3.099 6.436 3.17 1.246 7.973.12 10.52-3.034 2.548-3.154 3.099-13.697 1.709-20.002-1.391-6.306-6.429-9.868-8.092-10.273a5.84 5.84 0 00-1.975-.159 1.848 1.848 0 01-1.391-.456c-1.676-1.462-6.687-4.803-14.614-1.373a18.384 18.384 0 00-8.423 7.007 18.456 18.456 0 00-2.951 10.565c.117 2.694 2.228 2.495 3.692 2.025a2.442 2.442 0 012.324.504 5.919 5.919 0 004.477 1.304z" fill="#0B0B3A"/><path d="M316.725 256.979s-.918-1.025-.57-1.652c.434-.778 5.115-4.491 10.58-4.296.85.031 1.888.031 2.907 2.253a16.09 16.09 0 011.259 3.695h-14.176z" fill="#007D87"/><path d="M337.525 346.806c-.331.079-.69.158-1.065.231-4.639.865-12.185.966-12.185.966-14.876-.267-22.395-14.155-24.812-18.301a15.595 15.595 0 01-1.187-2.429c.85-.454 10.954-5.914 10.414-24.561-.113-3.864-.058-12.514-1.978-15.874-1.058-1.845-4.187-5.587-6.15-9.53-1.612-3.244-2.446-6.625-.682-9.206 4.373-6.437 11.272-9.862 11.272-9.862s12.66-5.082 23.442-3.929c6.841.721 12.933 3.95 14.559 12.58 4.193 22.224-11.628 79.915-11.628 79.915z" fill="#007D87"/><path opacity=".18" d="M312.827 297.831c1.838 18.345-10.623 29.896-13.364 31.871a15.595 15.595 0 01-1.187-2.429c.85-.454 10.352-8.719 10.414-24.561.016-3.866-.058-12.514-1.978-15.874-1.058-1.845-4.187-5.587-6.15-9.53l.834-.324 5.078-.843 2.576 2.105s2.586 7.702 3.777 19.585z" fill="#00B3B7"/><path opacity=".45" d="M337.525 346.806a26.41 26.41 0 01-1.065.231c.95-5.011 6.96-36.475 8.916-47.886 3.863-22.528-.158-33.939-2.424-38.027-1.831-3.304-5.358-5.054-8.358-6.813 6.84.721 12.933 3.95 14.558 12.58 4.194 22.224-11.627 79.915-11.627 79.915z" fill="#00B3B7"/><path d="M264.539 414.031a9.835 9.835 0 01-3.538.683c-2.185 0-2.819-.818-2.819-.818v-4.992l7.195-.928-.838 6.055z" fill="#FFE1BD"/><path d="M321.073 344.22c-.043 3.245-.902 8.421-5.755 9.883-7.239 2.174-12.587.94-20.981-.513-7.032-1.21-25.55-5.204-28.953-6.5a.577.577 0 00-.31-.032.58.58 0 00-.46.389.582.582 0 00-.02.312c1.606 7.865 2.89 11.265 3.93 23.067.875 9.915-2.927 37.981-2.927 37.981-.786.236-1.586.422-2.396.559a9.67 9.67 0 01-1.38.125 31.26 31.26 0 01-4.019-.34s-7.509-41.333-8.524-58.081c-1.016-16.748.582-18.131 8.177-21.68 7.596-3.549 41.551-2.236 41.551-2.236l.009.008c.095.296 2.005 5.525 7.639 10.258a32.175 32.175 0 0014.419 6.8z" fill="#3D3D72"/><path d="M300.424 330.044a19.243 19.243 0 01-1.409-2.885l-.008-.008s-.394-.015-1.074-.037a28.281 28.281 0 002.491 2.93zm15.969 12.872c-.682 2.457-2.151 4.852-5.206 5.773-7.24 2.174-12.588.94-20.982-.513-7.031-1.21-25.55-5.205-28.953-6.501a.586.586 0 00-.77.357.603.603 0 00-.02.312c1.606 7.865 2.89 11.265 3.931 23.067.682 7.72.391 32.89.228 43.657.569-.14.977-.261.977-.261s3.802-28.066 2.927-37.982c-1.041-11.803-2.325-15.201-3.931-23.066a.602.602 0 01.02-.312.599.599 0 01.46-.39.6.6 0 01.311.032c3.402 1.297 21.921 5.291 28.952 6.5 8.394 1.453 13.742 2.689 20.982.514 4.852-1.462 5.711-6.638 5.755-9.883a36.49 36.49 0 01-4.681-1.304z" fill="#33305B"/><path d="M258.059 413.198c1.143.438 2.349.69 3.571.745a8.58 8.58 0 003.518-.745s3.624 4.625 1.698 9.778a.691.691 0 01-.654.444h-24.301a.542.542 0 01-.551-.528c-.008-.6.232-1.556 1.708-2.009 2.243-.688 4.558-1.069 6.294-1.685 1.736-.617 4.229-3.172 5.625-3.644a7.578 7.578 0 003.092-2.356z" fill="#1A1A47"/><path d="M247.035 291.131s-2.162-.567-3.285-.797a12.15 12.15 0 00-1.201-.176 6.291 6.291 0 00-1.425.045l-11.618 1.611a.616.616 0 01-.691-.529 1.34 1.34 0 01.451-1.205l1.136-.98 3.393-2.931c1.68-1.449 3.012-1.708 5.233-1.819.808.114 1.608.276 2.396.487 2.276.418 2.795.683 4.313.994.418.094.842.162 1.269.202a1.2 1.2 0 00.506-.019 7.069 7.069 0 01-.477 5.117z" fill="#FFE1BD"/><path d="M264.772 292.287a.048.048 0 01-.031.023.046.046 0 01-.038-.004c-.298-.124-2.113-.869-3.1-1.222a11.475 11.475 0 00-1.006-.3 7.82 7.82 0 00-1.584-.191h-11.662a.657.657 0 01-.673-.645 1.335 1.335 0 01.611-1.107l1.259-.814c-1.191.907-1.383 1.59-.786 1.662.477.058 1.607-.068 4.47-.867.062-.018.09.083.033.119a.64.64 0 00-.059 1.146.641.641 0 00.456.068c.481-.024 2.526-.154 2.997-.18 1.829-.105 4.493-.278 5.005-.187a8.77 8.77 0 012.563.89c.501.261.977-.311 1.159-.846a22.1 22.1 0 011.029-2.565c.163.053.335.07.504.051a7.112 7.112 0 01-1.147 4.969z" fill="#F4F4F4"/><path d="M310.682 264.237c-1.537-.94-6.186-3.528-12.181 5.839-5.994 9.368-10.789 16.4-12.888 17.66-2.098 1.26-7.252.36-9.111.36-1.86 0-29.062-2.127-29.062-2.127a19.225 19.225 0 00-1.529 5.249s24.926 6.55 40.376 6.61c15.45.059 27.199-23.369 27.739-26.193.539-2.824.329-5.15-3.344-7.398z" fill="#007D87"/><path d="M295.77 242.42a.363.363 0 01-.355-.276.365.365 0 01.191-.408l13.403-6.884c1.517-.779 4.621-2.373 6.926 1.015a.358.358 0 01-.095.501.358.358 0 01-.499-.095c-1.798-2.643-3.94-1.841-5.979-.792l-13.428 6.895a.375.375 0 01-.164.044z" fill="#1A1A47"/><path d="M309.231 235.712l1.619 5.181a1.643 1.643 0 001.277.475 1.635 1.635 0 001.196-.655c1.214-1.4 2.27-6.263.045-7.073-2.226-.811-3.574.338-4.137 2.072z" fill="#FFE1BD"/><path d="M370.151 310.746c0-26.166-.614-44.602-17.152-47.377-22.5-3.774-40.103 15.751-36.5 53.161 2.064 21.436-6.707 28.793-14.176 32.979-4.83 2.707-14.179 2.127-14.179 2.127s-4.33-.515-7.237-.789c1.798.831 40.324 19.857 67.815 5.799 24.368-12.46 21.429-30.506 21.429-45.9z" fill="#E8F6F7"/><path d="M370.151 310.746c0-26.166-.615-44.602-17.152-47.377a34.69 34.69 0 00-2.365-.311c-18.028 1.789-29.84 20.816-26.695 53.485 2.064 21.436-6.707 28.792-14.176 32.979-4.83 2.707-14.179 2.127-14.179 2.127s-.22-.069-.62-.19a46.47 46.47 0 01-6.818.178s-4.33-.514-7.237-.788c1.798.831 40.324 19.857 67.815 5.799 24.365-12.462 21.427-30.508 21.427-45.902z" fill="#D0E0E2"/></g><defs><clipPath id="clip0"><path fill="#fff" d="M15 65h394v370H15z"/></clipPath></defs></svg>